<?xml version="1.0" standalone="no"?>
<!DOCTYPE svg PUBLIC "-//W3C//DTD SVG 1.1//EN" "http://www.w3.org/Graphics/SVG/1.1/DTD/svg11.dtd">
<svg xmlns="http://www.w3.org/2000/svg"><metadata>This SVG WebFont was generated by YouWorkForThem.
</metadata><defs><font horiz-adv-x="1292" id="ywftsvg"><font-face ascent="1638" bbox="-278.942 -561.5 2691 2294" cap-height="1550" descent="-410" font-family="" font-stretch="normal" font-weight="400" panose-1="0 0 5 0 0 0 0 0 0 0" underline-position="0" underline-thickness="0" unicode-range="U+0020-1F603" units-per-em="2048" x-height="1120"/><missing-glyph d="M201 1550h958q31 0 31 -30v-1489q0 -31 -31 -31h-958q-31 0 -31 31v1489q0 30 31 30zM657 1288q-147 0 -245 -18q-27 -6 -27 -31v-92q0 -20 21 -21h251q66 0 98.5 -5t56.5 -27.5t24 -69.5v-49q0 -49 -17.5 -75t-56.5 -46l-166 -80q-59 -35 -75.5 -61.5t-10.5 -77.5l8 -76 q0 -12 14 -12h117q14 0 15 14l2 27q2 27 16 40t55 34l137 65q82 39 114 89t32 155v76q0 78 -27.5 128t-83 73.5t-112 31.5t-140.5 8zM590 446q-104 0 -105 -98q0 -96 105 -96q102 0 102 96q0 98 -102 98z" horiz-adv-x="903"/><glyph d="M1442 1542q27 -6 26 -33v-90q0 -31 -30 -30h-113q-98 0 -135 -19.5t-37 -91.5v-160h262q33 0 27 -33l-17 -98q-6 -27 -32 -26h-240v-930q0 -31 -31 -31h-135q-31 0 -31 31v930h-540v-930q0 -31 -31 -31h-135q-31 0 -31 31v930h-145q-31 0 -31 30v96q0 31 31 31h145v203 q0 66 21.5 113t51.5 70.5t76 36.5t78.5 16.5t77.5 3.5q88 0 181 -19q27 -6 26 -33v-90q0 -31 -31 -30h-112q-98 0 -135 -19.5t-37 -91.5v-160h540v203q0 66 21.5 113t51.5 70.5t76 36.5t79 16.5t78 3.5q88 -1 180 -19z" glyph-name="uniFB00" horiz-adv-x="1470" unicode="ff"/><glyph d="M991 1567q121 0 121 -119q0 -121 -121 -121t-121 121q0 119 121 119zM524 1561q72 0 160 -19q27 -6 27 -33v-90q0 -31 -31 -30h-92q-98 0 -135 -19.5t-37 -91.5v-160h643q31 0 31 -31v-1056q0 -31 -31 -31h-135q-31 0 -31 31v930h-477v-930q0 -31 -31 -31h-135 q-31 0 -31 31v930h-145q-31 0 -31 30v96q0 31 31 31h145v203q0 66 21.5 113t51.5 70.5t76 36.5t78.5 16.5t77.5 3.5z" glyph-name="uniFB01" horiz-adv-x="1230" unicode="fi"/><glyph d="M1036 1538q31 -2 31 -31v-1476q0 -31 -31 -31h-135q-31 0 -31 31v1353l-249 5q-104 0 -154.5 -20.5t-50.5 -90.5v-160h260q33 0 26 -33l-16 -98q-6 -27 -33 -26h-237v-930q0 -31 -31 -31h-135q-31 0 -31 31v930h-145q-31 0 -31 30v96q0 31 31 31h145v203q0 240 389 240 q117 0 428 -23z" glyph-name="uniFB02" horiz-adv-x="1208" unicode="fl"/><glyph d="M1728.5 1567q120.5 0 120.5 -119q0 -121 -120.5 -121t-120.5 121q0 119 120.5 119zM1262 1561q72 0 163 -19q27 -6 27 -33v-90q0 -31 -31 -30h-96q-98 0 -135 -19.5t-37 -91.5v-160h643q31 0 31 -31v-1056q0 -31 -31 -31h-135q-31 0 -31 31v930h-477v-930q0 -31 -31 -31 h-135q-31 0 -31 31v930h-540v-930q0 -31 -31 -31h-135q-31 0 -31 31v930h-145q-31 0 -31 30v96q0 31 31 31h145v203q0 66 21.5 113t51.5 70.5t76 36.5t78.5 16.5t77.5 3.5q88 0 176 -19q29 -6 29 -33v-90q0 -31 -33 -30h-108q-98 0 -135 -19.5t-37 -91.5v-160h540v203 q0 66 21.5 113t51.5 70.5t76 36.5t79 16.5t78 3.5z" glyph-name="uniFB03" horiz-adv-x="1968" unicode="ffi"/><glyph d="M1774 1538q31 -2 30 -31v-1476q0 -31 -30 -31h-136q-31 0 -30 31v1353l-250 5q-104 0 -154.5 -20.5t-50.5 -90.5v-160h258q33 0 27 -33l-17 -98q-6 -27 -35 -26h-233v-930q0 -31 -31 -31h-135q-31 0 -31 31v930h-540v-930q0 -31 -31 -31h-135q-31 0 -31 31v930h-145 q-31 0 -31 30v96q0 31 31 31h145v203q0 66 21.5 113t51.5 70.5t76 36.5t78.5 16.5t77.5 3.5q125 0 217 -19q27 -6 27 -33v-90q0 -31 -31 -30h-149q-98 0 -135 -19.5t-37 -91.5v-160h540v203q0 240 387 240q120 0 431 -23z" glyph-name="uniFB04" horiz-adv-x="1945" unicode="ffl"/><glyph d="M1337 1130q287 0 377 -113.5t90 -459.5q0 -344 -91 -455.5t-386 -111.5q-207 0 -426 35q-33 4 -33 32v1327l-247 5q-104 0 -155.5 -20.5t-51.5 -90.5v-160h262q33 0 26 -33l-18 -98q-6 -27 -33 -26h-237v-930q0 -31 -31 -31h-133q-31 0 -31 31v930h-145q-31 0 -31 30v96 q0 31 31 31h145v203q0 240 387 240q121 0 428 -23q31 -2 31 -31v-391q110 14 272 14zM1329 162q182 0 231.5 75.5t49.5 321.5q0 250 -49.5 324.5t-233.5 74.5h-262v-780q131 -16 264 -16z" glyph-name="f_b.liga" horiz-adv-x="1910" unicode="fb"/><glyph d="M2085 1130q287 0 377 -114.5t90 -458.5t-92.5 -455.5t-384.5 -111.5q-207 0 -426 35q-33 2 -33 32v1327l-250 5q-104 0 -154.5 -20.5t-50.5 -90.5v-160h260q33 0 27 -33l-16 -98q-6 -27 -33 -26h-238v-930q0 -31 -31 -31h-135q-31 0 -30 31v930h-549v-930q0 -31 -31 -31 h-133q-31 0 -31 31v930h-145q-33 0 -33 30v96q0 31 33 31h145v203q0 66 21.5 113t50.5 70.5t75 36.5t78.5 16.5t77.5 3.5q92 0 181 -19q29 -6 28 -33v-90q0 -31 -31 -30h-112q-98 0 -136 -19.5t-38 -91.5v-160h549v203q0 240 389 240q117 0 428 -23q31 -2 30 -31v-391 q107 14 273 14zM2075 162q182 0 231 75.5t49 321.5q0 250 -49 324.5t-233 74.5h-261v-780q132 -16 263 -16z" glyph-name="f_f_b.liga" horiz-adv-x="2658" unicode="ffb"/><glyph d="M1683 1567q121 0 121 -119q0 -121 -121 -121q-123 0 -122 121q-1 119 122 119zM1262 1561q68 0 151 -19q29 -6 29 -33v-90q0 -31 -33 -30h-84q-98 0 -135 -19.5t-37 -91.5v-160h598q31 0 31 -31v-1329q0 -47 -14.5 -80.5t-34 -51t-53 -27t-59.5 -11.5t-65 -2 q-76 0 -112 8q-29 6 -29 33v103q0 29 33 28h47q61 0 75.5 14.5t14.5 73.5v1115h-432v-930q0 -31 -31 -31h-135q-31 0 -31 31v930h-540v-930q0 -31 -31 -31h-135q-31 0 -31 31v930h-145q-31 0 -31 30v96q0 31 31 31h145v203q0 66 21.5 113t51.5 70.5t76 36.5t78.5 16.5 t77.5 3.5q92 0 181 -19q27 -6 26 -33v-90q0 -31 -31 -30h-112q-98 0 -135 -19.5t-37 -91.5v-160h540v203q0 66 21.5 113t51.5 70.5t76 36.5t79 16.5t78 3.5z" glyph-name="f_f_j.liga" horiz-adv-x="1923" unicode="ffj"/><glyph d="M2005 680l483 -625q37 -55 -34 -55h-146q-27 0 -45 23l-463 610v-602q0 -31 -31 -31h-135q-31 0 -30 31v1353l-248 5q-104 0 -154.5 -20.5t-50.5 -90.5v-160h260q33 0 27 -33l-19 -98q-6 -27 -33 -26h-235v-930q0 -31 -31 -31h-135q-31 0 -31 31v930h-538v-930 q0 -31 -31 -31h-133q-31 0 -31 31v930h-145q-33 0 -33 30v96q0 31 33 31h145v203q0 66 21.5 113t50.5 70.5t75 36.5t78.5 16.5t77.5 3.5q92 0 181 -19q29 -6 28 -33v-90q0 -31 -31 -30h-112q-98 0 -136 -19.5t-38 -91.5v-160h538v203q0 240 387 240q121 0 428 -23 q31 -2 31 -31v-784l336 377q16 20 43 20h172q53 0 19 -39z" glyph-name="f_f_k.liga" horiz-adv-x="2496" unicode="ffk"/><glyph d="M946 1567q121 0 121 -119q0 -121 -121 -121q-123 0 -123 121q0 119 123 119zM524 1561q70 0 158 -19q27 -6 27 -33v-90q0 -31 -31 -30h-90q-98 0 -135 -19.5t-37 -91.5v-160h598q31 0 30 -31v-1329q0 -47 -14 -80.5t-33.5 -51t-53.5 -27t-59.5 -11.5t-64.5 -2 q-76 0 -112 8q-29 6 -29 33v103q0 29 33 28h47q61 0 75.5 14.5t14.5 73.5v1115h-432v-930q0 -31 -31 -31h-135q-31 0 -31 31v930h-145q-31 0 -31 30v96q0 31 31 31h145v203q0 66 21.5 113t51.5 70.5t76 36.5t78.5 16.5t77.5 3.5z" glyph-name="f_j.liga" horiz-adv-x="1185" unicode="fj"/><glyph d="M1270 680l483 -625q16 -18 10 -36.5t-45 -18.5h-143q-27 0 -45 23l-463 610v-602q0 -31 -31 -31h-135q-31 0 -31 31v1353l-249 5q-104 0 -154.5 -20.5t-50.5 -90.5v-160h260q33 0 26 -33l-16 -98q-6 -27 -33 -26h-237v-930q0 -31 -31 -31h-135q-31 0 -31 31v930h-145 q-31 0 -31 30v96q0 31 31 31h145v203q0 240 389 240q117 0 428 -23q31 -2 31 -31v-784l334 377q16 20 43 20h172q27 0 31 -11t-13 -28z" glyph-name="f_k.liga" horiz-adv-x="1763" unicode="fk"/><glyph d="M201 1550h958q31 0 31 -30v-1489q0 -31 -31 -31h-958q-31 0 -31 31v1489q0 30 31 30zM657 1288q-147 0 -245 -18q-27 -6 -27 -31v-92q0 -20 21 -21h251q66 0 98.5 -5t56.5 -27.5t24 -69.5v-49q0 -49 -17.5 -75t-56.5 -46l-166 -80q-59 -35 -75.5 -61.5t-10.5 -77.5l8 -76 q0 -12 14 -12h117q14 0 15 14l2 27q2 27 16 40t55 34l137 65q82 39 114 89t32 155v76q0 78 -27.5 128t-83 73.5t-112 31.5t-140.5 8zM590 446q-104 0 -105 -98q0 -96 105 -96q102 0 102 96q0 98 -102 98z" glyph-name=".notdef" horiz-adv-x="903"/><glyph glyph-name="glyph1" horiz-adv-x="0"/><glyph glyph-name="glyph2" horiz-adv-x="681"/><glyph glyph-name="space" horiz-adv-x="462" unicode=" "/><glyph d="M199 1550h137q31 0 31 -32v-730q0 -18 -2 -43l-33 -303q-4 -31 -31 -30h-68q-25 0 -30 30l-33 303q-2 25 -2 43v730q0 32 31 32zM270 227q119 0 119 -116q0 -121 -119 -121q-123 0 -123 121q0 116 123 116z" glyph-name="exclam" horiz-adv-x="534" unicode="!"/><glyph d="M145 1550h138q31 0 30 -32v-197q0 -18 -2 -43l-32 -303q-4 -31 -31 -31h-66q-27 0 -30 31l-33 303q0 10 -2 23.5t-2 19.5v197q-1 32 30 32zM543 1550h137q31 0 31 -32v-197q0 -18 -2 -43l-33 -303q-6 -31 -31 -31h-67q-29 0 -31 31l-33 303q-2 25 -2 43v197q0 32 31 32z " glyph-name="quotedbl" horiz-adv-x="827" unicode="&quot;"/><glyph d="M1249 1010h-219v-471h219q31 0 31 -31v-111q0 -31 -31 -30h-219v-336q0 -31 -31 -31h-127q-31 0 -30 31v336h-328v-336q0 -31 -31 -31h-127q-31 0 -30 31v336h-197q-31 0 -31 30v111q0 31 31 31h197v471h-197q-31 0 -31 30v111q0 31 31 31h197v338q0 31 30 30h127 q31 0 31 -30v-338h328v338q0 31 30 30h127q31 0 31 -30v-338h219q31 0 31 -31v-111q0 -30 -31 -30zM842 539v471h-328v-471h328z" glyph-name="numbersign" horiz-adv-x="1380" unicode="#"/><glyph d="M477 938l447 -166q133 -51 184 -129t51 -194v-62q0 -94 -36 -158.5t-104.5 -98.5t-146 -48t-184.5 -19v-153q0 -31 -31 -31h-79q-31 0 -31 31v153q-225 4 -436 27q-16 4 -17 16v127q0 14 19 15h608q115 0 172 32.5t57 112.5v39q0 74 -32.5 119t-122.5 78l-486 178 q-111 39 -151.5 118t-40.5 197v45q0 172 111.5 241t318.5 79v158q0 31 31 30h79q31 0 31 -30v-156q143 -2 377 -27q14 0 14 -14v-129q0 -12 -16 -12h-498q-127 0 -184 -33t-57 -117v-33q0 -70 31.5 -110.5t121.5 -75.5z" glyph-name="dollar" horiz-adv-x="1241" unicode="$"/><glyph d="M436 1559q211 0 289 -88.5t78 -328t-78 -327.5t-289 -88t-288.5 88t-77.5 327.5t77.5 328t288.5 88.5zM1305 1550h90q31 0 12 -30l-780 -1489q-16 -31 -47 -31h-91q-31 0 -14 31l780 1489q19 30 50 30zM436 1395q-102 0 -141 -54.5t-39 -197.5q0 -145 39 -199.5 t141 -54.5q104 0 143 54t39 200q0 143 -39 197.5t-143 54.5zM1464 821q213 0 290 -88t77 -327.5t-77 -327.5t-290 -88q-211 0 -287.5 88t-76.5 327.5t76.5 327.5t287.5 88zM1464 659q-102 0 -141 -54t-39 -199.5t39 -199.5t141 -54q104 0 143.5 54t39.5 199.5t-39.5 199.5 t-143.5 54z" glyph-name="percent" horiz-adv-x="1900" unicode="%"/><glyph d="M643 1561q127 0 240 -19q33 -4 32 -26v-115q0 -23 -30 -23h-240q-178 0 -244.5 -41t-66.5 -182v-33q0 -147 51 -203.5t209 -56.5h598q31 0 31 -31v-79q0 -25 -31 -31l-141 -29v-422q0 -68 24.5 -89t106.5 -21h71q33 0 33 -29v-96q0 -27 -29 -33q-45 -12 -124 -12 q-51 0 -78 2t-68 16.5t-69 42.5q-139 -61 -302 -61q-266 0 -377.5 87t-111.5 331v34q0 272 174 334q-174 55 -174 336v41q0 242 116.5 325t399.5 83zM860 688h-270q-156 0 -205 -55t-51 -201v-22q0 -131 72.5 -184.5t220.5 -53.5q121 0 233 43v473z" glyph-name="ampersand" horiz-adv-x="1343" unicode="&amp;"/><glyph d="M147 1550h138q31 0 30 -32v-197q0 -18 -2 -43l-32 -303q-2 -31 -31 -31h-68q-27 0 -30 31l-33 303q-2 25 -2 43v197q-1 32 30 32z" glyph-name="quotesingle" horiz-adv-x="432" unicode="'"/><glyph d="M473 1671h152q10 0 10 -10v-23q0 -6 -4 -14q-86 -117 -140.5 -196.5t-92.5 -161.5t-56 -128t-28.5 -132t-11.5 -138.5t-1 -179.5t1 -179t11.5 -138t28.5 -132t56 -128t92.5 -162t140.5 -197q4 -8 4 -14v-23q0 -10 -10 -10h-152q-14 0 -27 12q-88 113 -144 192t-95 161 t-58.5 133t-29.5 142t-11.5 149.5t-1.5 193.5q0 193 5.5 277t39 201.5t100 221t195.5 271.5q13 12 27 12z" glyph-name="parenleft" horiz-adv-x="675" unicode="("/><glyph d="M49 1671h152q14 0 26 -12q129 -168 195.5 -271.5t100.5 -221t39 -201.5t5 -277q0 -135 -1 -193.5t-11 -149.5t-29.5 -142t-58.5 -133t-95.5 -161t-144.5 -192q-12 -12 -26 -12h-152q-10 0 -10 10v23q0 6 4 14q86 117 140.5 197t92 162t56 128t29 132t11.5 138t1 179 q0 129 -1 179.5t-10.5 137.5t-28 133t-57 128t-93 161.5t-140.5 196.5q-4 8 -4 14v23q0 10 10 10z" glyph-name="parenright" horiz-adv-x="675" unicode=")"/><glyph d="M395 1591h78q31 0 29 -30l-13 -261l240 93q33 10 39 -19l25 -69q10 -31 -21 -37l-246 -74l164 -199q20 -25 -4 -43l-59 -43q-25 -18 -43 6l-146 213l-149 -213q-18 -25 -43 -6l-56 41q-27 18 -6 43l160 201l-246 72q-31 6 -20 37l22 69q10 31 41 19l236 -91l-10 261 q-3 30 28 30z" glyph-name="asterisk" horiz-adv-x="870" unicode="*"/><glyph d="M500 1106h123q31 0 30 -31v-360h363q31 0 31 -31v-121q0 -31 -31 -31h-363v-360q0 -31 -30 -31h-123q-31 0 -31 31v360h-365q-31 0 -30 31v121q0 31 30 31h365v360q0 31 31 31z" glyph-name="plus" horiz-adv-x="1120" unicode="+"/><glyph d="M182 244h185q20 0 20 -21v-28q0 -10 -10 -27l-281 -469q-12 -18 -28 -10l-48 24q-14 8 -6 29l142 483q6 19 26 19z" glyph-name="comma" horiz-adv-x="495" unicode=","/><glyph d="M166 653h559q31 0 31 -30v-121q0 -31 -31 -31h-559q-33 0 -33 31v121q0 30 33 30z" glyph-name="hyphen" horiz-adv-x="890" unicode="-"/><glyph d="M227 227q121 0 121 -116q0 -121 -121 -121t-121 121q0 116 121 116z" glyph-name="period" horiz-adv-x="454" unicode="."/><glyph d="M813 1620h80q27 0 14 -35l-706 -1620q-16 -35 -47 -35h-84q-33 0 -15 35l711 1620q16 35 47 35z" glyph-name="slash" horiz-adv-x="958" unicode="/"/><glyph d="M684 1561q117 0 202 -15.5t149.5 -54.5t104.5 -96.5t65.5 -149.5t35.5 -203.5t10 -269.5q0 -461 -113.5 -621.5t-453.5 -160.5q-174 0 -281.5 35.5t-172 130t-88 238t-23.5 379t23.5 379.5t88 239.5t172 132.5t281.5 37zM684 1378q-213 0 -284.5 -126t-71.5 -480 q0 -352 71.5 -476t284.5 -124q215 0 286.5 124t71.5 476q0 354 -72.5 480t-285.5 126z" glyph-name="zero" horiz-adv-x="1370" unicode="0"/><glyph d="M600 182h248q33 0 33 -30v-121q0 -31 -33 -31h-717q-33 0 -33 31v121q0 31 31 30h266v1086q0 68 -35.5 90t-142.5 22h-115q-33 -4 -32 29v94q0 25 30 35q63 23 166 23q61 0 105.5 -6.5t104 -27t92 -72.5t32.5 -134v-1139z" glyph-name="one" horiz-adv-x="915" unicode="1"/><glyph d="M569 1561q96 0 166 -6.5t144.5 -28t121 -58t76 -102.5t29.5 -156v-145q0 -125 -35 -207t-147 -139l-469 -256q-84 -45 -116 -90t-32 -119v-72h793q14 0 14 -12v-158q0 -12 -12 -12h-971q-53 0 -53 57v183q0 129 55 209.5t205 162.5l485 269q76 43 76 192v125 q0 109 -86 144.5t-250 35.5h-385q-14 0 -14 15v116q0 16 16 23q252 29 389 29z" glyph-name="two" horiz-adv-x="1224" unicode="2"/><glyph d="M434 1561q379 0 508 -79t129 -329v-41q0 -279 -172 -336q172 -61 172 -334v-34q0 -252 -128 -335t-509 -83q-137 0 -301 16q-31 6 -31 17v131q0 18 31 18h311q260 0 340 49t80 199v10q-2 145 -51 201.5t-211 56.5h-393q-25 0 -25 23v127q0 25 25 24h391q162 0 213 55.5 t51 204.5v27q0 145 -85 187t-351 42h-295q-31 0 -31 19v125q0 18 31 20q154 19 301 19z" glyph-name="three" horiz-adv-x="1198" unicode="3"/><glyph d="M393 1550h146q33 0 22 -37l-274 -940h495v416q0 27 23 37l149 57q37 14 37 -20v-490h260q33 0 33 -28v-123q0 -31 -33 -31h-260v-360q0 -31 -30 -31h-148q-31 0 -31 31v360h-692q-31 0 -31 33v68q0 20 15 69l282 969q8 20 37 20z" glyph-name="four" horiz-adv-x="1329" unicode="4"/><glyph d="M193 1550h901q31 0 30 -30v-121q0 -31 -30 -31h-734l-30 -438q92 8 190 8q371 0 500 -91t131 -362v-47q-2 -268 -133 -358t-506 -90q-205 0 -358 12q-31 2 -31 25v125q0 20 31 20h381q244 0 326.5 56.5t82.5 220.5v18q-4 168 -86 228.5t-323 60.5h-379q-33 0 -33 22v127 l37 615q4 30 33 30z" glyph-name="five" horiz-adv-x="1253" unicode="5"/><glyph d="M575 1550h166q39 0 21 -37l-299 -600q68 23 180 23q279 0 406 -106.5t127 -344.5v-43q0 -242 -128 -347t-413 -105t-415 105.5t-130 348.5v41q0 147 47 252l402 793q11 20 36 20zM635 756q-180 0 -258 -66.5t-78 -222.5v-6q0 -156 78 -222.5t258 -66.5q178 0 255 66.5 t77 220.5v8q0 156 -77 222.5t-255 66.5z" glyph-name="six" horiz-adv-x="1243" unicode="6"/><glyph d="M74 1550h1013q31 0 31 -30v-90q0 -23 -14 -48l-690 -1362q-12 -20 -37 -20h-168q-39 0 -21 37l674 1331h-788q-33 0 -33 29v123q0 30 33 30z" glyph-name="seven" horiz-adv-x="1159" unicode="7"/><glyph d="M635 1561h31q248 0 367.5 -104.5t119.5 -319.5q0 -135 -47 -223.5t-148 -147.5q119 -55 174.5 -138t55.5 -218q0 -213 -130 -316.5t-394 -103.5h-35q-270 0 -397.5 104.5t-127.5 325.5q0 106 62.5 206.5t175.5 168.5q-195 102 -195 335q0 219 119 325t369 106zM664 1378 h-29q-279 0 -279 -227q0 -102 53.5 -158.5t153.5 -95.5l203 -63q178 100 178 294q1 250 -280 250zM768 635l-244 80q-117 -61 -165 -132t-48 -163q0 -248 318 -248h33q317 0 317 234q0 55 -16.5 95t-50 65.5t-64.5 40t-80 28.5z" glyph-name="eight" horiz-adv-x="1296" unicode="8"/><glyph d="M610 1561q283 0 413 -105.5t130 -349.5v-41q0 -150 -47 -252l-401 -793q-12 -20 -37 -20h-166q-39 0 -21 37l299 598q-70 -20 -178 -21q-281 0 -407.5 105.5t-126.5 345.5v43q0 242 128.5 347.5t413.5 105.5zM610.5 1378q-180.5 0 -257.5 -67.5t-77 -220.5v-7 q0 -156 77 -222t257.5 -66t257 66.5t76.5 219.5v6q0 156 -76.5 223.5t-257 67.5z" glyph-name="nine" horiz-adv-x="1243" unicode="9"/><glyph d="M258 1130q119 0 119 -118.5t-119 -118.5q-123 0 -123 118.5t123 118.5zM258 227q119 0 119 -116q0 -121 -119 -121q-123 0 -123 121q0 116 123 116z" glyph-name="colon" horiz-adv-x="509" unicode=":"/><glyph d="M293 1130q121 0 121 -118.5t-121 -118.5q-123 0 -123 118.5t123 118.5zM207 244h184q20 0 21 -21v-28q0 -10 -11 -27l-280 -469q-12 -18 -29 -10l-47 24q-14 8 -6 29l141 483q7 19 27 19z" glyph-name="semicolon" horiz-adv-x="557" unicode=";"/><glyph d="M928 1251h18q12 0 12 -12v-145q0 -23 -24 -35l-641 -293l641 -295q25 -12 24 -35v-143q0 -12 -12 -12h-18q-10 0 -15 2l-821 381q-25 12 -24 34v133q0 23 24 35l821 383q5 2 15 2z" glyph-name="less" horiz-adv-x="1079" unicode="&lt;"/><glyph d="M170 985h999q31 0 31 -31v-120q0 -31 -31 -31h-999q-31 0 -31 31v120q0 31 31 31zM170 494h999q31 0 31 -31v-121q0 -31 -31 -31h-999q-31 0 -31 31v121q0 31 31 31z" glyph-name="equal" horiz-adv-x="1339" unicode="="/><glyph d="M133 1251h21q8 0 14 -2l821 -383q23 -12 23 -35v-133q0 -23 -23 -34l-821 -381q-6 -2 -14 -2h-21q-12 0 -12 12v143q0 23 24 35l641 295l-641 293q-25 12 -24 35v145q0 12 12 12z" glyph-name="greater" horiz-adv-x="1079" unicode=">"/><glyph d="M457 1561q98 0 165.5 -5.5t141.5 -27t118 -59t72.5 -105.5t28.5 -164v-119q0 -162 -48 -239.5t-177 -134.5l-209 -101q-68 -33 -86.5 -54.5t-22.5 -72.5l-4 -51q0 -16 -16 -16h-139q-14 0 -19 16l-8 125q-4 61 14.5 94t89.5 72l299 145q66 33 92.5 78t26.5 141v109 q0 53 -17.5 90t-41 55.5t-72.5 27.5t-84 11t-104 2h-369q-31 0 -31 31v96q0 31 33 35q146 21 367 21zM346 227q121 0 121 -116q0 -121 -121 -121t-121 121q0 116 121 116z" glyph-name="question" horiz-adv-x="1064" unicode="?"/><glyph d="M1100 1548q467 0 700.5 -194.5t233.5 -624.5q0 -342 -152.5 -482.5t-460.5 -140.5l-401 3q-180 2 -256 55t-76 209v24q0 139 76 195.5t229 56.5h277v115q0 82 -51.5 119t-171.5 37h-259q-14 0 -19 5t-5 19v72q0 25 22 26q121 23 244 23q215 0 309.5 -63.5t94.5 -206.5 v-586q115 0 197.5 22.5t152 76.5t105.5 158.5t36 256.5q0 727 -829 727q-451 0 -667 -218t-216 -675q0 -164 28.5 -296t71.5 -221t113 -155.5t134.5 -103.5t152.5 -61.5t151.5 -33t147.5 -14.5q29 0 28 -30v-39q0 -29 -28 -29q-465 0 -687.5 246t-222.5 743q0 510 240 747.5 t758 237.5zM1270 516h-266q-100 0 -126 -24.5t-26 -104.5v-12q0 -80 41 -102.5t139 -22.5h238v266z" glyph-name="at" horiz-adv-x="2142" unicode="@"/><glyph d="M690 1561q158 0 206 -40t91 -200l350 -1288q4 -20 -1 -26.5t-23 -6.5h-160q-12 0 -17.5 6t-9.5 27l-127 452h-616l-129 -452q-4 -20 -9 -26.5t-18 -6.5h-159q-18 0 -23.5 6t-1.5 27l363 1288q45 158 93 199t191 41zM690 1380q-43 0 -56 -17t-32 -91l-168 -606h518 l-159 606q-20 74 -36 91t-67 17z" glyph-name="A" horiz-adv-x="1388" unicode="A"/><glyph d="M725 1561q274 0 404.5 -94.5t130.5 -336.5q0 -303 -181 -346v-6q219 -39 219 -368q0 -244 -123.5 -332t-386.5 -88q-387 0 -589 14q-18 2 -24.5 7t-6.5 24v1481q0 18 6 23t25 7q202 15 526 15zM707 1378h-332v-522h252q109 0 165 3t115.5 16.5t85 40t42 73.5t16.5 121 q0 162 -79 215t-265 53zM797 690h-422v-518h418q162 0 230.5 50t68.5 196q0 162 -72.5 217t-222.5 55z" glyph-name="B" horiz-adv-x="1404" unicode="B"/><glyph d="M739 1561q236 0 381 -21q33 -4 33 -35v-96q0 -31 -31 -31h-383q-260 0 -337.5 -120.5t-77.5 -483.5q0 -360 77.5 -481t337.5 -121h383q31 0 31 -31v-96q0 -31 -33 -37q-131 -18 -381 -18q-193 0 -309.5 35.5t-188 130t-98 239t-26.5 380t26.5 379.5t98 239.5t189.5 131.5 t308 36z" glyph-name="C" horiz-adv-x="1226" unicode="C"/><glyph d="M762 1561q344 0 490.5 -183.5t146.5 -601.5q0 -420 -146.5 -603t-490.5 -183q-360 0 -563 14q-18 2 -24.5 7t-6.5 22v1483q0 18 6 23t25 7q203 15 563 15zM733 1378h-358v-1206h387q233 0 330.5 140.5t97.5 463.5q0 319 -104.5 460.5t-352.5 141.5z" glyph-name="D" horiz-adv-x="1509" unicode="D"/><glyph d="M199 1550h958q31 0 31 -30v-121q0 -31 -31 -31h-782v-526h712q31 0 31 -31v-119q0 -31 -31 -30h-712v-480h782q31 0 31 -30v-121q0 -31 -31 -31h-958q-31 0 -31 31v1489q0 30 31 30z" glyph-name="E" horiz-adv-x="1288" unicode="E"/><glyph d="M199 1550h952q31 0 31 -30v-121q0 -31 -31 -31h-776v-526h704q31 0 31 -31v-119q0 -31 -31 -30h-704v-631q0 -31 -31 -31h-145q-31 0 -31 31v1489q0 30 31 30z" glyph-name="F" horiz-adv-x="1224" unicode="F"/><glyph d="M739 1561q248 0 394 -21q33 -4 32 -35v-96q0 -31 -30 -31h-396q-135 0 -215 -26.5t-126 -102t-60 -183.5t-14 -294q0 -360 77.5 -480t337.5 -120h312v561q0 33 30 33h136q31 0 30 -33v-610q0 -25 -6 -41q-14 -33 -65.5 -53.5t-138.5 -27.5t-144 -9t-154 -2 q-154 0 -257 24.5t-177 75.5t-113.5 145.5t-57 221.5t-17.5 315q0 238 26.5 382t98 239.5t189.5 131.5t308 36z" glyph-name="G" horiz-adv-x="1355" unicode="G"/><glyph d="M1239 1550h145q31 0 31 -32v-1487q0 -31 -31 -31h-145q-31 0 -31 31v665h-833v-665q0 -31 -31 -31h-145q-31 0 -31 31v1487q0 33 31 32h145q31 0 31 -32v-639h833v639q0 32 31 32z" glyph-name="H" horiz-adv-x="1583" unicode="H"/><glyph d="M199 1550h145q31 0 31 -32v-1487q0 -31 -31 -31h-145q-31 0 -31 31v1487q0 32 31 32z" glyph-name="I" horiz-adv-x="542" unicode="I"/><glyph d="M299 1550h688q31 0 31 -30v-748q0 -233 -27.5 -377.5t-102.5 -239t-197 -130t-318 -35.5q-176 0 -307 18q-31 6 -31 37v96q0 31 31 31h307q270 0 355 122t81 478v596h-510q-31 0 -31 31v121q0 30 31 30z" glyph-name="J" horiz-adv-x="1171" unicode="J"/><glyph d="M1020 1550h166q53 0 18 -39l-608 -680l653 -776q16 -18 10 -36.5t-45 -18.5h-159q-33 0 -45 23l-633 761v-753q0 -31 -31 -31h-147q-31 0 -31 31v1489q0 31 31 30h147q31 0 31 -30v-643l600 653q16 20 43 20z" glyph-name="K" horiz-adv-x="1271" unicode="K"/><glyph d="M199 1550h145q31 0 31 -30v-1338h743q31 0 31 -30v-121q0 -31 -31 -31h-919q-31 0 -31 31v1489q0 30 31 30z" glyph-name="L" horiz-adv-x="1179" unicode="L"/><glyph d="M1499 1550h160q27 0 31 -30l133 -1489q4 -31 -31 -31h-147q-27 0 -31 31l-94 1163l-443 -1118q-8 -25 -37 -25h-145q-29 0 -39 25l-442 1118l-95 -1163q-4 -31 -30 -31h-146q-33 0 -30 31l131 1487q4 33 30 32h160q35 0 50.5 -16t33.5 -64l449 -1163l448 1163 q18 47 33.5 63.5t50.5 16.5z" glyph-name="M" horiz-adv-x="1935" unicode="M"/><glyph d="M1235 1550h145q31 0 31 -32v-1487q0 -31 -31 -31h-125q-47 0 -71 37l-809 1218v-1224q0 -31 -31 -31h-145q-31 0 -31 31v1487q0 33 31 32h139q53 -2 72.5 -12t44.5 -47l749 -1129v1156q0 32 31 32z" glyph-name="N" horiz-adv-x="1579" unicode="N"/><glyph d="M741.5 1561q370.5 0 497.5 -164t127 -625q0 -236 -26.5 -379t-99.5 -237.5t-189.5 -130t-309 -35.5t-309.5 35.5t-189.5 130t-99 238t-26.5 378.5q0 461 127 625t497.5 164zM741.5 1378q-135.5 0 -215.5 -26.5t-126 -102t-60 -183.5t-14 -294q0 -360 77.5 -480 t337.5 -120t338 120t78 480q0 186 -14.5 294t-60.5 183.5t-125.5 102t-215 26.5z" glyph-name="O" horiz-adv-x="1482" unicode="O"/><glyph d="M635 1561q184 0 292.5 -18.5t185.5 -74t106.5 -151.5t29.5 -256q0 -109 -12 -185.5t-45 -131t-76 -86t-118.5 -49t-156.5 -23.5t-206 -6h-260v-549q0 -18 -6.5 -24.5t-24.5 -6.5h-145q-18 0 -24.5 6t-6.5 25v1485q0 18 6 23t25 7q203 15 436 15zM616 1378h-241v-622h241 q84 0 131.5 2t99.5 7t78.5 18.5t53.5 34t38 54t17 77.5t6 108q0 207 -81 264t-343 57z" glyph-name="P" horiz-adv-x="1327" unicode="P"/><glyph d="M1364 772q0 -420 -103.5 -588t-394.5 -190l74 -250q8 -33 -31 -33h-137q-35 0 -43 33l-74 248q-317 14 -427.5 180t-110.5 600q0 461 126 625t498 164q154 0 257.5 -25t177 -77t113.5 -148.5t57.5 -223.5t17.5 -315zM741.5 172q108.5 0 179 18.5t118.5 57.5t73 112.5 t35 169t10 242.5q0 150 -10 245t-35 170t-73 113.5t-118.5 58t-179.5 19.5q-260 0 -338.5 -121.5t-78.5 -484.5q0 -147 10 -242.5t34.5 -169t72.5 -112.5t120 -57.5t180.5 -18.5z" glyph-name="Q" horiz-adv-x="1480" unicode="Q"/><glyph d="M635 1561q184 0 292.5 -18.5t185.5 -74t106.5 -151.5t29.5 -256q0 -242 -74.5 -343.5t-261.5 -125.5l347 -551q12 -16 4.5 -28.5t-29.5 -12.5h-131q-33 0 -49.5 10t-32.5 35l-338 535h-309v-549q0 -18 -6.5 -24.5t-24.5 -6.5h-145q-18 0 -24.5 6t-6.5 25v1485q0 18 6 23 t25 7q203 15 436 15zM616 1378h-241v-622h241q84 0 131.5 2t99.5 7t78.5 18.5t53.5 34t38 54t17 77.5t6 108q0 207 -81 264t-343 57z" glyph-name="R" horiz-adv-x="1353" unicode="R"/><glyph d="M649 1561q150 0 398 -31q29 -2 28 -27v-94q0 -31 -26 -31h-461q-268 0 -269 -182v-35q0 -80 32 -126t122 -83l447 -184q133 -55 184 -140t51 -216v-66q0 -90 -29.5 -155.5t-75.5 -104.5t-120 -60.5t-146.5 -28.5t-169.5 -7q-258 0 -499 28q-25 6 -25 33v92q0 29 29 29 h561q137 0 201.5 42t64.5 138v39q0 84 -32.5 134t-122.5 87l-486 197q-111 43 -151.5 130t-40.5 218v49q0 90 28.5 155.5t74.5 103.5t119 59.5t144.5 29t169.5 7.5z" glyph-name="S" horiz-adv-x="1236" unicode="S"/><glyph d="M59 1550h1137q31 0 31 -30v-121q0 -31 -31 -31h-465v-1337q0 -31 -31 -31h-145q-31 0 -31 31v1337h-465q-31 0 -30 31v121q-1 30 30 30z" glyph-name="T" horiz-adv-x="1255" unicode="T"/><glyph d="M1198 1550h145q31 0 31 -30v-748q0 -242 -25.5 -387t-97 -237.5t-185.5 -125t-302 -32.5q-152 0 -251 22.5t-173 71.5t-112 143.5t-55 222.5t-17 322v748q0 31 30 30h146q31 0 30 -30v-748q0 -248 35 -373t119 -176t248 -51q242 0 322.5 120t80.5 480v748q0 30 31 30z " glyph-name="U" horiz-adv-x="1529" unicode="U"/><glyph d="M78 1550h160q16 0 26 -32l340 -1239q20 -74 32.5 -92.5t43.5 -18.5q41 0 55.5 18.5t32.5 92.5l326 1239q8 33 26 32h160q33 0 27 -32l-342 -1289q-31 -117 -54.5 -159.5t-71.5 -61t-159 -18.5q-141 0 -184 39t-86 200l-359 1289q-6 32 27 32z" glyph-name="V" horiz-adv-x="1366" unicode="V"/><glyph d="M1974 1550h162q33 0 27 -32l-279 -1289q-33 -158 -79 -198.5t-187 -40.5q-156 0 -200 39t-83 200l-221 928l-221 -928q-29 -117 -52.5 -159.5t-72.5 -61t-160 -18.5q-141 0 -187 41t-79 198l-276 1289q-6 33 24 32h162q18 0 27 -32l260 -1229q14 -70 29.5 -89.5 t45.5 -19.5q41 0 56.5 18.5t31.5 90.5l293 1165q8 33 37 33h164q27 0 35 -33l293 -1165q18 -72 32.5 -90.5t55.5 -18.5q33 0 47 19.5t29 89.5l260 1229q8 32 26 32z" glyph-name="W" horiz-adv-x="2232" unicode="W"/><glyph d="M1067 1550h158q51 0 22 -45l-467 -698l510 -762q31 -45 -22 -45h-158q-35 0 -55 33l-398 596l-393 -596q-25 -33 -55 -33h-160q-53 0 -22 45l510 762l-469 698q-29 45 22 45h158q35 0 55 -32l354 -535l355 535q20 32 55 32z" glyph-name="X" horiz-adv-x="1316" unicode="X"/><glyph d="M1155 1550h158q47 0 22 -45l-555 -1034v-440q0 -31 -30 -31h-148q-31 0 -31 31v440l-555 1034q-25 45 23 45h160q35 0 55 -32l422 -822l424 822q14 32 55 32z" glyph-name="Y" horiz-adv-x="1351" unicode="Y"/><glyph d="M119 1550h1106q31 0 30 -30v-103q0 -18 -14 -39l-905 -1196h905q33 0 33 -30v-121q0 -31 -33 -31h-1145q-31 0 -30 31l-3 100q0 20 15 39l907 1198h-864q-33 0 -33 29l-2 123q0 30 33 30z" glyph-name="Z" horiz-adv-x="1339" unicode="Z"/><glyph d="M205 1671h510q31 0 30 -31v-104q0 -31 -30 -31h-346v-1638h346q31 0 30 -31v-104q0 -31 -30 -31h-510q-31 0 -31 31v1908q0 31 31 31z" glyph-name="bracketleft" horiz-adv-x="804" unicode="["/><glyph d="M68 1620h79q33 0 46 -35l712 -1620q14 -35 -16 -35h-84q-31 0 -45 35l-709 1620q-12 35 17 35z" glyph-name="backslash" horiz-adv-x="958" unicode="\"/><glyph d="M90 1671h510q31 0 31 -31v-1908q0 -31 -31 -31h-510q-31 0 -31 31v104q0 31 31 31h346v1638h-346q-31 0 -31 31v104q0 31 31 31z" glyph-name="bracketright" horiz-adv-x="804" unicode="]"/><glyph d="M457 1505h118q27 0 37 -22l342 -682q16 -37 -22 -37h-148q-27 0 -34 22l-236 486l-233 -486q-10 -23 -37 -22h-142q-43 0 -22 37l340 682q10 22 37 22z" glyph-name="asciicircum" horiz-adv-x="1032" unicode="^"/><glyph d="M31 -94h1065q31 0 30 -31v-68q0 -31 -30 -30h-1065q-31 0 -31 30v68q0 31 31 31z" glyph-name="underscore" horiz-adv-x="1126" unicode="_"/><glyph d="M266 1554h183q18 0 24 -12l150 -248q10 -16 -7 -28l-41 -27q-14 -12 -28 0l-291 256q-10 10 -10 25v14q0 20 20 20z" glyph-name="grave" horiz-adv-x="872" unicode="`"/><glyph d="M498 1130q240 0 351.5 -76.5t111.5 -244.5v-717q0 -43 -39 -57q-121 -45 -455 -45q-215 0 -305 66.5t-90 262.5q0 176 89 246t273 70l330 2v137q0 96 -61.5 140t-204.5 44h-308q-18 0 -24 6.5t-6 24.5v84q0 16 6 22.5t22 10.5q146 24 310 24zM764 477h-326 q-88 0 -130 -34.5t-42 -118.5q0 -98 52.5 -132t183.5 -34q168 0 262 24v295z" glyph-name="a" horiz-adv-x="1093" unicode="a"/><glyph d="M172 1548h135q31 0 31 -30v-402q111 14 272 14q287 0 377 -113.5t90 -459.5q0 -344 -91 -455.5t-386 -111.5q-207 0 -426 35q-33 4 -33 32v1461q0 30 31 30zM600 958h-262v-780q131 -16 264 -16q182 0 231.5 75.5t49.5 321.5q0 250 -49.5 324.5t-233.5 74.5z" glyph-name="b" horiz-adv-x="1183" unicode="b"/><glyph d="M584 1130q176 0 311 -18q29 -4 29 -35v-88q0 -31 -31 -31h-309q-180 0 -229.5 -75.5t-49.5 -323.5q0 -246 49 -321.5t230 -75.5h309q31 0 31 -31v-88q0 -31 -29 -35q-135 -18 -311 -18q-154 0 -243 23.5t-143.5 91t-71.5 171t-17 283.5t17 283.5t71.5 172t143.5 92 t243 23.5z" glyph-name="c" horiz-adv-x="995" unicode="c"/><glyph d="M879 1548h135q31 0 30 -30v-1461q0 -29 -32 -32q-219 -35 -426 -35q-123 0 -203 16.5t-136.5 51t-85 104t-40.5 161t-12 234.5q0 346 90 459.5t376 113.5q166 0 273 -14v402q0 30 31 30zM848 958h-260q-184 0 -233.5 -74.5t-49.5 -324.5q0 -246 48 -321.5t233 -75.5 q131 0 262 16v780z" glyph-name="d" horiz-adv-x="1185" unicode="d"/><glyph d="M573 1130q274 0 363.5 -107.5t93.5 -432.5v-60q0 -33 -14.5 -45t-59.5 -12h-651q4 -188 56.5 -249.5t216.5 -61.5h335q31 0 31 -31v-90q0 -29 -29 -33q-135 -18 -342 -18q-287 0 -377 111.5t-90 457.5t90 458.5t377 112.5zM573 958q-164 0 -215 -64.5t-55 -260.5h531 q-4 199 -53.5 262t-207.5 63z" glyph-name="e" horiz-adv-x="1114" unicode="e"/><glyph d="M524 1561q88 0 181 -19q27 -6 26 -33v-90q0 -31 -31 -30h-112q-98 0 -135 -19.5t-37 -91.5v-160h262q33 0 27 -33l-17 -98q-6 -27 -33 -26h-239v-930q0 -31 -31 -31h-135q-31 0 -31 31v930h-145q-31 0 -31 30v96q0 31 31 31h145v203q0 66 21.5 113t51.5 70.5t76 36.5 t78.5 16.5t77.5 3.5z" glyph-name="f" horiz-adv-x="733" unicode="f"/><glyph d="M586 1130q258 0 424 -34q33 -4 32 -35v-959q0 -158 -18 -251t-71.5 -156.5t-143.5 -87t-240 -23.5q-160 0 -297 19q-27 2 -26 32v89q0 31 28 30h291q170 0 225.5 49.5t55.5 190.5v12q-100 -16 -271 -16q-289 0 -379 112.5t-90 460.5q0 178 18.5 281.5t74 171t144.5 91 t243 23.5zM846 958h-262q-182 0 -231.5 -74.5t-49.5 -322.5t50 -323.5t235 -75.5q143 0 258 14v782z" glyph-name="g" horiz-adv-x="1181" unicode="g"/><glyph d="M172 1548h135q31 0 31 -30v-398q100 10 260 10q152 0 231.5 -13t141 -63t82 -143.5t20.5 -259.5v-620q0 -31 -31 -31h-135q-31 0 -30 31v604q0 119 -10.5 183.5t-46.5 96t-75.5 39t-126.5 7.5h-280v-930q0 -31 -31 -31h-135q-31 0 -31 31v1487q0 30 31 30z" glyph-name="h" horiz-adv-x="1206" unicode="h"/><glyph d="M239.5 1567q120.5 0 120.5 -119q0 -121 -120.5 -121t-120.5 121q0 119 120.5 119zM172 1120h135q31 0 31 -30v-1059q0 -31 -31 -31h-135q-31 0 -31 31v1059q0 30 31 30z" glyph-name="i" horiz-adv-x="479" unicode="i"/><glyph d="M246 1567q121 0 121 -119q0 -121 -121 -121q-123 0 -123 121q0 119 123 119zM178 1120h135q31 0 31 -30v-1332q0 -47 -14.5 -80.5t-34 -51t-53 -27t-59 -11.5t-64.5 -2q-76 0 -113 8q-29 6 -29 33v103q0 29 33 28h47q61 0 75.5 14.5t14.5 73.5v1244q0 30 31 30z" glyph-name="j" horiz-adv-x="485" unicode="j"/><glyph d="M172 1548h135q31 0 31 -32v-793l336 377q16 20 43 20h170q27 0 31 -11t-13 -28l-362 -401l481 -625q16 -18 10 -36.5t-45 -18.5h-143q-27 0 -45 23l-463 610v-600q0 -33 -31 -33h-135q-31 0 -31 33v1483q0 32 31 32z" glyph-name="k" horiz-adv-x="1034" unicode="k"/><glyph d="M172 1550h135q31 0 31 -30v-1489q0 -31 -31 -31h-135q-31 0 -31 31v1489q0 30 31 30z" glyph-name="l" horiz-adv-x="479" unicode="l"/><glyph d="M1182 1133q96 0 158.5 -5.5t120 -24t89 -49t56 -83.5t34 -129t9.5 -183l-4 -628q0 -31 -31 -31h-131q-31 0 -31 31v604q0 94 -9 153.5t-23.5 95.5t-50.5 52t-69.5 20.5t-101.5 4.5q-137 0 -240 -19q33 -92 33 -291l-4 -620q0 -31 -26 -31h-136q-31 0 -30 31v616 q0 113 -10.5 175.5t-46.5 93t-74.5 36.5t-122.5 6h-205v-927q0 -31 -31 -31h-135q-31 0 -31 31v1034q0 27 31 33q170 33 342 32q207 0 340 -61q180 64 330 64z" glyph-name="m" horiz-adv-x="1779" unicode="m"/><glyph d="M596 1130q152 0 231.5 -13t141 -63t82 -143.5t20.5 -259.5v-620q0 -31 -35 -31h-131q-31 0 -31 31v604q0 94 -9 153.5t-23.5 95.5t-51 51t-70.5 19t-104 4h-280v-927q0 -31 -31 -31h-135q-31 0 -31 31v1034q0 12 4 19.5t9.5 9.5t17.5 4q170 32 426 32z" glyph-name="n" horiz-adv-x="1204" unicode="n"/><glyph d="M583.5 1130q153.5 0 242.5 -23.5t143.5 -92t72 -172t17.5 -283.5t-17.5 -283.5t-73 -171t-143.5 -91t-241.5 -23.5t-242.5 23.5t-143.5 91t-73 171t-18.5 283.5t18.5 283.5t73 172t143.5 92t242.5 23.5zM584 958q-182 0 -231.5 -75.5t-49.5 -323.5q0 -246 49 -321.5 t232 -75.5q180 0 229 75.5t49 321.5q0 248 -49 323.5t-229 75.5z" glyph-name="o" horiz-adv-x="1165" unicode="o"/><glyph d="M596 1130q295 0 387 -112.5t92 -456.5q0 -346 -90 -458.5t-379 -112.5q-164 0 -270 12v-377q0 -31 -31 -31h-135q-31 0 -31 31v1436q0 29 33 35q219 34 424 34zM598 958h-262v-780q131 -16 258 -16q184 0 234.5 74.5t50.5 322.5t-49.5 323.5t-231.5 75.5z" glyph-name="p" horiz-adv-x="1181" unicode="p"/><glyph d="M584 1130q205 0 424 -34q33 -6 32 -35v-1436q0 -31 -30 -31h-136q-31 0 -30 31v375q-88 -10 -271 -10q-287 0 -377 113.5t-90 459.5q0 344 92.5 455.5t385.5 111.5zM844 958h-262q-182 0 -230.5 -74.5t-48.5 -322.5t49 -323.5t234 -75.5q145 0 258 14v782z" glyph-name="q" horiz-adv-x="1179" unicode="q"/><glyph d="M461 1130q166 0 229 -22q31 -10 31 -35v-86q0 -33 -33 -29h-178q-106 0 -142 -22.5t-36 -91.5v-813q0 -31 -31 -31h-133q-31 0 -31 31v860q0 66 23.5 114t55.5 71.5t81 36.5t83 15t81 2z" glyph-name="r" horiz-adv-x="749" unicode="r"/><glyph d="M520 1130q160 0 314 -18q29 -4 28 -33v-88q0 -31 -31 -30h-380q-150 0 -150 -107v-27q0 -96 127 -143l272 -109q127 -49 166 -117.5t39 -170.5v-23q0 -164 -95 -219t-318 -55q-217 0 -375 18q-31 2 -31 31v90q0 31 31 31h379q125 0 170 20.5t45 85.5v25q0 47 -26 77.5 t-93 59.5l-291 111q-197 76 -197 292v43q0 82 33 135.5t95.5 78t128 33.5t159.5 9z" glyph-name="s" horiz-adv-x="989" unicode="s"/><glyph d="M223 1397l135 33q35 10 35 -27v-285h215q33 0 33 -31v-96q0 -31 -33 -30h-215v-689q0 -68 25.5 -89t107.5 -21h99q33 0 32 -29v-98q0 -27 -30 -33q-49 -12 -115 -12q-59 0 -91 2t-82 14t-75.5 34.5t-46 69t-20.5 113.5v738h-115q-31 0 -31 30v96q0 31 31 31h115v246 q-1 27 26 33z" glyph-name="t" horiz-adv-x="700" unicode="t"/><glyph d="M899 1120h135q31 0 31 -30v-1037q0 -12 -4 -18t-9 -8t-18 -4q-172 -33 -426 -33q-152 0 -231.5 13t-141 64.5t-82 144.5t-20.5 259v619q0 31 35 30h131q31 0 31 -30v-605q0 -117 10 -181t46 -96t76 -39t126 -7h280v928q0 30 31 30z" glyph-name="u" horiz-adv-x="1206" unicode="u"/><glyph d="M881 1120h149q18 0 23.5 -6t1.5 -27l-230 -858q-14 -57 -21 -80.5t-19.5 -58.5t-23.5 -45t-28.5 -26.5t-43 -19.5t-57.5 -6t-79 -3q-51 0 -82 2t-57.5 14t-40 23.5t-29.5 45.5t-24.5 62.5t-26.5 91.5l-240 858q-2 20 3 26.5t22 6.5h151q12 0 16.5 -6t10.5 -27l221 -813 q20 -72 32.5 -90t43.5 -18q41 0 55.5 18.5t32.5 89.5l213 813q4 20 9.5 26.5t17.5 6.5z" glyph-name="v" horiz-adv-x="1114" unicode="v"/><glyph d="M1475 1120h147q16 0 21.5 -6t3.5 -27l-181 -866q-33 -152 -73.5 -191.5t-165.5 -39.5q-131 0 -166 35.5t-72 195.5l-133 574l-133 -574q-37 -160 -72 -195.5t-166 -35.5q-123 0 -164.5 40t-74.5 191l-180 866q-2 20 3 26.5t21 6.5h150q16 0 24 -33l168 -841 q12 -51 22.5 -64.5t32.5 -13.5q27 0 35 12.5t21 65.5l198 809q8 33 29 32h172q20 0 29 -32l198 -809q12 -53 20.5 -65.5t35.5 -12.5q23 0 33 13.5t22 64.5l168 841q4 20 9.5 26.5t17.5 6.5z" glyph-name="w" horiz-adv-x="1712" unicode="w"/><glyph d="M827 1120h166q18 0 22.5 -11t-5.5 -26l-353 -489l398 -557q10 -16 5 -26.5t-22 -10.5h-168q-23 0 -30 18l-297 420l-299 -420q-10 -18 -31 -18h-166q-18 0 -23.5 10t5.5 27l397 557l-350 489q-12 14 -8 25.5t22 11.5h168q20 0 33 -18l252 -352l250 352q11 18 34 18z" glyph-name="x" horiz-adv-x="1087" unicode="x"/><glyph d="M901 1120h135q31 0 31 -30v-988q0 -158 -18.5 -251t-71.5 -156.5t-143.5 -87t-239.5 -23.5q-172 0 -309 19q-29 4 -29 32v89q0 31 31 30h303q170 0 225 49.5t55 190.5v12q-100 -16 -270 -16q-287 0 -378 111.5t-91 447.5v541q0 31 31 30h133q31 0 31 -30v-529 q0 -248 50 -323.5t236 -75.5q143 0 258 14v914q0 30 31 30z" glyph-name="y" horiz-adv-x="1208" unicode="y"/><glyph d="M123 1120h809q33 0 33 -30v-50q0 -18 -13 -36l-604 -832h604q33 0 33 -31v-110q0 -31 -33 -31h-856q-33 0 -33 31v57q0 20 15 37l598 823h-553q-33 0 -33 31v111q0 30 33 30z" glyph-name="z" horiz-adv-x="1050" unicode="z"/><glyph d="M483 1690q39 0 97 -9q31 -2 30 -32v-107q0 -31 -30 -31h-80q-57 0 -81 -21.5t-18 -70.5l56 -532q6 -49 -6.5 -71.5t-47.5 -49.5l-135 -74v-8l135 -74q35 -27 47.5 -49t6.5 -72l-56 -532q-6 -49 17.5 -70.5t81.5 -21.5h80q31 0 30 -31v-106q0 -31 -30 -33q-57 -8 -97 -8 q-162 0 -231.5 58t-54.5 196l57 544q2 23 -18 37l-160 96q-16 10 -17 37v66q0 27 17 37l160 96q20 14 18 37l-57 545q-14 137 55 195.5t231 58.5z" glyph-name="braceleft" horiz-adv-x="684" unicode="{"/><glyph d="M205 1645h133q31 0 31 -31v-1761q0 -31 -31 -31h-133q-31 0 -31 31v1761q0 31 31 31z" glyph-name="bar" horiz-adv-x="542" unicode="|"/><glyph d="M201 1690q162 0 231.5 -58.5t54.5 -195.5l-57 -545q-2 -23 19 -37l159 -96q16 -10 17 -37v-66q0 -27 -17 -37l-159 -96q-20 -14 -19 -37l57 -544q14 -137 -55.5 -195.5t-230.5 -58.5q-39 0 -97 8q-31 2 -30 33v106q0 31 30 31h82q55 0 79 21.5t20 70.5l-58 532 q-6 49 6.5 72t47.5 49l135 74v8l-135 74q-35 27 -47.5 49.5t-6.5 71.5l58 532q4 49 -19.5 70.5t-79.5 21.5h-82q-31 0 -30 31v107q0 31 30 32q58 9 97 9z" glyph-name="braceright" horiz-adv-x="684" unicode="}"/><glyph d="M399 899q78 0 160 -47t157 -94t134 -47q115 0 162 98q14 29 39 12l82 -53q18 -12 10 -37q-29 -92 -104.5 -151.5t-182.5 -59.5q-80 0 -161 47t-154.5 94.5t-137.5 47.5q-113 0 -159 -99q-14 -29 -39 -12l-82 53q-18 12 -10 37q29 92 104.5 151.5t181.5 59.5z" glyph-name="asciitilde" horiz-adv-x="1253" unicode="~"/><glyph d="M260 1130q119 0 119 -120q0 -117 -119 -117q-123 0 -123 117q0 120 123 120zM223 733h68q29 0 31 -31l32 -305q2 -23 2 -41v-731q0 -31 -30 -31h-138q-31 0 -30 31v731q0 18 2 41l33 305q5 31 30 31z" glyph-name="exclamdown" horiz-adv-x="514" unicode="¡"/><glyph d="M897 958h-309q-180 0 -229.5 -75.5t-49.5 -323.5q0 -246 49.5 -321.5t229.5 -75.5h309q31 0 31 -31v-88q0 -31 -29 -35q-135 -18 -311 -18h-58l-24 -135q-2 -31 -35 -31h-78q-29 0 -26 31l26 149q-168 31 -224 149.5t-56 405.5q0 336 83 450.5t351 120.5l24 136 q2 31 35 30h78q29 0 27 -30l-25 -138q127 -4 213 -16q29 -4 29 -35v-88q0 -31 -31 -31z" glyph-name="cent" horiz-adv-x="1034" unicode="¢"/><glyph d="M901 1550q94 0 221 -10q31 -6 31 -27v-124q0 -20 -31 -21h-245q-244 0 -326 -56.5t-82 -219.5v-383h506q31 0 31 -31v-96q0 -31 -31 -31h-506v-369h705q31 0 30 -30v-121q0 -31 -30 -31h-1084q-33 0 -27 31l21 121q6 31 35 30h141v369h-110q-31 0 -31 31v96q0 31 31 31 h110v393q0 268 131 358t510 90z" glyph-name="sterling" horiz-adv-x="1273" unicode="£"/><glyph d="M127 1038l53 56q25 20 45 0l103 -101q96 53 233 54q135 0 236 -54l100 101q20 20 45 0l53 -56q23 -18 2 -43l-100 -98q61 -94 61 -231.5t-61 -231.5l100 -98q20 -25 -2 -43l-53 -55q-25 -20 -45 0l-100 100q-100 -53 -236 -53q-137 0 -233 53l-103 -100q-20 -20 -45 0 l-53 55q-23 18 -2 43l100 98q-59 90 -59 231.5t59 231.5l-100 98q-21 25 2 43zM561 881q-96 0 -150.5 -55.5t-54.5 -160t54.5 -159.5t150.5 -55t150.5 55t54.5 159.5t-54.5 160t-150.5 55.5z" glyph-name="currency" horiz-adv-x="1122" unicode="¤"/><glyph d="M1194 1550h160q47 0 22 -45l-512 -895h275q31 0 30 -30v-72q0 -31 -30 -31h-318v-162h318q31 0 30 -30v-72q0 -31 -30 -31h-318v-151q0 -31 -30 -31h-148q-31 0 -31 31v151h-315q-31 0 -31 31v72q0 31 31 30h315v162h-315q-31 0 -31 31v72q0 31 31 30h274l-514 895 q-25 45 23 45h158q37 0 55 -32l424 -762l422 762q18 32 55 32z" glyph-name="yen" horiz-adv-x="1433" unicode="¥"/><glyph d="M203 1645h135q31 0 31 -31v-729q0 -31 -31 -31h-135q-31 0 -31 31v729q0 31 31 31zM203 614h135q31 0 31 -30v-731q0 -31 -31 -31h-135q-31 0 -31 31v731q0 30 31 30z" glyph-name="brokenbar" horiz-adv-x="540" unicode="¦"/><glyph d="M520 1571q80 0 166 -17q29 -6 29 -30v-88q0 -29 -31 -29h-233q-152 0 -152 -111v-159l319 -125q197 -76 197 -291v-578q0 -82 -30.5 -135t-94 -77.5t-127 -33t-157.5 -8.5q-86 0 -166 19q-27 6 -27 31v86q0 29 29 28h235q152 0 152 111v153l-320 125q-197 76 -196 291 v584q0 82 30.5 135t93 77.5t126 33t157.5 8.5zM299 952v-223q0 -100 127 -149l203 -80v223q0 96 -129 149z" glyph-name="section" horiz-adv-x="927" unicode="§"/><glyph d="M373 1513q125 0 125 -120q0 -125 -125 -125q-127 0 -127 125q0 120 127 120zM754 1513q127 0 127 -120q0 -125 -127 -125q-125 0 -125 125q0 120 125 120z" glyph-name="dieresis" horiz-adv-x="1126" unicode="¨"/><glyph d="M884.5 -16q-401.5 0 -590 190.5t-188.5 593.5t188.5 593.5t590 190.5t590 -190.5t188.5 -593.5t-188.5 -593.5t-590 -190.5zM885 100q340 0 500.5 162t160.5 506t-160.5 506t-500.5 162q-342 0 -502 -161t-160 -507q0 -344 161 -506t501 -162zM891 1159q145 0 201 -16 q25 -6 24 -29v-86q0 -14 -14 -14h-211q-98 0 -130 -53.5t-32 -204.5q0 -150 32 -203t130 -53h211q14 0 14 -15v-88q0 -23 -24 -28q-78 -16 -201 -17q-195 0 -262.5 85t-67.5 319q0 236 67.5 319.5t262.5 83.5z" glyph-name="copyright" horiz-adv-x="1769" unicode="©"/><glyph d="M391 1561q156 0 221.5 -51.5t65.5 -159.5v-426q0 -27 -27 -35q-100 -23 -264 -23q-145 0 -206.5 39t-61.5 154v22q0 106 56 151.5t181 45.5h176v49q0 104 -141 105h-203q-12 0 -12 14v84q0 12 14 14q90 17 201 17zM532 1159h-159q-61 0 -84 -18.5t-23 -59.5v-6 q0 -51 24.5 -69.5t94.5 -18.5q96 0 147 10v162zM172 748h455q31 0 30 -31v-60q0 -31 -30 -30h-455q-31 0 -31 30v60q0 31 31 31z" glyph-name="ordfeminine" horiz-adv-x="817" unicode="ª"/><glyph d="M358 954h134q31 0 30 -30v-15q0 -20 -14 -37l-252 -313l252 -311q14 -16 14 -37v-14q0 -31 -30 -31h-134q-23 0 -36 18l-228 297q-14 16 -14 39v78q0 20 14 41l228 297q16 18 36 18zM768 954h133q31 0 31 -30v-15q0 -20 -14 -37l-252 -313l252 -311q14 -16 14 -37v-14 q0 -31 -31 -31h-133q-23 0 -37 18l-227 297q-14 16 -15 39v78q0 20 15 41l227 297q14 18 37 18z" glyph-name="guillemotleft" horiz-adv-x="1044" unicode="«"/><glyph d="M127 950h946q31 0 31 -30v-488q0 -31 -31 -31h-125q-31 0 -30 31v334h-791q-31 0 -31 31v123q0 30 31 30z" glyph-name="logicalnot" horiz-adv-x="1247" unicode="¬"/><glyph d="M884.5 -16q-401.5 0 -590 190.5t-188.5 593.5t188.5 593.5t590 190.5t590 -190.5t188.5 -593.5t-188.5 -593.5t-590 -190.5zM885 100q340 0 500.5 162t160.5 506t-160.5 506t-500.5 162q-342 0 -502 -161t-160 -507q0 -344 161 -506t501 -162zM899 1165q170 0 234.5 -56 t64.5 -208q0 -115 -35 -169t-123 -70l177 -281q6 -6 3 -11t-12 -5h-145q-23 0 -33 18l-172 268h-86v-272q0 -14 -12 -14h-142q-14 0 -14 14v764q0 12 12 12q117 10 283 10zM881 1020h-109v-244h109q86 0 115.5 23.5t29.5 95.5q0 74 -29.5 99.5t-115.5 25.5z" glyph-name="registered" horiz-adv-x="1769" unicode="®"/><glyph d="M276 1446h529q31 0 31 -31v-84q0 -31 -31 -31h-529q-31 0 -30 31v84q-1 31 30 31z" glyph-name="macron" horiz-adv-x="1081" unicode="¯"/><glyph d="M367 1561q272 0 272 -265q0 -262 -272 -262q-274 0 -275 262q1 265 275 265zM367 1434q-139 0 -139.5 -137.5t139.5 -137.5q137 0 137 137.5t-137 137.5z" glyph-name="degree" horiz-adv-x="731" unicode="°"/><glyph d="M555 1305h123q31 0 31 -31v-291h360q31 0 31 -31v-112q0 -31 -31 -31h-360v-291q0 -31 -31 -31h-123q-31 0 -31 31v291h-362q-31 0 -31 31v112q0 31 31 31h362v291q0 31 31 31zM160 367h911q31 0 31 -31v-107q0 -31 -31 -30h-911q-31 0 -31 30v107q0 31 31 31z" glyph-name="plusminus" horiz-adv-x="1230" unicode="±"/><glyph d="M319 1872q143 0 225.5 -42t82.5 -159v-92q0 -68 -19.5 -111t-93.5 -94l-186 -121q-78 -53 -78 -75v-11h385q8 0 8 -8v-123q0 -6 -8 -6h-543q-29 0 -29 31v90q0 61 26 95t99 85l224 156q37 25 48 51.5t11 69.5v20q0 61 -38 84t-130 23h-201q-12 0 -12 14v82q0 18 23 24 q81 17 206 17z" glyph-name="uni00B2" horiz-adv-x="714" unicode="²"/><glyph d="M336 1872q299 0 299 -203v-61q0 -135 -137 -160q137 -23 137 -162v-61q0 -117 -82 -159t-217 -42q-123 0 -238 16q-23 4 -22 27v80q0 12 12 12h219q90 0 131 19.5t41 81.5v24q2 59 -40 80.5t-134 21.5h-164q-12 0 -12 15v94q0 12 12 12h164q90 0 132 21.5t42 81.5v26 q0 59 -41 79t-131 20h-219q-12 0 -12 12v82q0 20 22 24q86 19 238 19z" glyph-name="uni00B3" horiz-adv-x="718" unicode="³"/><glyph d="M424 1554h182q20 0 21 -20v-14q0 -14 -11 -25l-290 -256q-14 -12 -29 0l-41 27q-16 12 -6 28l149 248q7 12 25 12z" glyph-name="acute" horiz-adv-x="872" unicode="´"/><glyph d="M907 1120h135q31 0 31 -30v-1037q0 -12 -4 -18t-9 -8t-18 -4q-172 -33 -426 -33q-199 0 -278 28v-260q0 -31 -31 -30h-135q-31 0 -31 30v1332q0 31 35 30h131q31 0 31 -30v-605q0 -117 10 -181t46 -96t76 -39t126 -7h281v928q-1 30 30 30z" glyph-name="uni00B5" horiz-adv-x="1214" unicode="µ"/><glyph d="M641 1561q193 0 309.5 -36t188 -131.5t97.5 -239.5t26 -380v-774h-179v788q0 309 -64.5 441.5t-240.5 159.5v-781h-133q-328 -6 -448.5 87t-122.5 362v47q2 270 119.5 363.5t447.5 93.5z" glyph-name="paragraph" horiz-adv-x="1423" unicode="¶"/><glyph d="M244 680q119 0 118.5 -119t-118.5 -119q-123 0 -123 119t123 119z" glyph-name="periodcentered" horiz-adv-x="483" unicode="·"/><glyph d="M455 31h61q27 0 35 -27q31 -115 31 -188q0 -88 -45 -122t-144 -34q-84 0 -123 16q-25 8 -24 37v70q0 31 30 31h74q57 0 75.5 10t18.5 53q0 45 -16 119q-10 35 27 35z" glyph-name="cedilla" horiz-adv-x="827" unicode="¸"/><glyph d="M371 1167h131q14 0 14 -14v-111q0 -12 -14 -12h-414q-14 0 -14 14v109q0 14 14 14h133v519q0 59 -69 59h-74q-14 0 -15 12v86q0 16 15 19q68 10 108 10q86 0 135.5 -30t49.5 -118v-557z" glyph-name="uni00B9" horiz-adv-x="557" unicode="¹"/><glyph d="M422 1561q182 0 240.5 -70t58.5 -277q0 -211 -58.5 -279.5t-240.5 -68.5q-180 0 -238.5 70t-58.5 278q0 207 59.5 277t237.5 70zM422 1432q-92 0 -122 -43t-30 -174.5t30 -175.5t122 -44q94 0 122.5 43t28.5 176.5t-28.5 175.5t-122.5 42zM195 748h454q31 0 31 -31v-60 q0 -31 -31 -30h-454q-31 0 -31 30v60q0 31 31 31z" glyph-name="ordmasculine" horiz-adv-x="845" unicode="º"/><glyph d="M143 954h133q23 0 37 -18l228 -297q14 -25 14 -41v-78q0 -16 -14 -39l-228 -297q-14 -18 -37 -18h-133q-31 0 -30 31v14q0 20 14 37l250 311l-250 313q-14 16 -14 37v15q-1 30 30 30zM551 954h133q20 0 37 -18l229 -297q12 -23 13 -41v-78q0 -20 -13 -39l-229 -297 q-16 -18 -37 -18h-133q-31 0 -31 31v14q0 20 15 37l251 311l-251 313q-14 16 -15 37v15q0 30 31 30z" glyph-name="guillemotright" horiz-adv-x="1042" unicode="»"/><glyph d="M1151 1620h63q27 0 15 -35l-707 -1620q-18 -35 -47 -35h-65q-33 0 -15 35l709 1620q16 35 47 35zM537 838v-111q0 -12 -15 -12h-413q-14 0 -15 14v109q0 14 15 14h135v518q0 59 -72 60h-74q-14 0 -14 12v86q0 14 14 18q68 10 109 10q86 0 135 -29.5t49 -117.5v-557h131 q15 0 15 -14zM1571 348h123q14 0 14 -12v-111q0 -12 -14 -12h-123v-199q0 -14 -12 -14h-132q-10 0 -10 14v199h-366q-12 0 -13 12v82q0 14 9 35l139 483q6 10 16 11h129q16 0 8 -15l-135 -473h213v187q0 10 10 14l129 43q14 2 15 -12v-232z" glyph-name="onequarter" horiz-adv-x="1759" unicode="¼"/><glyph d="M1151 1620h63q27 0 15 -35l-707 -1620q-18 -35 -47 -35h-65q-33 0 -15 35l709 1620q16 35 47 35zM524 838v-111q0 -12 -14 -12h-414q-12 0 -12 14v109q0 14 12 14h135v518q0 59 -69 60h-76q-12 0 -12 12v86q0 16 12 18q68 10 109 10q86 0 135 -29.5t49 -117.5v-557h131 q14 0 14 -14zM1262 137h387q8 0 8 -8v-123q0 -6 -8 -6h-543q-29 0 -29 31v90q0 61 25.5 95t99.5 85l223 156q37 25 48.5 51.5t11.5 69.5v20q0 61 -38 84t-130 23h-201q-12 0 -12 14v82q0 18 22 24q82 16 207 17q143 0 225 -42t82 -159v-92q0 -68 -19 -111t-93 -94l-187 -121 q-80 -55 -79 -76v-10z" glyph-name="onehalf" horiz-adv-x="1728" unicode="½"/><glyph d="M1260 1620h63q27 0 14 -35l-704 -1620q-18 -35 -47 -35h-68q-31 0 -14 35l708 1620q17 35 48 35zM352 1556q299 0 299 -202v-62q0 -135 -137 -159q137 -23 137 -162v-62q0 -117 -82 -158.5t-217 -41.5q-125 0 -239 16q-20 2 -21 27v79q0 12 10 13h222q90 0 131 19.5 t41 80.5v25q2 59 -40 80.5t-134 21.5h-164q-14 0 -15 14v95q0 12 15 12h164q90 0 132 21.5t42 80.5v27q0 59 -41 78.5t-131 19.5h-222q-10 0 -10 13v81q0 23 21 25q85 18 239 18zM1296 836h131q14 0 9 -15l-136 -473h211v187q0 10 13 14l129 43q14 2 14 -12v-232h121 q14 0 14 -12v-111q0 -12 -14 -12h-121v-199q0 -14 -12 -14h-131q-12 0 -13 14v199h-366q-10 0 -10 12v82q0 20 8 35l139 483q2 11 14 11z" glyph-name="threequarters" horiz-adv-x="1853" unicode="¾"/><glyph d="M711 1130q121 0 120 -120q0 -117 -120 -117q-123 0 -123 117q0 120 123 120zM635 733h139q18 0 19 -16l10 -125q4 -61 -15.5 -94t-89.5 -72l-301 -145q-66 -33 -91 -77t-25 -143v-75q0 -88 58 -138.5t140 -65.5t205 -15h283q31 0 30 -31v-96q0 -31 -30 -37 q-154 -18 -285 -19q-133 0 -233.5 16.5t-190.5 56.5t-138 121t-48 199v86q0 162 48 240t177 135l209 101q68 31 86 53t22 74l4 51q5 16 17 16z" glyph-name="questiondown" horiz-adv-x="1048" unicode="¿"/><glyph d="M434 1964h180q18 0 25 -12l149 -248q10 -16 -6 -29l-41 -26q-14 -12 -28 0l-289 256q-10 10 -10 24v15q0 20 20 20zM690 1561q158 0 206 -40t91 -200l350 -1288q4 -20 -1 -26.5t-23 -6.5h-160q-12 0 -17.5 6t-9.5 27l-127 452h-616l-129 -452q-4 -20 -9 -26.5t-18 -6.5 h-159q-18 0 -23.5 6t-1.5 27l363 1288q45 158 93 199t191 41zM690 1380q-43 0 -56 -17t-32 -91l-168 -606h518l-159 606q-20 74 -36 91t-67 17z" glyph-name="Agrave" horiz-adv-x="1388" unicode="À"/><glyph d="M791 1964h182q20 0 20 -20v-15q0 -14 -10 -24l-291 -256q-14 -12 -28 0l-41 26q-16 12 -7 29l150 248q7 12 25 12zM690 1561q158 0 206 -40t91 -200l350 -1288q4 -20 -1 -26.5t-23 -6.5h-160q-12 0 -17.5 6t-9.5 27l-127 452h-616l-129 -452q-4 -20 -9 -26.5t-18 -6.5 h-159q-18 0 -23.5 6t-1.5 27l363 1288q45 158 93 199t191 41zM690 1380q-43 0 -56 -17t-32 -91l-168 -606h518l-159 606q-20 74 -36 91t-67 17z" glyph-name="Aacute" horiz-adv-x="1388" unicode="Á"/><glyph d="M647 1964h86q25 0 35 -14l182 -248q12 -14 -8 -29l-35 -24q-14 -12 -30 0l-187 149l-186 -149q-16 -12 -31 0l-35 24q-20 14 -8 29l182 248q10 14 35 14zM690 1561q158 0 206 -40t91 -200l350 -1288q4 -20 -1 -26.5t-23 -6.5h-160q-12 0 -17.5 6t-9.5 27l-127 452h-616 l-129 -452q-4 -20 -9 -26.5t-18 -6.5h-159q-18 0 -23.5 6t-1.5 27l363 1288q45 158 93 199t191 41zM690 1380q-43 0 -56 -17t-32 -91l-168 -606h518l-159 606q-20 74 -36 91t-67 17z" glyph-name="Acircumflex" horiz-adv-x="1388" unicode="Â"/><glyph d="M547 1925q49 0 146.5 -41t129.5 -41q37 0 56.5 14.5t38.5 55.5q14 31 38 22l48 -12q31 -10 22 -47q-37 -117 -76 -157t-116 -40q-49 0 -146.5 41t-130.5 41q-39 0 -57.5 -14t-36.5 -55q-14 -29 -39 -21l-47 12q-31 10 -23 46q37 119 76 157.5t117 38.5zM690 1561 q158 0 206 -40t91 -200l350 -1288q4 -20 -1 -26.5t-23 -6.5h-160q-12 0 -17.5 6t-9.5 27l-127 452h-616l-129 -452q-4 -20 -9 -26.5t-18 -6.5h-159q-18 0 -23.5 6t-1.5 27l363 1288q45 158 93 199t191 41zM690 1380q-43 0 -56 -17t-32 -91l-168 -606h518l-159 606 q-20 74 -36 91t-67 17z" glyph-name="Atilde" horiz-adv-x="1388" unicode="Ã"/><glyph d="M500 1923q125 0 125 -121q0 -125 -125 -125q-127 0 -127 125q0 121 127 121zM883 1923q125 0 125 -121q0 -125 -125 -125q-127 0 -127 125q0 121 127 121zM690 1561q158 0 206 -40t91 -200l350 -1288q4 -20 -1 -26.5t-23 -6.5h-160q-12 0 -17.5 6t-9.5 27l-127 452h-616 l-129 -452q-4 -20 -9 -26.5t-18 -6.5h-159q-18 0 -23.5 6t-1.5 27l363 1288q45 158 93 199t191 41zM690 1380q-43 0 -56 -17t-32 -91l-168 -606h518l-159 606q-20 74 -36 91t-67 17z" glyph-name="Adieresis" horiz-adv-x="1388" unicode="Ä"/><glyph d="M690 2066q217 0 217 -208.5t-217 -208.5t-217 208.5t217 208.5zM690 1985q-127 0 -127 -127t127 -127t127 127t-127 127zM690 1561q158 0 206 -40t91 -200l350 -1288q4 -20 -1 -26.5t-23 -6.5h-160q-12 0 -17.5 6t-9.5 27l-127 452h-616l-129 -452q-4 -20 -9 -26.5 t-18 -6.5h-159q-18 0 -23.5 6t-1.5 27l363 1288q45 158 93 199t191 41zM690 1380q-43 0 -56 -17t-32 -91l-168 -606h518l-159 606q-20 74 -36 91t-67 17z" glyph-name="Aring" horiz-adv-x="1388" unicode="Å"/><glyph d="M690 1561l457 -11h704q31 0 31 -30v-121q0 -31 -31 -31h-671v-526h602q31 0 30 -31v-119q0 -31 -30 -30h-602v-480h671q31 0 31 -30v-121q0 -31 -31 -31h-850q-31 0 -30 31v454h-586l-129 -452q-4 -20 -9 -26.5t-18 -6.5h-159q-18 0 -23.5 6t-3.5 27l365 1288 q45 158 93 199t189 41zM971 1380h-275q-45 0 -60 -18.5t-36 -95.5l-166 -600h537v714z" glyph-name="AE" horiz-adv-x="1982" unicode="Æ"/><glyph d="M1122 1378h-383q-260 0 -337.5 -120.5t-77.5 -483.5q0 -360 77.5 -481t337.5 -121h383q31 0 31 -31v-96q0 -31 -33 -37q-121 -18 -352 -18q27 -106 27 -174q0 -88 -45 -122t-144 -34q-84 0 -123 16q-25 8 -24 37v70q0 31 30 31h74q57 0 75.5 10t18.5 53q0 29 -16 115 q-309 18 -416.5 185t-107.5 597q0 236 26.5 380t98 239.5t189.5 131.5t308 36q236 0 381 -21q33 -4 33 -35v-96q0 -31 -31 -31z" glyph-name="Ccedilla" horiz-adv-x="1226" unicode="Ç"/><glyph d="M446 1964h181q18 0 24 -12l150 -248q10 -16 -6 -29l-39 -26q-14 -12 -29 0l-291 256q-10 10 -10 24v15q0 20 20 20zM199 1550h958q31 0 31 -30v-121q0 -31 -31 -31h-782v-526h712q31 0 31 -31v-119q0 -31 -31 -30h-712v-480h782q31 0 31 -30v-121q0 -31 -31 -31h-958 q-31 0 -31 31v1489q0 30 31 30z" glyph-name="Egrave" horiz-adv-x="1288" unicode="È"/><glyph d="M696 1964h183q20 0 20 -20v-15q0 -14 -10 -24l-291 -256q-14 -12 -29 0l-41 26q-16 12 -6 29l150 248q6 12 24 12zM199 1550h958q31 0 31 -30v-121q0 -31 -31 -31h-782v-526h712q31 0 31 -31v-119q0 -31 -31 -30h-712v-480h782q31 0 31 -30v-121q0 -31 -31 -31h-958 q-31 0 -31 31v1489q0 30 31 30z" glyph-name="Eacute" horiz-adv-x="1288" unicode="É"/><glyph d="M623 1964h88q23 0 32 -14l183 -248q12 -14 -6 -29l-37 -24q-14 -12 -29 0l-188 149l-187 -149q-14 -12 -28 0l-37 24q-18 14 -6 29l180 248q10 14 35 14zM199 1550h958q31 0 31 -30v-121q0 -31 -31 -31h-782v-526h712q31 0 31 -31v-119q0 -31 -31 -30h-712v-480h782 q31 0 31 -30v-121q0 -31 -31 -31h-958q-31 0 -31 31v1489q0 30 31 30z" glyph-name="Ecircumflex" horiz-adv-x="1288" unicode="Ê"/><glyph d="M477 1923q123 0 123 -121q0 -125 -123 -125q-127 0 -127 125q0 121 127 121zM858 1923q125 0 125 -121q0 -125 -125 -125t-125 125q0 121 125 121zM199 1550h958q31 0 31 -30v-121q0 -31 -31 -31h-782v-526h712q31 0 31 -31v-119q0 -31 -31 -30h-712v-480h782 q31 0 31 -30v-121q0 -31 -31 -31h-958q-31 0 -31 31v1489q0 30 31 30z" glyph-name="Edieresis" horiz-adv-x="1288" unicode="Ë"/><glyph d="M-4 1964h182q18 0 25 -12l149 -248q10 -16 -6 -29l-41 -26q-14 -12 -29 0l-290 256q-10 10 -11 24v15q1 20 21 20zM199 1550h147q31 0 31 -32v-1487q0 -31 -31 -31h-147q-31 0 -31 31v1487q0 32 31 32z" glyph-name="Igrave" horiz-adv-x="544" unicode="Ì"/><glyph d="M360 1964h183q20 0 20 -20v-15q0 -14 -10 -24l-291 -256q-14 -12 -29 0l-40 26q-16 12 -7 29l150 248q6 12 24 12zM199 1550h145q31 0 31 -32v-1487q0 -31 -31 -31h-145q-31 0 -31 31v1487q0 32 31 32z" glyph-name="Iacute" horiz-adv-x="542" unicode="Í"/><glyph d="M223 1964h88q25 0 35 -14l180 -248q14 -14 -6 -29l-37 -24q-14 -12 -28 0l-187 149l-186 -149q-16 -10 -31 0l-37 24q-18 14 -6 29l182 248q10 14 33 14zM199 1550h145q31 0 31 -32v-1487q0 -31 -31 -31h-145q-31 0 -31 31v1487q0 32 31 32z" glyph-name="Icircumflex" horiz-adv-x="542" unicode="Î"/><glyph d="M78 1923q123 0 123 -121q0 -125 -123 -125q-127 0 -127 125q0 121 127 121zM459 1923q125 0 125 -121q0 -125 -125 -125t-125 125q0 121 125 121zM199 1550h145q31 0 31 -32v-1487q0 -31 -31 -31h-145q-31 0 -31 31v1487q0 32 31 32z" glyph-name="Idieresis" horiz-adv-x="542" unicode="Ï"/><glyph d="M786 1561q344 0 490.5 -183.5t146.5 -601.5q0 -420 -146.5 -603t-490.5 -183q-362 0 -563 14q-18 2 -24 7t-6 22v667h-150q-31 0 -31 31v84q0 31 31 31h150v670q0 18 6 23t24 7q201 15 563 15zM399 172h387q231 0 329.5 141.5t98.5 462.5q0 319 -104 460.5t-354 141.5 h-357v-532h324q31 0 31 -31v-84q0 -31 -31 -31h-324v-528z" glyph-name="Eth" horiz-adv-x="1533" unicode="Ð"/><glyph d="M645 1925q49 0 147.5 -41t131.5 -41q37 0 56 14.5t38 55.5q12 31 37 22l49 -12q29 -10 20 -47q-35 -117 -73.5 -157t-116.5 -40q-49 0 -146.5 41t-130.5 41q-39 0 -57 -14t-37 -55q-14 -29 -39 -21l-47 12q-31 10 -22 46q37 119 74.5 157.5t115.5 38.5zM1235 1550h145 q31 0 31 -32v-1487q0 -31 -31 -31h-125q-47 0 -71 37l-809 1218v-1224q0 -31 -31 -31h-145q-31 0 -31 31v1487q0 33 31 32h139q53 -2 72.5 -12t44.5 -47l749 -1129v1156q0 32 31 32z" glyph-name="Ntilde" horiz-adv-x="1579" unicode="Ñ"/><glyph d="M430 1964h182q18 0 25 -12l149 -248q10 -16 -6 -29l-41 -26q-14 -12 -28 0l-291 256q-10 10 -10 24v15q0 20 20 20zM741.5 1561q370.5 0 497.5 -164t127 -625q0 -236 -26.5 -379t-99.5 -237.5t-189.5 -130t-309 -35.5t-309.5 35.5t-189.5 130t-99 238t-26.5 378.5 q0 461 127 625t497.5 164zM741.5 1378q-135.5 0 -215.5 -26.5t-126 -102t-60 -183.5t-14 -294q0 -360 77.5 -480t337.5 -120t338 120t78 480q0 186 -14.5 294t-60.5 183.5t-125.5 102t-215 26.5z" glyph-name="Ograve" horiz-adv-x="1482" unicode="Ò"/><glyph d="M817 1964h182q20 0 21 -20v-15q0 -14 -10 -24l-291 -256q-14 -12 -29 0l-41 26q-16 12 -6 29l150 248q6 12 24 12zM741.5 1561q370.5 0 497.5 -164t127 -625q0 -236 -26.5 -379t-99.5 -237.5t-189.5 -130t-309 -35.5t-309.5 35.5t-189.5 130t-99 238t-26.5 378.5 q0 461 127 625t497.5 164zM741.5 1378q-135.5 0 -215.5 -26.5t-126 -102t-60 -183.5t-14 -294q0 -360 77.5 -480t337.5 -120t338 120t78 480q0 186 -14.5 294t-60.5 183.5t-125.5 102t-215 26.5z" glyph-name="Oacute" horiz-adv-x="1482" unicode="Ó"/><glyph d="M698 1964h88q23 0 33 -14l182 -248q12 -14 -6 -29l-37 -24q-16 -12 -30 0l-187 149l-186 -149q-14 -10 -31 0l-35 24q-20 14 -6 29l181 248q9 14 34 14zM741.5 1561q370.5 0 497.5 -164t127 -625q0 -236 -26.5 -379t-99.5 -237.5t-189.5 -130t-309 -35.5t-309.5 35.5 t-189.5 130t-99 238t-26.5 378.5q0 461 127 625t497.5 164zM741.5 1378q-135.5 0 -215.5 -26.5t-126 -102t-60 -183.5t-14 -294q0 -360 77.5 -480t337.5 -120t338 120t78 480q0 186 -14.5 294t-60.5 183.5t-125.5 102t-215 26.5z" glyph-name="Ocircumflex" horiz-adv-x="1482" unicode="Ô"/><glyph d="M598 1925q49 0 146.5 -41t129.5 -41q37 0 56.5 14.5t38.5 55.5q14 31 39 22l47 -12q31 -10 22 -47q-37 -117 -75.5 -157t-114.5 -40q-49 0 -147.5 41t-131.5 41q-39 0 -57.5 -14t-36.5 -55q-14 -29 -39 -21l-47 12q-31 12 -22 46q37 119 75.5 157.5t116.5 38.5z M741.5 1561q370.5 0 497.5 -164t127 -625q0 -236 -26.5 -379t-99.5 -237.5t-189.5 -130t-309 -35.5t-309.5 35.5t-189.5 130t-99 238t-26.5 378.5q0 461 127 625t497.5 164zM741.5 1378q-135.5 0 -215.5 -26.5t-126 -102t-60 -183.5t-14 -294q0 -360 77.5 -480t337.5 -120 t338 120t78 480q0 186 -14.5 294t-60.5 183.5t-125.5 102t-215 26.5z" glyph-name="Otilde" horiz-adv-x="1482" unicode="Õ"/><glyph d="M553 1923q123 0 123 -121q0 -125 -123 -125q-129 0 -129 125q0 121 129 121zM934 1923q125 0 125 -121q0 -125 -125 -125q-127 0 -127 125q0 121 127 121zM741.5 1561q370.5 0 497.5 -164t127 -625q0 -236 -26.5 -379t-99.5 -237.5t-189.5 -130t-309 -35.5t-309.5 35.5 t-189.5 130t-99 238t-26.5 378.5q0 461 127 625t497.5 164zM741.5 1378q-135.5 0 -215.5 -26.5t-126 -102t-60 -183.5t-14 -294q0 -360 77.5 -480t337.5 -120t338 120t78 480q0 186 -14.5 294t-60.5 183.5t-125.5 102t-215 26.5z" glyph-name="Odieresis" horiz-adv-x="1482" unicode="Ö"/><glyph d="M846 1038l88 -84q23 -23 0 -45l-277 -274l277 -275q23 -23 0 -45l-88 -88q-23 -23 -45 0l-275 275l-274 -275q-23 -23 -45 0l-84 84q-23 23 -2 45l276 275l-272 274q-23 23 -2 45l88 86q23 23 45 0l272 -272l275 274q23 23 43 0z" glyph-name="multiply" horiz-adv-x="1056" unicode="×"/><glyph d="M741 1561q276 0 408 -84l53 73q20 29 43 9l70 -48q25 -16 6 -43l-66 -94q111 -164 111 -602q0 -236 -26.5 -379t-99.5 -237.5t-189.5 -130t-309.5 -35.5q-272 0 -401 78l-61 -84q-18 -29 -41 -7l-70 48q-25 14 -8 41l71 100q-115 168 -114 606q0 461 126.5 625t497.5 164 zM741 1378q-135 0 -215 -26.5t-126 -102t-60 -183.5t-14 -294q0 -287 45 -410l661 945q-88 71 -291 71zM1116 1176l-659 -938q88 -66 284 -66q260 0 338 120t78 480q0 291 -41 404z" glyph-name="Oslash" horiz-adv-x="1482" unicode="Ø"/><glyph d="M492 1964h182q18 0 24 -12l150 -248q10 -16 -6 -29l-41 -26q-14 -12 -29 0l-291 256q-10 10 -10 24v15q1 20 21 20zM1198 1550h145q31 0 31 -30v-748q0 -242 -25.5 -387t-97 -237.5t-185.5 -125t-302 -32.5q-152 0 -251 22.5t-173 71.5t-112 143.5t-55 222.5t-17 322v748 q0 31 30 30h146q31 0 30 -30v-748q0 -248 35 -373t119 -176t248 -51q242 0 322.5 120t80.5 480v748q0 30 31 30z" glyph-name="Ugrave" horiz-adv-x="1529" unicode="Ù"/><glyph d="M842 1964h182q20 0 20 -20v-15q0 -14 -10 -24l-291 -256q-14 -12 -28 0l-41 26q-16 12 -6 29l149 248q7 12 25 12zM1198 1550h145q31 0 31 -30v-748q0 -242 -25.5 -387t-97 -237.5t-185.5 -125t-302 -32.5q-152 0 -251 22.5t-173 71.5t-112 143.5t-55 222.5t-17 322v748 q0 31 30 30h146q31 0 30 -30v-748q0 -248 35 -373t119 -176t248 -51q242 0 322.5 120t80.5 480v748q0 30 31 30z" glyph-name="Uacute" horiz-adv-x="1529" unicode="Ú"/><glyph d="M721 1964h88q23 0 33 -14l182 -248q12 -14 -6 -29l-37 -24q-14 -10 -31 0l-186 149l-186 -149q-14 -12 -29 0l-37 24q-18 12 -6 29l180 248q10 14 35 14zM1198 1550h145q31 0 31 -30v-748q0 -242 -25.5 -387t-97 -237.5t-185.5 -125t-302 -32.5q-152 0 -251 22.5 t-173 71.5t-112 143.5t-55 222.5t-17 322v748q0 31 30 30h146q31 0 30 -30v-748q0 -248 35 -373t119 -176t248 -51q242 0 322.5 120t80.5 480v748q0 30 31 30z" glyph-name="Ucircumflex" horiz-adv-x="1529" unicode="Û"/><glyph d="M575 1923q123 0 123 -121q0 -125 -123 -125q-129 0 -129 125q0 121 129 121zM956 1923q125 0 125 -121q0 -125 -125 -125t-125 125q0 121 125 121zM1198 1550h145q31 0 31 -30v-748q0 -242 -25.5 -387t-97 -237.5t-185.5 -125t-302 -32.5q-152 0 -251 22.5t-173 71.5 t-112 143.5t-55 222.5t-17 322v748q0 31 30 30h146q31 0 30 -30v-748q0 -248 35 -373t119 -176t248 -51q242 0 322.5 120t80.5 480v748q0 30 31 30z" glyph-name="Udieresis" horiz-adv-x="1529" unicode="Ü"/><glyph d="M762 1964h182q20 0 21 -20v-15q0 -14 -11 -24l-290 -256q-14 -12 -29 0l-41 26q-16 12 -6 29l149 248q7 12 25 12zM1155 1550h158q47 0 22 -45l-555 -1034v-440q0 -31 -30 -31h-148q-31 0 -31 31v440l-555 1034q-25 45 23 45h160q35 0 55 -32l422 -822l424 822 q14 32 55 32z" glyph-name="Yacute" horiz-adv-x="1351" unicode="Ý"/><glyph d="M199 1550h145q31 0 31 -30v-250q135 6 243 6q182 0 291 -18.5t185.5 -74t106.5 -152.5t30 -257t-30 -256t-106.5 -151.5t-185 -74t-291.5 -18.5q-154 0 -243 5v-248q0 -31 -31 -31h-145q-31 0 -31 31v1489q0 30 31 30zM600 1094h-225v-639h225q260 0 341 57t81 262 t-81 262.5t-341 57.5z" glyph-name="Thorn" horiz-adv-x="1308" unicode="Þ"/><glyph d="M590 1561q262 0 375.5 -93.5t113.5 -337.5q0 -305 -174 -346v-6q215 -37 215 -368q0 -246 -121.5 -333t-384.5 -87q-55 0 -153 8q-35 4 -27 35l33 112q6 27 33 27h123q160 0 229.5 50t69.5 196q0 162 -75 217t-224 55h-140q-31 0 -30 31v104q0 31 32 31h138 q125 0 191.5 50t66.5 204q0 162 -64.5 215t-226.5 53q-141 0 -195.5 -58t-54.5 -237v-1052q0 -31 -31 -31h-137q-31 0 -31 31v1036q0 287 95.5 390.5t353.5 103.5z" glyph-name="germandbls" horiz-adv-x="1218" unicode="ß"/><glyph d="M303 1554h180q18 0 25 -12l149 -248q10 -16 -6 -28l-41 -27q-14 -12 -28 0l-289 256q-10 10 -10 25v14q0 20 20 20zM498 1130q240 0 351.5 -76.5t111.5 -244.5v-717q0 -43 -39 -57q-121 -45 -455 -45q-215 0 -305 66.5t-90 262.5q0 176 89 246t273 70l330 2v137 q0 96 -61.5 140t-204.5 44h-308q-18 0 -24 6.5t-6 24.5v84q0 16 6 22.5t22 10.5q146 24 310 24zM764 477h-326q-88 0 -130 -34.5t-42 -118.5q0 -98 52.5 -132t183.5 -34q168 0 262 24v295z" glyph-name="agrave" horiz-adv-x="1093" unicode="à"/><glyph d="M557 1554h182q20 0 21 -20v-14q0 -14 -10 -25l-291 -256q-14 -12 -29 0l-41 27q-16 12 -6 28l149 248q7 12 25 12zM498 1130q240 0 351.5 -76.5t111.5 -244.5v-717q0 -43 -39 -57q-121 -45 -455 -45q-215 0 -305 66.5t-90 262.5q0 176 89 246t273 70l330 2v137 q0 96 -61.5 140t-204.5 44h-308q-18 0 -24 6.5t-6 24.5v84q0 16 6 22.5t22 10.5q146 24 310 24zM764 477h-326q-88 0 -130 -34.5t-42 -118.5q0 -98 52.5 -132t183.5 -34q168 0 262 24v295z" glyph-name="aacute" horiz-adv-x="1093" unicode="á"/><glyph d="M487 1554h88q25 0 35 -14l181 -248q14 -14 -7 -28l-36 -25q-14 -12 -29 0l-187 150l-186 -150q-16 -10 -31 0l-36 25q-18 14 -7 28l183 248q9 14 32 14zM498 1130q240 0 351.5 -76.5t111.5 -244.5v-717q0 -43 -39 -57q-121 -45 -455 -45q-215 0 -305 66.5t-90 262.5 q0 176 89 246t273 70l330 2v137q0 96 -61.5 140t-204.5 44h-308q-18 0 -24 6.5t-6 24.5v84q0 16 6 22.5t22 10.5q146 24 310 24zM764 477h-326q-88 0 -130 -34.5t-42 -118.5q0 -98 52.5 -132t183.5 -34q168 0 262 24v295z" glyph-name="acircumflex" horiz-adv-x="1093" unicode="â"/><glyph d="M387 1516q49 0 147.5 -41t131.5 -41q37 0 56 14t38 55q12 31 39 23l47 -13q29 -10 22 -47q-37 -117 -75.5 -156.5t-116.5 -39.5q-49 0 -146.5 41t-130.5 41q-39 0 -57 -14.5t-37 -55.5q-14 -29 -39 -20l-47 12q-31 10 -22 45q37 119 74.5 158t115.5 39zM498 1130 q240 0 351.5 -76.5t111.5 -244.5v-717q0 -43 -39 -57q-121 -45 -455 -45q-215 0 -305 66.5t-90 262.5q0 176 89 246t273 70l330 2v137q0 96 -61.5 140t-204.5 44h-308q-18 0 -24 6.5t-6 24.5v84q0 16 6 22.5t22 10.5q146 24 310 24zM764 477h-326q-88 0 -130 -34.5 t-42 -118.5q0 -98 52.5 -132t183.5 -34q168 0 262 24v295z" glyph-name="atilde" horiz-adv-x="1093" unicode="ã"/><glyph d="M342 1513q125 0 125 -120q0 -125 -125 -125q-127 0 -127 125q0 120 127 120zM723 1513q127 0 127 -120q0 -125 -127 -125q-125 0 -125 125q0 120 125 120zM498 1130q240 0 351.5 -76.5t111.5 -244.5v-717q0 -43 -39 -57q-121 -45 -455 -45q-215 0 -305 66.5t-90 262.5 q0 176 89 246t273 70l330 2v137q0 96 -61.5 140t-204.5 44h-308q-18 0 -24 6.5t-6 24.5v84q0 16 6 22.5t22 10.5q146 24 310 24zM764 477h-326q-88 0 -130 -34.5t-42 -118.5q0 -98 52.5 -132t183.5 -34q168 0 262 24v295z" glyph-name="adieresis" horiz-adv-x="1093" unicode="ä"/><glyph d="M532.5 1657q217.5 0 217.5 -209t-217.5 -209t-217.5 209t217.5 209zM532.5 1575q-126.5 0 -126.5 -127t126.5 -127t126.5 127t-126.5 127zM498 1130q240 0 351.5 -76.5t111.5 -244.5v-717q0 -43 -39 -57q-121 -45 -455 -45q-215 0 -305 66.5t-90 262.5q0 176 89 246 t273 70l330 2v137q0 96 -61.5 140t-204.5 44h-308q-18 0 -24 6.5t-6 24.5v84q0 16 6 22.5t22 10.5q146 24 310 24zM764 477h-326q-88 0 -130 -34.5t-42 -118.5q0 -98 52.5 -132t183.5 -34q168 0 262 24v295z" glyph-name="aring" horiz-adv-x="1093" unicode="å"/><glyph d="M1231 1130q274 0 363 -107.5t94 -432.5v-60q0 -33 -13.5 -45t-60.5 -12h-651q6 -188 58 -249.5t216 -61.5h336q31 0 31 -31v-90q0 -29 -29 -33q-135 -18 -344 -18q-96 0 -196.5 23.5t-149.5 60.5q-156 -84 -416 -84q-215 0 -306 66.5t-91 262.5q0 176 89 246t275 70 l330 2v137q0 96 -62.5 140t-205.5 44h-305q-18 0 -24.5 6.5t-6.5 24.5v84q0 16 6 22.5t22 10.5q143 25 308 24q266 0 374 -100q99 100 359 100zM1231 958q-164 0 -214 -63.5t-54 -261.5h528q-2 197 -52 261t-208 64zM766 477h-326q-90 0 -131 -34.5t-41 -118.5 q0 -98 51.5 -132t182.5 -34q197 0 307 51q-43 92 -43 268z" glyph-name="ae" horiz-adv-x="1771" unicode="æ"/><glyph d="M893 958h-309q-180 0 -229.5 -75.5t-49.5 -323.5q0 -246 49 -321.5t230 -75.5h309q31 0 31 -31v-88q0 -31 -29 -35q-94 -14 -254 -18q29 -100 29 -174q0 -88 -45 -122t-144 -34q-84 0 -123 16q-25 8 -24 37v70q0 31 31 31h71q57 0 76.5 10t19.5 53q0 29 -16 115 q-250 8 -328.5 123.5t-78.5 443.5q0 180 17 283.5t71.5 172t143.5 92t243 23.5q176 0 311 -18q29 -4 29 -35v-88q0 -31 -31 -31z" glyph-name="ccedilla" horiz-adv-x="995" unicode="ç"/><glyph d="M305 1554h182q18 0 25 -12l150 -248q10 -16 -7 -28l-41 -27q-14 -12 -28 0l-291 256q-10 10 -10 25v14q0 20 20 20zM573 1130q274 0 363.5 -107.5t93.5 -432.5v-60q0 -33 -14.5 -45t-59.5 -12h-651q4 -188 56.5 -249.5t216.5 -61.5h335q31 0 31 -31v-90q0 -29 -29 -33 q-135 -18 -342 -18q-287 0 -377 111.5t-90 457.5t90 458.5t377 112.5zM573 958q-164 0 -215 -64.5t-55 -260.5h531q-4 199 -53.5 262t-207.5 63z" glyph-name="egrave" horiz-adv-x="1114" unicode="è"/><glyph d="M627 1554h182q20 0 20 -20v-14q0 -14 -10 -25l-291 -256q-14 -12 -28 0l-41 27q-16 12 -6 28l149 248q7 12 25 12zM573 1130q274 0 363.5 -107.5t93.5 -432.5v-60q0 -33 -14.5 -45t-59.5 -12h-651q4 -188 56.5 -249.5t216.5 -61.5h335q31 0 31 -31v-90q0 -29 -29 -33 q-135 -18 -342 -18q-287 0 -377 111.5t-90 457.5t90 458.5t377 112.5zM573 958q-164 0 -215 -64.5t-55 -260.5h531q-4 199 -53.5 262t-207.5 63z" glyph-name="eacute" horiz-adv-x="1114" unicode="é"/><glyph d="M526 1554h88q23 0 33 -14l182 -248q12 -14 -6 -28l-37 -25q-14 -10 -30 0l-187 150l-186 -150q-14 -12 -29 0l-37 25q-20 14 -6 28l181 248q9 14 34 14zM573 1130q274 0 363.5 -107.5t93.5 -432.5v-60q0 -33 -14.5 -45t-59.5 -12h-651q4 -188 56.5 -249.5t216.5 -61.5 h335q31 0 31 -31v-90q0 -29 -29 -33q-135 -18 -342 -18q-287 0 -377 111.5t-90 457.5t90 458.5t377 112.5zM573 958q-164 0 -215 -64.5t-55 -260.5h531q-4 199 -53.5 262t-207.5 63z" glyph-name="ecircumflex" horiz-adv-x="1114" unicode="ê"/><glyph d="M381 1513q123 0 123 -120q0 -125 -123 -125q-129 0 -129 125q0 120 129 120zM762 1513q125 0 125 -120q0 -125 -125 -125q-127 0 -127 125q0 120 127 120zM573 1130q274 0 363.5 -107.5t93.5 -432.5v-60q0 -33 -14.5 -45t-59.5 -12h-651q4 -188 56.5 -249.5t216.5 -61.5 h335q31 0 31 -31v-90q0 -29 -29 -33q-135 -18 -342 -18q-287 0 -377 111.5t-90 457.5t90 458.5t377 112.5zM573 958q-164 0 -215 -64.5t-55 -260.5h531q-4 199 -53.5 262t-207.5 63z" glyph-name="edieresis" horiz-adv-x="1114" unicode="ë"/><glyph d="M-41 1554h180q18 0 25 -12l149 -248q10 -16 -6 -28l-39 -27q-16 -10 -28 0l-291 256q-10 10 -10 25v14q0 20 20 20zM172 1120h133q31 0 31 -30v-1059q0 -31 -31 -31h-133q-31 0 -31 31v1059q0 30 31 30z" glyph-name="igrave" horiz-adv-x="477" unicode="ì"/><glyph d="M336 1554h180q20 0 21 -20v-14q0 -14 -11 -25l-290 -256q-12 -10 -29 0l-39 27q-16 12 -6 28l149 248q7 12 25 12zM172 1120h135q31 0 31 -30v-1059q0 -31 -31 -31h-135q-31 0 -31 31v1059q0 30 31 30z" glyph-name="iacute" horiz-adv-x="479" unicode="í"/><glyph d="M197 1554h86q25 0 34 -14l181 -248q14 -14 -6 -28l-35 -25q-16 -10 -31 0l-186 150l-187 -150q-16 -12 -30 0l-37 25q-18 14 -6 28l182 248q10 14 35 14zM307 0h-135q-31 0 -31 31v1059q0 31 31 30h135q31 0 31 -30v-1059q0 -31 -31 -31z" glyph-name="icircumflex" horiz-adv-x="479" unicode="î"/><glyph d="M49 1513q123 0 123 -120q0 -125 -123 -125q-127 0 -127 125q0 120 127 120zM430 1513q125 0 125 -120q0 -125 -125 -125t-125 125q0 120 125 120zM172 1120h135q31 0 31 -30v-1059q0 -31 -31 -31h-135q-31 0 -31 31v1059q0 30 31 30z" glyph-name="idieresis" horiz-adv-x="479" unicode="ï"/><glyph d="M424 1548h145q25 0 37 -20l60 -103l178 66q31 12 39 -18l20 -54q10 -29 -18 -39l-158 -57l274 -463q55 -88 56 -354q0 -160 -19.5 -254t-74 -155.5t-143.5 -84t-240 -22.5q-150 0 -239 22.5t-143.5 84t-74 155.5t-19.5 254t19.5 253t73 154.5t140.5 84t234 22.5 q72 0 129 -6l-147 246l-178 -64q-31 -12 -39 18l-21 54q-10 29 19 39l158 57l-89 147q-10 16 -3.5 26.5t24.5 10.5zM580 850q-176 0 -226.5 -67.5t-52.5 -276.5q2 -209 52 -276.5t227 -67.5q178 0 228 67.5t52 276.5q-2 211 -52 277.5t-228 66.5z" glyph-name="eth" horiz-adv-x="1159" unicode="ð"/><glyph d="M461 1516q49 0 146.5 -41t129.5 -41q37 0 56.5 14t37.5 55q14 31 39 23l48 -13q31 -10 22 -47q-37 -117 -76 -156.5t-114 -39.5q-49 0 -147.5 41t-131.5 41q-37 0 -56.5 -14.5t-37.5 -55.5q-12 -29 -37 -20l-49 12q-29 12 -21 45q35 119 74 158t117 39zM596 1130 q152 0 231.5 -13t141 -63t82 -143.5t20.5 -259.5v-620q0 -31 -35 -31h-131q-31 0 -31 31v604q0 94 -9 153.5t-23.5 95.5t-51 51t-70.5 19t-104 4h-280v-927q0 -31 -31 -31h-135q-31 0 -31 31v1034q0 12 4 19.5t9.5 9.5t17.5 4q170 32 426 32z" glyph-name="ntilde" horiz-adv-x="1204" unicode="ñ"/><glyph d="M291 1554h180q18 0 25 -12l149 -248q10 -16 -6 -28l-41 -27q-14 -12 -29 0l-288 256q-10 10 -11 25v14q1 20 21 20zM583.5 1130q153.5 0 242.5 -23.5t143.5 -92t72 -172t17.5 -283.5t-17.5 -283.5t-73 -171t-143.5 -91t-241.5 -23.5t-242.5 23.5t-143.5 91t-73 171 t-18.5 283.5t18.5 283.5t73 172t143.5 92t242.5 23.5zM584 958q-182 0 -231.5 -75.5t-49.5 -323.5q0 -246 49 -321.5t232 -75.5q180 0 229 75.5t49 321.5q0 248 -49 323.5t-229 75.5z" glyph-name="ograve" horiz-adv-x="1165" unicode="ò"/><glyph d="M674 1554h182q20 0 21 -20v-14q0 -8 -11 -25l-291 -256q-14 -12 -28 0l-41 27q-16 12 -6 28l149 248q7 12 25 12zM583.5 1130q153.5 0 242.5 -23.5t143.5 -92t72 -172t17.5 -283.5t-17.5 -283.5t-73 -171t-143.5 -91t-241.5 -23.5t-242.5 23.5t-143.5 91t-73 171 t-18.5 283.5t18.5 283.5t73 172t143.5 92t242.5 23.5zM584 958q-182 0 -231.5 -75.5t-49.5 -323.5q0 -246 49 -321.5t232 -75.5q180 0 229 75.5t49 321.5q0 248 -49 323.5t-229 75.5z" glyph-name="oacute" horiz-adv-x="1165" unicode="ó"/><glyph d="M539 1554h88q25 0 35 -14l180 -248q12 -14 -6 -28l-37 -25q-14 -12 -29 0l-186 150l-189 -150q-14 -12 -28 0l-37 25q-18 14 -6 28l182 248q10 14 33 14zM583.5 1130q153.5 0 242.5 -23.5t143.5 -92t72 -172t17.5 -283.5t-17.5 -283.5t-73 -171t-143.5 -91t-241.5 -23.5 t-242.5 23.5t-143.5 91t-73 171t-18.5 283.5t18.5 283.5t73 172t143.5 92t242.5 23.5zM584 958q-182 0 -231.5 -75.5t-49.5 -323.5q0 -246 49 -321.5t232 -75.5q180 0 229 75.5t49 321.5q0 248 -49 323.5t-229 75.5z" glyph-name="ocircumflex" horiz-adv-x="1165" unicode="ô"/><glyph d="M438 1516q49 0 147.5 -41t131.5 -41q37 0 56.5 14t35.5 55q14 31 39 23l47 -13q31 -10 23 -47q-37 -117 -75 -156.5t-116 -39.5q-49 0 -147.5 41t-130.5 41q-37 0 -55.5 -14.5t-37.5 -55.5q-14 -29 -39 -20l-47 12q-31 10 -22 45q37 119 74.5 158t115.5 39zM583.5 1130 q153.5 0 242.5 -23.5t143.5 -92t72 -172t17.5 -283.5t-17.5 -283.5t-73 -171t-143.5 -91t-241.5 -23.5t-242.5 23.5t-143.5 91t-73 171t-18.5 283.5t18.5 283.5t73 172t143.5 92t242.5 23.5zM584 958q-182 0 -231.5 -75.5t-49.5 -323.5q0 -246 49 -321.5t232 -75.5 q180 0 229 75.5t49 321.5q0 248 -49 323.5t-229 75.5z" glyph-name="otilde" horiz-adv-x="1165" unicode="õ"/><glyph d="M393 1513q123 0 123 -120q0 -125 -123 -125q-127 0 -127 125q0 120 127 120zM774 1513q125 0 125 -120q0 -125 -125 -125t-125 125q0 120 125 120zM583.5 1130q153.5 0 242.5 -23.5t143.5 -92t72 -172t17.5 -283.5t-17.5 -283.5t-73 -171t-143.5 -91t-241.5 -23.5 t-242.5 23.5t-143.5 91t-73 171t-18.5 283.5t18.5 283.5t73 172t143.5 92t242.5 23.5zM584 958q-182 0 -231.5 -75.5t-49.5 -323.5q0 -246 49 -321.5t232 -75.5q180 0 229 75.5t49 321.5q0 248 -49 323.5t-229 75.5z" glyph-name="odieresis" horiz-adv-x="1165" unicode="ö"/><glyph d="M586 1077q121 0 121 -116q0 -121 -121 -121q-123 0 -123 121q0 116 123 116zM129 721h909q31 0 31 -31v-123q0 -31 -31 -30h-909q-31 0 -31 30v123q0 31 31 31zM586 416q121 0 121 -117q0 -121 -121 -121q-123 0 -123 121q0 117 123 117z" glyph-name="divide" horiz-adv-x="1167" unicode="÷"/><glyph d="M584 1130q176 0 272 -34l33 45q20 29 43 8l69 -47q25 -16 7 -43l-35 -49q86 -109 86 -451q0 -180 -17.5 -283.5t-73 -171t-143.5 -91t-241 -23.5q-199 0 -295 45l-39 -55q-18 -29 -41 -7l-70 47q-27 16 -8 41l47 68q-72 115 -72 430q0 180 18.5 283.5t73 172t143.5 92 t243 23.5zM584 958q-182 0 -231.5 -75.5t-49.5 -323.5q0 -164 14 -231l428 608q-57 22 -161 22zM840 821l-441 -626q57 -33 185 -33q180 0 229 75.5t49 321.5q1 190 -22 262z" glyph-name="oslash" horiz-adv-x="1165" unicode="ø"/><glyph d="M328 1554h182q18 0 25 -12l149 -248q10 -16 -6 -28l-41 -27q-14 -12 -29 0l-291 256q-10 10 -10 25v14q1 20 21 20zM899 1120h135q31 0 31 -30v-1037q0 -12 -4 -18t-9 -8t-18 -4q-172 -33 -426 -33q-152 0 -231.5 13t-141 64.5t-82 144.5t-20.5 259v619q0 31 35 30h131 q31 0 31 -30v-605q0 -117 10 -181t46 -96t76 -39t126 -7h280v928q0 30 31 30z" glyph-name="ugrave" horiz-adv-x="1206" unicode="ù"/><glyph d="M670 1554h182q20 0 20 -20v-14q0 -14 -10 -25l-291 -256q-14 -12 -28 0l-41 27q-16 12 -6 28l149 248q7 12 25 12zM899 1120h135q31 0 31 -30v-1037q0 -12 -4 -18t-9 -8t-18 -4q-172 -33 -426 -33q-152 0 -231.5 13t-141 64.5t-82 144.5t-20.5 259v619q0 31 35 30h131 q31 0 31 -30v-605q0 -117 10 -181t46 -96t76 -39t126 -7h280v928q0 30 31 30z" glyph-name="uacute" horiz-adv-x="1206" unicode="ú"/><glyph d="M555 1554h88q25 0 35 -14l180 -248q14 -14 -6 -28l-35 -25q-16 -10 -31 0l-186 150l-186 -150q-16 -12 -31 0l-37 25q-18 14 -6 28l182 248q10 14 33 14zM899 1120h135q31 0 31 -30v-1037q0 -12 -4 -18t-9 -8t-18 -4q-172 -33 -426 -33q-152 0 -231.5 13t-141 64.5 t-82 144.5t-20.5 259v619q0 31 35 30h131q31 0 31 -30v-605q0 -117 10 -181t46 -96t76 -39t126 -7h280v928q0 30 31 30z" glyph-name="ucircumflex" horiz-adv-x="1206" unicode="û"/><glyph d="M408 1513q123 0 122 -120q0 -125 -122 -125q-127 0 -127 125q0 120 127 120zM788.5 1513q124.5 0 124.5 -120q0 -125 -124.5 -125t-124.5 125q0 120 124.5 120zM899 1120h135q31 0 31 -30v-1037q0 -12 -4 -18t-9 -8t-18 -4q-172 -33 -426 -33q-152 0 -231.5 13t-141 64.5 t-82 144.5t-20.5 259v619q0 31 35 30h131q31 0 31 -30v-605q0 -117 10 -181t46 -96t76 -39t126 -7h280v928q0 30 31 30z" glyph-name="udieresis" horiz-adv-x="1206" unicode="ü"/><glyph d="M688 1554h182q20 0 21 -20v-14q0 -14 -10 -25l-291 -256q-14 -12 -29 0l-41 27q-16 12 -6 28l150 248q6 12 24 12zM901 1120h135q31 0 31 -30v-988q0 -158 -18.5 -251t-71.5 -156.5t-143.5 -87t-239.5 -23.5q-172 0 -309 19q-29 4 -29 32v89q0 31 31 30h303 q170 0 225 49.5t55 190.5v12q-100 -16 -270 -16q-287 0 -378 111.5t-91 447.5v541q0 31 31 30h133q31 0 31 -30v-529q0 -248 50 -323.5t236 -75.5q143 0 258 14v914q0 30 31 30z" glyph-name="yacute" horiz-adv-x="1208" unicode="ý"/><glyph d="M172 1548h133q31 0 31 -30v-402q111 14 272 14q150 0 238 -24.5t141 -93t71.5 -173t18.5 -282.5q0 -344 -92 -455.5t-387 -111.5q-152 0 -262 12v-377q0 -31 -31 -31h-133q-31 0 -31 31v1893q0 30 31 30zM598 958h-262v-780q131 -16 264 -16q182 0 231.5 75.5t49.5 321.5 q0 250 -49.5 324.5t-233.5 74.5z" glyph-name="thorn" horiz-adv-x="1183" unicode="þ"/><glyph d="M426 1513q125 0 125 -120q0 -125 -125 -125q-127 0 -127 125q0 120 127 120zM809 1513q125 0 125 -120q0 -125 -125 -125q-127 0 -127 125q0 120 127 120zM901 1120h135q31 0 31 -30v-988q0 -158 -18.5 -251t-71.5 -156.5t-143.5 -87t-239.5 -23.5q-172 0 -309 19 q-29 4 -29 32v89q0 31 31 30h303q170 0 225 49.5t55 190.5v12q-100 -16 -270 -16q-287 0 -378 111.5t-91 447.5v541q0 31 31 30h133q31 0 31 -30v-529q0 -248 50 -323.5t236 -75.5q143 0 258 14v914q0 30 31 30z" glyph-name="ydieresis" horiz-adv-x="1208" unicode="ÿ"/><glyph d="M426 1855h526q31 0 31 -30v-84q0 -31 -31 -31h-526q-31 0 -31 31v84q0 30 31 30zM690 1561q158 0 206 -40t91 -200l350 -1288q4 -20 -1 -26.5t-23 -6.5h-160q-12 0 -17.5 6t-9.5 27l-127 452h-616l-129 -452q-4 -20 -9 -26.5t-18 -6.5h-159q-18 0 -23.5 6t-1.5 27 l363 1288q45 158 93 199t191 41zM690 1380q-43 0 -56 -17t-32 -91l-168 -606h518l-159 606q-20 74 -36 91t-67 17z" glyph-name="Amacron" horiz-adv-x="1388" unicode="Ā"/><glyph d="M268 1446h527q31 0 30 -31v-84q0 -31 -30 -31h-527q-31 0 -30 31v84q-1 31 30 31zM498 1130q240 0 351.5 -76.5t111.5 -244.5v-717q0 -43 -39 -57q-121 -45 -455 -45q-215 0 -305 66.5t-90 262.5q0 176 89 246t273 70l330 2v137q0 96 -61.5 140t-204.5 44h-308 q-18 0 -24 6.5t-6 24.5v84q0 16 6 22.5t22 10.5q146 24 310 24zM764 477h-326q-88 0 -130 -34.5t-42 -118.5q0 -98 52.5 -132t183.5 -34q168 0 262 24v295z" glyph-name="amacron" horiz-adv-x="1093" unicode="ā"/><glyph d="M903 1946h68q35 0 28 -33q-23 -141 -88 -193.5t-220.5 -52.5t-221.5 52.5t-88 193.5q-6 33 29 33h67q27 0 35 -25q27 -66 64.5 -90.5t113.5 -24.5t114 24.5t64 90.5q8 25 35 25zM690 1561q158 0 206 -40t91 -200l350 -1288q4 -20 -1 -26.5t-23 -6.5h-160q-12 0 -17.5 6 t-9.5 27l-127 452h-616l-129 -452q-4 -20 -9 -26.5t-18 -6.5h-159q-18 0 -23.5 6t-1.5 27l363 1288q45 158 93 199t191 41zM690 1380q-43 0 -56 -17t-32 -91l-168 -606h518l-159 606q-20 74 -36 91t-67 17z" glyph-name="Abreve" horiz-adv-x="1388" unicode="Ă"/><glyph d="M745 1536h68q35 0 29 -33q-23 -141 -88.5 -193.5t-221 -52.5t-221 52.5t-88.5 193.5q-6 33 29 33h65q27 0 35 -25q29 -66 67 -90t113.5 -24t112.5 24.5t66 89.5q7 25 34 25zM498 1130q240 0 351.5 -76.5t111.5 -244.5v-717q0 -43 -39 -57q-121 -45 -455 -45 q-215 0 -305 66.5t-90 262.5q0 176 89 246t273 70l330 2v137q0 96 -61.5 140t-204.5 44h-308q-18 0 -24 6.5t-6 24.5v84q0 16 6 22.5t22 10.5q146 24 310 24zM764 477h-326q-88 0 -130 -34.5t-42 -118.5q0 -98 52.5 -132t183.5 -34q168 0 262 24v295z" glyph-name="abreve" horiz-adv-x="1093" unicode="ă"/><glyph d="M688 1561q158 0 206 -40t91 -200l350 -1288q4 -20 -1 -26.5t-23 -6.5h-72q-18 -90 -18 -123q0 -41 19.5 -52t76.5 -11h74q31 0 30 -31v-70q0 -29 -24 -37q-39 -16 -123 -16q-98 0 -143.5 34t-45.5 122q0 104 41 207l-129 462h-616l-129 -452q-4 -20 -9 -26.5t-18 -6.5 h-159q-18 0 -23.5 6t-1.5 27l362 1288q45 158 93.5 199t191.5 41zM688 1380q-43 0 -56.5 -17t-31.5 -91l-168 -606h518l-159 606q-20 74 -36 91t-67 17z" glyph-name="Aogonek" horiz-adv-x="1388" unicode="Ą"/><glyph d="M866 -186h74q29 0 29 -31v-70q0 -29 -25 -37q-39 -16 -123 -16q-98 0 -142 34t-44 122q0 66 27 180q-88 -6 -195 -6q-215 0 -305 66.5t-90 262.5q0 176 89 246t273 70l330 2v137q0 96 -61.5 140t-204.5 44h-308q-18 0 -24 6.5t-6 24.5v84q0 16 6 22.5t22 10.5 q145 25 310 24q240 0 351.5 -76.5t111.5 -244.5v-717q0 -43 -39 -57q-49 -18 -134 -27q-18 -86 -18 -131q0 -41 19.5 -52t76.5 -11zM266 324q0 -98 52.5 -132t183.5 -34q168 0 262 24v295h-326q-88 0 -130 -34.5t-42 -118.5z" glyph-name="aogonek" horiz-adv-x="1093" unicode="ą"/><glyph d="M766 1964h182q20 0 21 -20v-15q0 -14 -11 -24l-290 -256q-14 -12 -29 0l-41 26q-16 12 -6 29l149 248q7 12 25 12zM739 1561q236 0 381 -21q33 -4 33 -35v-96q0 -31 -31 -31h-383q-260 0 -337.5 -120.5t-77.5 -483.5q0 -360 77.5 -481t337.5 -121h383q31 0 31 -31v-96 q0 -31 -33 -37q-131 -18 -381 -18q-193 0 -309.5 35.5t-188 130t-98 239t-26.5 380t26.5 379.5t98 239.5t189.5 131.5t308 36z" glyph-name="Cacute" horiz-adv-x="1226" unicode="Ć"/><glyph d="M616 1554h183q20 0 20 -20v-14q0 -14 -10 -25l-291 -256q-14 -12 -29 0l-40 27q-16 12 -7 28l150 248q6 12 24 12zM584 1130q176 0 311 -18q29 -4 29 -35v-88q0 -31 -31 -31h-309q-180 0 -229.5 -75.5t-49.5 -323.5q0 -246 49 -321.5t230 -75.5h309q31 0 31 -31v-88 q0 -31 -29 -35q-135 -18 -311 -18q-154 0 -243 23.5t-143.5 91t-71.5 171t-17 283.5t17 283.5t71.5 172t143.5 92t243 23.5z" glyph-name="cacute" horiz-adv-x="995" unicode="ć"/><glyph d="M670 1964h88q23 0 33 -14l182 -248q12 -14 -6 -29l-37 -24q-14 -12 -29 0l-188 149l-187 -149q-14 -12 -28 0l-37 24q-18 14 -6 29l180 248q15 14 35 14zM739 1561q236 0 381 -21q33 -4 33 -35v-96q0 -31 -31 -31h-383q-260 0 -337.5 -120.5t-77.5 -483.5 q0 -360 77.5 -481t337.5 -121h383q31 0 31 -31v-96q0 -31 -33 -37q-131 -18 -381 -18q-193 0 -309.5 35.5t-188 130t-98 239t-26.5 380t26.5 379.5t98 239.5t189.5 131.5t308 36z" glyph-name="Ccircumflex" horiz-adv-x="1226" unicode="Ĉ"/><glyph d="M506 1554h86q25 0 35 -14l182 -248q12 -14 -8 -28l-35 -25q-16 -12 -31 0l-186 150l-187 -150q-14 -10 -30 0l-35 25q-20 14 -8 28l182 248q10 14 35 14zM584 1130q176 0 311 -18q29 -4 29 -35v-88q0 -31 -31 -31h-309q-180 0 -229.5 -75.5t-49.5 -323.5 q0 -246 49 -321.5t230 -75.5h309q31 0 31 -31v-88q0 -31 -29 -35q-135 -18 -311 -18q-154 0 -243 23.5t-143.5 91t-71.5 171t-17 283.5t17 283.5t71.5 172t143.5 92t243 23.5z" glyph-name="ccircumflex" horiz-adv-x="995" unicode="ĉ"/><glyph d="M709 1925q125 0 125 -123q0 -125 -125 -125q-127 0 -127 125q0 123 127 123zM739 1561q236 0 381 -21q33 -4 33 -35v-96q0 -31 -31 -31h-383q-260 0 -337.5 -120.5t-77.5 -483.5q0 -360 77.5 -481t337.5 -121h383q31 0 31 -31v-96q0 -31 -33 -37q-131 -18 -381 -18 q-193 0 -309.5 35.5t-188 130t-98 239t-26.5 380t26.5 379.5t98 239.5t189.5 131.5t308 36z" glyph-name="Cdotaccent" horiz-adv-x="1226" unicode="Ċ"/><glyph d="M541 1516q125 0 125 -123q0 -125 -125 -125q-127 0 -127 125q0 123 127 123zM584 1130q176 0 311 -18q29 -4 29 -35v-88q0 -31 -31 -31h-309q-180 0 -229.5 -75.5t-49.5 -323.5q0 -246 49 -321.5t230 -75.5h309q31 0 31 -31v-88q0 -31 -29 -35q-135 -18 -311 -18 q-154 0 -243 23.5t-143.5 91t-71.5 171t-17 283.5t17 283.5t71.5 172t143.5 92t243 23.5z" glyph-name="cdotaccent" horiz-adv-x="995" unicode="ċ"/><glyph d="M909 1958l37 -25q18 -14 6 -28l-180 -248q-14 -14 -35 -15h-88q-20 0 -35 15l-180 248q-12 14 6 28l37 25q14 12 29 0l188 -150l187 150q14 12 28 0zM739 1561q236 0 381 -21q33 -4 33 -35v-96q0 -31 -31 -31h-383q-260 0 -337.5 -120.5t-77.5 -483.5q0 -360 77.5 -481 t337.5 -121h383q31 0 31 -31v-96q0 -31 -33 -37q-131 -18 -381 -18q-193 0 -309.5 35.5t-188 130t-98 239t-26.5 380t26.5 379.5t98 239.5t189.5 131.5t308 36z" glyph-name="Ccaron" horiz-adv-x="1226" unicode="Č"/><glyph d="M784 1548l37 -24q20 -14 6 -29l-180 -248q-10 -14 -35 -14h-88q-23 0 -32 14l-183 248q-12 14 6 29l37 24q14 10 31 0l186 -149l187 149q14 12 28 0zM584 1130q176 0 311 -18q29 -4 29 -35v-88q0 -31 -31 -31h-309q-180 0 -229.5 -75.5t-49.5 -323.5q0 -246 49 -321.5 t230 -75.5h309q31 0 31 -31v-88q0 -31 -29 -35q-135 -18 -311 -18q-154 0 -243 23.5t-143.5 91t-71.5 171t-17 283.5t17 283.5t71.5 172t143.5 92t243 23.5z" glyph-name="ccaron" horiz-adv-x="995" unicode="č"/><glyph d="M903 1958l35 -25q20 -14 8 -28l-182 -248q-10 -14 -35 -15h-86q-25 0 -35 15l-182 248q-12 14 6 28l37 25q14 12 31 0l186 -150l186 150q15 10 31 0zM762 1561q344 0 490.5 -183.5t146.5 -601.5q0 -420 -146.5 -603t-490.5 -183q-360 0 -563 14q-18 2 -24.5 7t-6.5 22 v1483q0 18 6 23t25 7q203 15 563 15zM733 1378h-358v-1206h387q233 0 330.5 140.5t97.5 463.5q0 319 -104.5 460.5t-352.5 141.5z" glyph-name="Dcaron" horiz-adv-x="1509" unicode="Ď"/><glyph d="M879 1548h135q31 0 30 -30v-1461q0 -29 -32 -32q-219 -35 -426 -35q-123 0 -203 16.5t-136.5 51t-85 104t-40.5 161t-12 234.5q0 346 90 459.5t376 113.5q166 0 273 -14v402q0 30 31 30zM1255 1548h166q20 0 21 -20v-15q0 -14 -10 -24l-203 -256q-10 -14 -29 0l-37 27 q-12 10 -6 28l74 248q1 12 24 12zM848 958h-260q-184 0 -233.5 -74.5t-49.5 -324.5q0 -246 48 -321.5t233 -75.5q131 0 262 16v780z" glyph-name="dcaron" horiz-adv-x="1245" unicode="ď"/><glyph d="M786 1561q344 0 490.5 -183.5t146.5 -601.5q0 -420 -146.5 -603t-490.5 -183q-362 0 -563 14q-18 2 -24 7t-6 22v667h-150q-31 0 -31 31v84q0 31 31 31h150v670q0 18 6 23t24 7q201 15 563 15zM399 172h387q231 0 329.5 141.5t98.5 462.5q0 319 -104 460.5t-354 141.5 h-357v-532h324q31 0 31 -31v-84q0 -31 -31 -31h-324v-528z" glyph-name="Dcroat" horiz-adv-x="1533" unicode="Đ"/><glyph d="M1044 1395h127q31 0 31 -31v-57q0 -31 -31 -31h-127v-1219q0 -29 -32 -32q-219 -35 -426 -35q-123 0 -203 16.5t-136.5 51t-85 104t-40.5 161t-12 234.5q0 346 90 459.5t376 113.5q166 0 273 -14v160h-295q-31 0 -31 31v57q0 31 31 31h295v123q0 31 31 30h135 q31 0 30 -30v-123zM848 178v780h-260q-184 0 -233.5 -74.5t-49.5 -324.5q0 -246 48 -321.5t233 -75.5q131 0 262 16z" glyph-name="dcroat" horiz-adv-x="1185" unicode="đ"/><glyph d="M401 1855h529q31 0 31 -30v-84q0 -31 -31 -31h-529q-31 0 -30 31v84q-1 30 30 30zM199 1550h958q31 0 31 -30v-121q0 -31 -31 -31h-782v-526h712q31 0 31 -31v-119q0 -31 -31 -30h-712v-480h782q31 0 31 -30v-121q0 -31 -31 -31h-958q-31 0 -31 31v1489q0 30 31 30z" glyph-name="Emacron" horiz-adv-x="1288" unicode="Ē"/><glyph d="M305 1446h529q31 0 30 -31v-84q0 -31 -30 -31h-529q-31 0 -31 31v84q0 31 31 31zM573 1130q274 0 363.5 -107.5t93.5 -432.5v-60q0 -33 -14.5 -45t-59.5 -12h-651q4 -188 56.5 -249.5t216.5 -61.5h335q31 0 31 -31v-90q0 -29 -29 -33q-135 -18 -342 -18 q-287 0 -377 111.5t-90 457.5t90 458.5t377 112.5zM573 958q-164 0 -215 -64.5t-55 -260.5h531q-4 199 -53.5 262t-207.5 63z" glyph-name="emacron" horiz-adv-x="1114" unicode="ē"/><glyph d="M907 1946h66q35 0 28 -33q-23 -141 -87 -193.5t-219.5 -52.5t-221 52.5t-88.5 193.5q-6 33 29 33h65q27 0 35 -25q29 -66 66.5 -90.5t113.5 -24.5t113 24.5t65 90.5q8 25 35 25zM199 1550h958q31 0 31 -30v-121q0 -31 -31 -31h-782v-526h712q31 0 31 -31v-119 q0 -31 -31 -30h-712v-480h782q31 0 31 -30v-121q0 -31 -31 -31h-958q-31 0 -31 31v1489q0 30 31 30z" glyph-name="Ebreve" horiz-adv-x="1288" unicode="Ĕ"/><glyph d="M784 1536h66q35 0 29 -33q-23 -141 -88.5 -193.5t-221 -52.5t-221 52.5t-86.5 193.5q-6 33 29 33h65q27 0 35 -25q29 -66 66 -90t112.5 -24t113.5 24.5t67 89.5q7 25 34 25zM573 1130q274 0 363.5 -107.5t93.5 -432.5v-60q0 -33 -14.5 -45t-59.5 -12h-651 q4 -188 56.5 -249.5t216.5 -61.5h335q31 0 31 -31v-90q0 -29 -29 -33q-135 -18 -342 -18q-287 0 -377 111.5t-90 457.5t90 458.5t377 112.5zM573 958q-164 0 -215 -64.5t-55 -260.5h531q-4 199 -53.5 262t-207.5 63z" glyph-name="ebreve" horiz-adv-x="1114" unicode="ĕ"/><glyph d="M666 1925q127 0 127 -123q0 -125 -127 -125t-127 125q0 123 127 123zM199 1550h958q31 0 31 -30v-121q0 -31 -31 -31h-782v-526h712q31 0 31 -31v-119q0 -31 -31 -30h-712v-480h782q31 0 31 -30v-121q0 -31 -31 -31h-958q-31 0 -31 31v1489q0 30 31 30z" glyph-name="Edotaccent" horiz-adv-x="1288" unicode="Ė"/><glyph d="M569 1516q127 0 127 -123q0 -125 -127 -125t-127 125q0 123 127 123zM573 1130q274 0 363.5 -107.5t93.5 -432.5v-60q0 -33 -14.5 -45t-59.5 -12h-651q4 -188 56.5 -249.5t216.5 -61.5h335q31 0 31 -31v-90q0 -29 -29 -33q-135 -18 -342 -18q-287 0 -377 111.5t-90 457.5 t90 458.5t377 112.5zM573 958q-164 0 -215 -64.5t-55 -260.5h531q-4 199 -53.5 262t-207.5 63z" glyph-name="edotaccent" horiz-adv-x="1114" unicode="ė"/><glyph d="M199 1550h958q31 0 31 -30v-121q0 -31 -31 -31h-782v-526h712q31 0 31 -31v-119q0 -31 -31 -30h-712v-480h782q31 0 31 -30v-121q0 -31 -31 -31h-174q-18 -90 -18 -123q0 -43 18 -53t76 -10h74q31 0 30 -31v-70q0 -29 -24 -37q-39 -16 -123 -16q-98 0 -143.5 34 t-45.5 122q0 70 31 184h-659q-31 0 -31 31v1489q0 30 31 30z" glyph-name="Eogonek" horiz-adv-x="1288" unicode="Ę"/><glyph d="M573 1130q274 0 363.5 -107.5t93.5 -432.5v-60q0 -33 -14.5 -45t-59.5 -12h-651q4 -188 56.5 -249.5t216.5 -61.5h335q31 0 31 -31v-90q0 -29 -29 -33q-106 -12 -114 -12q-16 -88 -17 -119q0 -41 19.5 -52t77.5 -11h73q29 0 29 -31v-70q0 -29 -25 -37q-39 -16 -122 -16 q-98 0 -142.5 34t-44.5 122q0 76 27 176l-103 -2q-287 0 -377 111.5t-90 457.5t90 458.5t377 112.5zM573 958q-164 0 -215 -64.5t-55 -260.5h531q-4 199 -53.5 262t-207.5 63z" glyph-name="eogonek" horiz-adv-x="1114" unicode="ę"/><glyph d="M883 1958l37 -25q18 -14 6 -28l-183 -248q-10 -14 -32 -15h-88q-25 0 -35 15l-180 248q-12 14 6 28l37 25q14 12 28 0l187 -150l188 150q15 12 29 0zM199 1550h958q31 0 31 -30v-121q0 -31 -31 -31h-782v-526h712q31 0 31 -31v-119q0 -31 -31 -30h-712v-480h782 q31 0 31 -30v-121q0 -31 -31 -31h-958q-31 0 -31 31v1489q0 30 31 30z" glyph-name="Ecaron" horiz-adv-x="1288" unicode="Ě"/><glyph d="M786 1548l37 -24q18 -14 6 -29l-182 -248q-10 -14 -33 -14h-88q-25 0 -34 14l-181 248q-14 14 6 29l37 24q14 12 29 0l186 -149l187 149q16 10 30 0zM573 1130q274 0 363.5 -107.5t93.5 -432.5v-60q0 -33 -14.5 -45t-59.5 -12h-651q4 -188 56.5 -249.5t216.5 -61.5h335 q31 0 31 -31v-90q0 -29 -29 -33q-135 -18 -342 -18q-287 0 -377 111.5t-90 457.5t90 458.5t377 112.5zM573 958q-164 0 -215 -64.5t-55 -260.5h531q-4 199 -53.5 262t-207.5 63z" glyph-name="ecaron" horiz-adv-x="1114" unicode="ě"/><glyph d="M653 1964h88q25 0 35 -14l180 -248q12 -16 -6 -29l-37 -24q-14 -12 -28 0l-187 149l-186 -149q-16 -10 -31 0l-37 24q-18 14 -6 29l183 248q9 14 32 14zM739 1561q248 0 394 -21q33 -4 32 -35v-96q0 -31 -30 -31h-396q-135 0 -215 -26.5t-126 -102t-60 -183.5t-14 -294 q0 -360 77.5 -480t337.5 -120h312v561q0 33 30 33h136q31 0 30 -33v-610q0 -25 -6 -41q-14 -33 -65.5 -53.5t-138.5 -27.5t-144 -9t-154 -2q-154 0 -257 24.5t-177 75.5t-113.5 145.5t-57 221.5t-17.5 315q0 238 26.5 382t98 239.5t189.5 131.5t308 36z" glyph-name="Gcircumflex" horiz-adv-x="1355" unicode="Ĝ"/><glyph d="M551 1554h88q25 0 35 -14l180 -248q12 -16 -6 -28l-37 -25q-14 -12 -29 0l-186 150l-186 -150q-16 -10 -31 0l-37 25q-18 14 -6 28l182 248q10 14 33 14zM586 1130q258 0 424 -34q33 -4 32 -35v-959q0 -158 -18 -251t-71.5 -156.5t-143.5 -87t-240 -23.5q-160 0 -297 19 q-27 2 -26 32v89q0 31 28 30h291q170 0 225.5 49.5t55.5 190.5v12q-100 -16 -271 -16q-289 0 -379 112.5t-90 460.5q0 178 18.5 281.5t74 171t144.5 91t243 23.5zM846 958h-262q-182 0 -231.5 -74.5t-49.5 -322.5t50 -323.5t235 -75.5q143 0 258 14v782z" glyph-name="gcircumflex" horiz-adv-x="1181" unicode="ĝ"/><glyph d="M924 1946h67q35 0 29 -33q-23 -141 -88.5 -193.5t-221 -52.5t-221 52.5t-88.5 193.5q-6 33 29 33h66q27 0 34 -25q29 -66 67 -90.5t113.5 -24.5t112.5 24.5t66 90.5q8 25 35 25zM739 1561q248 0 394 -21q33 -4 32 -35v-96q0 -31 -30 -31h-396q-135 0 -215 -26.5 t-126 -102t-60 -183.5t-14 -294q0 -360 77.5 -480t337.5 -120h312v561q0 33 30 33h136q31 0 30 -33v-610q0 -25 -6 -41q-14 -33 -65.5 -53.5t-138.5 -27.5t-144 -9t-154 -2q-154 0 -257 24.5t-177 75.5t-113.5 145.5t-57 221.5t-17.5 315q0 238 26.5 382t98 239.5 t189.5 131.5t308 36z" glyph-name="Gbreve" horiz-adv-x="1355" unicode="Ğ"/><glyph d="M809 1536h65q35 0 29 -33q-20 -141 -85.5 -193.5t-221.5 -52.5t-221.5 52.5t-87.5 193.5q-6 33 28 33h66q27 0 35 -25q29 -66 66.5 -90t113.5 -24t112.5 24.5t65.5 89.5q8 25 35 25zM586 1130q258 0 424 -34q33 -4 32 -35v-959q0 -158 -18 -251t-71.5 -156.5t-143.5 -87 t-240 -23.5q-160 0 -297 19q-27 2 -26 32v89q0 31 28 30h291q170 0 225.5 49.5t55.5 190.5v12q-100 -16 -271 -16q-289 0 -379 112.5t-90 460.5q0 178 18.5 281.5t74 171t144.5 91t243 23.5zM846 958h-262q-182 0 -231.5 -74.5t-49.5 -322.5t50 -323.5t235 -75.5 q143 0 258 14v782z" glyph-name="gbreve" horiz-adv-x="1181" unicode="ğ"/><glyph d="M713 1925q125 0 125 -123q0 -125 -125 -125q-129 0 -129 125q0 123 129 123zM739 1561q248 0 394 -21q33 -4 32 -35v-96q0 -31 -30 -31h-396q-135 0 -215 -26.5t-126 -102t-60 -183.5t-14 -294q0 -360 77.5 -480t337.5 -120h312v561q0 33 30 33h136q31 0 30 -33v-610 q0 -25 -6 -41q-14 -33 -65.5 -53.5t-138.5 -27.5t-144 -9t-154 -2q-154 0 -257 24.5t-177 75.5t-113.5 145.5t-57 221.5t-17.5 315q0 238 26.5 382t98 239.5t189.5 131.5t308 36z" glyph-name="Gdotaccent" horiz-adv-x="1355" unicode="Ġ"/><glyph d="M596 1516q125 0 125 -123q0 -125 -125 -125q-129 0 -129 125q0 123 129 123zM586 1130q258 0 424 -34q33 -4 32 -35v-959q0 -158 -18 -251t-71.5 -156.5t-143.5 -87t-240 -23.5q-160 0 -297 19q-27 2 -26 32v89q0 31 28 30h291q170 0 225.5 49.5t55.5 190.5v12 q-100 -16 -271 -16q-289 0 -379 112.5t-90 460.5q0 178 18.5 281.5t74 171t144.5 91t243 23.5zM846 958h-262q-182 0 -231.5 -74.5t-49.5 -322.5t50 -323.5t235 -75.5q143 0 258 14v782z" glyph-name="gdotaccent" horiz-adv-x="1181" unicode="ġ"/><glyph d="M739 1561q248 0 394 -21q33 -4 32 -35v-96q0 -31 -30 -31h-396q-135 0 -215 -26.5t-126 -102t-60 -183.5t-14 -294q0 -360 77.5 -480t337.5 -120h312v561q0 33 30 33h136q31 0 30 -33v-610q0 -25 -6 -41q-14 -33 -65.5 -53.5t-138.5 -27.5t-144 -9t-154 -2 q-154 0 -257 24.5t-177 75.5t-113.5 145.5t-57 221.5t-17.5 315q0 238 26.5 382t98 239.5t189.5 131.5t308 36zM668 -80h155q20 0 21 -20v-15q0 -14 -10 -24l-267 -252q-12 -10 -28 0l-37 26q-16 12 -6 29l147 244q7 12 25 12z" glyph-name="Gcommaaccent" horiz-adv-x="1355" unicode="Ģ"/><glyph d="M799 1550l37 -26q16 -12 6 -29l-148 -244q-6 -12 -24 -12h-156q-20 0 -20 21v14q0 14 10 24l266 252q15 12 29 0zM586 1130q258 0 424 -34q33 -4 32 -35v-959q0 -158 -18 -251t-71.5 -156.5t-143.5 -87t-240 -23.5q-160 0 -297 19q-27 2 -26 32v89q0 31 28 30h291 q170 0 225.5 49.5t55.5 190.5v12q-100 -16 -271 -16q-289 0 -379 112.5t-90 460.5q0 178 18.5 281.5t74 171t144.5 91t243 23.5zM846 958h-262q-182 0 -231.5 -74.5t-49.5 -322.5t50 -323.5t235 -75.5q143 0 258 14v782z" glyph-name="gcommaaccent" horiz-adv-x="1181" unicode="ģ"/><glyph d="M768 1964h88q25 0 35 -14l180 -248q12 -14 -6 -29l-37 -24q-14 -12 -29 0l-186 149l-188 -149q-14 -12 -29 0l-37 24q-18 14 -6 29l182 248q10 14 33 14zM1239 1550h145q31 0 31 -32v-1487q0 -31 -31 -31h-145q-31 0 -31 31v665h-833v-665q0 -31 -31 -31h-145 q-31 0 -31 31v1487q0 33 31 32h145q31 0 31 -32v-639h833v639q0 32 31 32z" glyph-name="Hcircumflex" horiz-adv-x="1583" unicode="Ĥ"/><glyph d="M186 1929h88q23 0 35 -16l180 -246q12 -16 -6 -31l-37 -22q-16 -12 -28 0l-187 149l-188 -149q-12 -12 -29 0l-37 22q-18 14 -6 31l181 246q11 16 34 16zM172 1548h135q31 0 31 -30v-398q100 10 260 10q152 0 231.5 -13t141 -63t82 -143.5t20.5 -259.5v-620 q0 -31 -31 -31h-135q-31 0 -30 31v604q0 119 -10.5 183.5t-46.5 96t-75.5 39t-126.5 7.5h-280v-930q0 -31 -31 -31h-135q-31 0 -31 31v1487q0 30 31 30z" glyph-name="hcircumflex" horiz-adv-x="1206" unicode="ĥ"/><glyph d="M1423 1350h84q31 0 31 -31v-76q0 -31 -31 -31h-84v-1181q0 -31 -30 -31h-148q-31 0 -31 31v665h-831v-665q0 -31 -31 -31h-147q-31 0 -31 31v1181h-86q-31 0 -31 31v76q0 31 31 31h86v168q0 33 31 32h147q31 0 31 -32v-168h831v168q0 33 31 32h148q31 0 30 -32v-168z M1214 879v333h-831v-333h831z" glyph-name="Hbar" horiz-adv-x="1597" unicode="Ħ"/><glyph d="M598 1130q152 0 231.5 -13t141 -63t82 -143.5t20.5 -259.5v-620q0 -31 -31 -31h-135q-31 0 -30 31v604q0 119 -10.5 183.5t-46.5 96t-75.5 39t-126.5 7.5h-280v-930q0 -31 -31 -31h-135q-31 0 -31 31v1245h-127q-31 0 -30 31v57q0 31 30 31h127v123q0 31 31 30h135 q31 0 31 -30v-123h295q31 0 31 -31v-57q0 -31 -31 -31h-295v-156q100 10 260 10z" glyph-name="hbar" horiz-adv-x="1206" unicode="ħ"/><glyph d="M125 1925q49 0 147.5 -41t130.5 -41q37 0 55.5 14.5t37.5 55.5q14 31 39 22l47 -12q31 -10 22 -47q-37 -117 -76 -157t-114 -40q-49 0 -147.5 41t-131.5 41q-37 0 -55.5 -14t-36.5 -55q-14 -29 -39 -21l-47 12q-31 10 -23 46q37 119 75 157.5t116 38.5zM201 1550h145 q31 0 31 -32v-1487q0 -31 -31 -31h-145q-31 0 -31 31v1487q0 32 31 32z" glyph-name="Itilde" horiz-adv-x="542" unicode="Ĩ"/><glyph d="M96 1516q49 0 147.5 -41t131.5 -41q37 0 56.5 14t35.5 55q14 31 39 23l47 -13q31 -10 22 -47q-37 -117 -74.5 -156.5t-115.5 -39.5q-49 0 -147.5 41t-131.5 41q-37 0 -55 -14.5t-37 -55.5q-14 -29 -39 -20l-47 12q-31 10 -22 45q37 119 74.5 158t115.5 39zM174 1120h135 q31 0 31 -30v-1059q0 -31 -31 -31h-135q-31 0 -31 31v1059q0 30 31 30z" glyph-name="itilde" horiz-adv-x="479" unicode="ĩ"/><glyph d="M2 1855h528q31 0 31 -30v-84q0 -31 -31 -31h-528q-31 0 -31 31v84q0 30 31 30zM199 1550h145q31 0 31 -32v-1487q0 -31 -31 -31h-145q-31 0 -31 31v1487q0 32 31 32z" glyph-name="Imacron" horiz-adv-x="542" unicode="Ī"/><glyph d="M-25 1446h529q31 0 31 -31v-84q0 -31 -31 -31h-529q-31 0 -30 31v84q-1 31 30 31zM172 1120h135q31 0 31 -30v-1059q0 -31 -31 -31h-135q-31 0 -31 31v1059q0 30 31 30z" glyph-name="imacron" horiz-adv-x="479" unicode="ī"/><glyph d="M199 1550h145q31 0 31 -32v-1487q0 -31 -31 -31h-55q-18 -90 -19 -123q0 -41 19.5 -52t77.5 -11h73q31 0 31 -31v-70q0 -29 -25 -37q-39 -16 -122 -16q-100 0 -144.5 34t-44.5 122q0 74 33 190v1512q0 32 31 32z" glyph-name="Iogonek" horiz-adv-x="542" unicode="Į"/><glyph d="M244 1516q125 0 125 -123q0 -125 -125 -125q-129 0 -129 125q0 123 129 123zM172 1120h135q31 0 31 -30v-1059q0 -31 -31 -31h-41q-18 -76 -18 -123q0 -43 18.5 -53t75.5 -10h74q31 0 30 -31v-70q0 -29 -24 -37q-39 -16 -123 -16q-98 0 -143 34t-45 122q0 74 30 188v1086 q0 30 31 30z" glyph-name="iogonek" horiz-adv-x="479" unicode="į"/><glyph d="M268 1925q125 0 125 -123q0 -125 -125 -125q-129 0 -129 125q0 123 129 123zM199 1550h145q31 0 31 -32v-1487q0 -31 -31 -31h-145q-31 0 -31 31v1487q0 32 31 32z" glyph-name="Idotaccent" horiz-adv-x="542" unicode="İ"/><glyph d="M172 1120h135q31 0 31 -30v-1059q0 -31 -31 -31h-135q-31 0 -31 31v1059q0 30 31 30z" glyph-name="dotlessi" horiz-adv-x="479" unicode="ı"/><glyph d="M199 1550h145q31 0 31 -32v-1487q0 -31 -31 -31h-145q-31 0 -31 31v1487q0 32 31 32zM842 1550h688q31 0 31 -30v-748q0 -233 -28 -377.5t-102.5 -239t-196.5 -130t-319 -35.5q-176 0 -307 18q-31 6 -30 37v96q0 31 30 31h307q270 0 355.5 122t81.5 478v596h-510 q-31 0 -31 31v121q0 30 31 30z" glyph-name="IJ" horiz-adv-x="1714" unicode="Ĳ"/><glyph d="M239.5 1567q120.5 0 120.5 -119q0 -121 -120.5 -121t-120.5 121q0 119 120.5 119zM172 1120h135q31 0 31 -30v-1059q0 -31 -31 -31h-135q-31 0 -31 31v1059q0 30 31 30zM725 1567q121 0 121 -119q0 -121 -121 -121q-123 0 -123 121q0 119 123 119zM657 1120h136 q31 0 30 -30v-1332q0 -47 -14 -80.5t-33.5 -51t-53.5 -27t-59.5 -11.5t-64.5 -2q-76 0 -113 8q-29 6 -28 33v103q0 29 32 28h48q61 0 75.5 14.5t14.5 73.5v1244q-1 30 30 30z" glyph-name="ij" horiz-adv-x="964" unicode="ĳ"/><glyph d="M569 1964h86q25 0 35 -14l182 -248q12 -14 -6 -29l-37 -24q-14 -12 -30 0l-187 149l-186 -149q-14 -10 -31 0l-35 24q-20 14 -8 29l183 248q9 14 34 14zM285 1550h688q31 0 31 -30v-748q0 -233 -28 -377.5t-102.5 -239t-196.5 -130t-319 -35.5q-176 0 -307 18 q-31 6 -31 37v96q0 31 31 31h307q270 0 355.5 122t81.5 478v596h-510q-31 0 -31 31v121q0 30 31 30z" glyph-name="Jcircumflex" horiz-adv-x="1157" unicode="Ĵ"/><glyph d="M197 1554h88q23 0 32 -14l183 -248q12 -14 -6 -28l-37 -25q-14 -12 -31 0l-186 150l-187 -150q-14 -10 -30 0l-35 25q-20 14 -6 28l180 248q10 14 35 14zM176 1120h135q31 0 31 -30v-1332q0 -47 -14.5 -80.5t-34 -51t-53 -27t-59 -11.5t-64.5 -2q-78 0 -111 8 q-31 6 -31 33v103q0 29 33 28h47q63 0 76.5 14.5t13.5 73.5v1244q0 30 31 30z" glyph-name="jcircumflex" horiz-adv-x="485" unicode="ĵ"/><glyph d="M1020 1550h166q53 0 18 -39l-608 -680l653 -776q16 -18 10 -36.5t-45 -18.5h-159q-33 0 -45 23l-633 761v-753q0 -31 -31 -31h-147q-31 0 -31 31v1489q0 31 31 30h147q31 0 31 -30v-643l600 653q16 20 43 20zM610 -80h158q20 0 20 -20v-15q0 -14 -10 -24l-266 -252 q-12 -10 -29 0l-37 26q-16 12 -6 29l146 244q6 12 24 12z" glyph-name="Kcommaaccent" horiz-adv-x="1271" unicode="Ķ"/><glyph d="M172 1548h133q31 0 31 -32v-793l336 377q16 20 43 20h172q53 0 18 -39l-364 -401l483 -625q16 -18 10 -36.5t-45 -18.5h-145q-27 0 -45 23l-463 610v-600q0 -33 -31 -33h-133q-31 0 -31 33v1483q0 32 31 32zM485 -80h158q20 0 21 -20v-15q0 -14 -11 -24l-266 -252 q-12 -10 -29 0l-39 26q-16 12 -6 29l148 244q6 12 24 12z" glyph-name="kcommaaccent" horiz-adv-x="1034" unicode="ķ"/><glyph d="M823 1120h168q47 0 13 -41l-433 -504l482 -540q16 -14 11 -27.5t-32 -13.5h-184q-27 0 -43 20l-455 500v-483q0 -31 -31 -31h-147q-31 0 -31 31v1059q0 31 31 30h147q31 0 31 -30v-484l428 492q18 22 45 22z" glyph-name="kgreenlandic" horiz-adv-x="1081" unicode="ĸ"/><glyph d="M362 1964h183q20 0 20 -20v-15q0 -14 -10 -24l-291 -256q-14 -12 -28 0l-41 26q-16 12 -7 29l150 248q6 12 24 12zM199 1550h145q31 0 31 -30v-1338h743q31 0 31 -30v-121q0 -31 -31 -31h-919q-31 0 -31 31v1489q0 30 31 30z" glyph-name="Lacute" horiz-adv-x="1179" unicode="Ĺ"/><glyph d="M322 1954h182q20 0 20 -21v-14q0 -14 -10 -25l-291 -256q-14 -12 -28 0l-41 27q-16 12 -7 29l150 248q7 12 25 12zM172 1550h135q31 0 31 -30v-1489q0 -31 -31 -31h-135q-31 0 -31 31v1489q0 30 31 30z" glyph-name="lacute" horiz-adv-x="479" unicode="ĺ"/><glyph d="M199 1550h145q31 0 31 -30v-1338h743q31 0 31 -30v-121q0 -31 -31 -31h-919q-31 0 -31 31v1489q0 30 31 30zM633 -80h158q20 0 20 -20v-15q0 -14 -10 -24l-266 -252q-12 -10 -29 0l-39 26q-16 12 -6 29l147 244q7 12 25 12z" glyph-name="Lcommaaccent" horiz-adv-x="1179" unicode="Ļ"/><glyph d="M172 1550h133q31 0 31 -30v-1489q0 -31 -31 -31h-133q-31 0 -31 31v1489q0 30 31 30zM156 -80h157q20 0 21 -20v-15q0 -14 -10 -24l-267 -252q-12 -10 -28 0l-39 26q-16 12 -6 29l147 244q7 12 25 12z" glyph-name="lcommaaccent" horiz-adv-x="477" unicode="ļ"/><glyph d="M199 1550h145q31 0 31 -30v-1338h743q31 0 31 -30v-121q0 -31 -31 -31h-919q-31 0 -31 31v1489q0 30 31 30zM657 1548h166q20 0 21 -20v-15q0 -14 -10 -24l-203 -256q-10 -14 -29 0l-35 27q-14 10 -8 28l74 248q1 12 24 12z" glyph-name="Lcaron" horiz-adv-x="1179" unicode="Ľ"/><glyph d="M172 1550h133q31 0 31 -30v-1489q0 -31 -31 -31h-133q-31 0 -31 31v1489q0 30 31 30zM522 1548h164q20 0 21 -20v-15q0 -14 -11 -24l-200 -256q-10 -14 -29 0l-37 27q-12 10 -6 28l72 248q3 12 26 12z" glyph-name="lcaron" horiz-adv-x="538" unicode="ľ"/><glyph d="M199 1550h145q31 0 31 -30v-1338h743q31 0 31 -30v-121q0 -31 -31 -31h-919q-31 0 -31 31v1489q0 30 31 30zM762 811q125 0 125 -123q0 -125 -125 -125q-127 0 -127 125q0 123 127 123z" glyph-name="Ldot" horiz-adv-x="1179" unicode="Ŀ"/><glyph d="M172 1550h133q31 0 31 -30v-1489q0 -31 -31 -31h-133q-31 0 -31 31v1489q0 30 31 30zM565 811q125 0 125 -123q0 -125 -125 -125q-129 0 -129 125q0 123 129 123z" glyph-name="ldot" horiz-adv-x="649" unicode="ŀ"/><glyph d="M410 182h743q31 0 31 -30v-121q0 -31 -31 -31h-920q-31 0 -30 31v549l-131 -76q-29 -18 -39 12l-33 59q-16 25 10 41l193 111v793q0 31 30 30h146q31 0 31 -30v-674l221 127q31 16 43 -10l33 -60q16 -25 -13 -41l-284 -164v-516z" glyph-name="Lslash" horiz-adv-x="1214" unicode="Ł"/><glyph d="M219 1550h133q31 0 31 -30v-650l100 58q31 16 43 -10l35 -60q16 -25 -12 -41l-166 -94v-692q0 -31 -31 -31h-133q-31 0 -31 31v577l-92 -51q-29 -18 -39 12l-32 60q-16 25 10 41l153 88v762q0 30 31 30z" glyph-name="lslash" horiz-adv-x="587" unicode="ł"/><glyph d="M815 1964h182q20 0 21 -20v-15q0 -14 -10 -24l-291 -256q-14 -12 -29 0l-41 26q-16 12 -6 29l150 248q6 12 24 12zM1235 1550h145q31 0 31 -32v-1487q0 -31 -31 -31h-125q-47 0 -71 37l-809 1218v-1224q0 -31 -31 -31h-145q-31 0 -31 31v1487q0 33 31 32h139 q53 -2 72.5 -12t44.5 -47l749 -1129v1156q0 32 31 32z" glyph-name="Nacute" horiz-adv-x="1579" unicode="Ń"/><glyph d="M631 1554h180q20 0 20 -20v-14q0 -14 -10 -25l-291 -256q-12 -10 -28 0l-39 27q-16 12 -6 28l149 248q7 12 25 12zM596 1130q152 0 231.5 -13t141 -63t82 -143.5t20.5 -259.5v-620q0 -31 -35 -31h-131q-31 0 -31 31v604q0 94 -9 153.5t-23.5 95.5t-51 51t-70.5 19t-104 4 h-280v-927q0 -31 -31 -31h-135q-31 0 -31 31v1034q0 12 4 19.5t9.5 9.5t17.5 4q170 32 426 32z" glyph-name="nacute" horiz-adv-x="1204" unicode="ń"/><glyph d="M1235 1550h145q31 0 31 -32v-1487q0 -31 -31 -31h-125q-47 0 -71 37l-809 1218v-1224q0 -31 -31 -31h-145q-31 0 -31 31v1487q0 33 31 32h139q53 -2 72.5 -12t44.5 -47l749 -1129v1156q0 32 31 32zM707 -80h157q20 0 21 -20v-15q0 -14 -11 -24l-266 -252q-12 -10 -28 0 l-37 26q-16 12 -6 29l145 244q7 12 25 12z" glyph-name="Ncommaaccent" horiz-adv-x="1579" unicode="Ņ"/><glyph d="M596 1130q152 0 231.5 -13t141 -63t82 -143.5t20.5 -259.5v-620q0 -31 -35 -31h-131q-31 0 -31 31v604q0 94 -9 153.5t-23.5 95.5t-51 51t-70.5 19t-104 4h-280v-927q0 -31 -31 -31h-135q-31 0 -31 31v1034q0 12 4 19.5t9.5 9.5t17.5 4q170 32 426 32zM520 -80h158 q20 0 20 -20v-15q0 -14 -10 -24l-268 -252q-10 -8 -29 0l-37 26q-16 12 -6 29l148 244q6 12 24 12z" glyph-name="ncommaaccent" horiz-adv-x="1204" unicode="ņ"/><glyph d="M1006 1958l36 -25q18 -12 7 -28l-181 -248q-10 -14 -34 -15h-89q-23 0 -32 15l-183 248q-12 14 7 28l36 25q14 10 31 0l187 -150l186 150q15 12 29 0zM1235 1550h145q31 0 31 -32v-1487q0 -31 -31 -31h-125q-47 0 -71 37l-809 1218v-1224q0 -31 -31 -31h-145 q-31 0 -31 31v1487q0 33 31 32h139q53 -2 72.5 -12t44.5 -47l749 -1129v1156q0 32 31 32z" glyph-name="Ncaron" horiz-adv-x="1579" unicode="Ň"/><glyph d="M821 1548l37 -24q18 -14 6 -29l-182 -248q-10 -14 -33 -14h-88q-25 0 -35 14l-180 248q-12 16 6 29l37 24q14 12 29 0l186 -149l187 149q16 10 30 0zM596 1130q152 0 231.5 -13t141 -63t82 -143.5t20.5 -259.5v-620q0 -31 -35 -31h-131q-31 0 -31 31v604q0 94 -9 153.5 t-23.5 95.5t-51 51t-70.5 19t-104 4h-280v-927q0 -31 -31 -31h-135q-31 0 -31 31v1034q0 12 4 19.5t9.5 9.5t17.5 4q170 32 426 32z" glyph-name="ncaron" horiz-adv-x="1204" unicode="ň"/><glyph d="M82 1548h164q20 0 20 -20v-15q0 -14 -10 -24l-201 -256q-10 -14 -28 0l-37 27q-12 10 -6 28l71 248q2 12 27 12zM596 1130q152 0 231.5 -13t141 -63t82 -143.5t20.5 -259.5v-620q0 -31 -35 -31h-131q-31 0 -31 31v604q0 94 -9 153.5t-23.5 95.5t-51 51t-70.5 19t-104 4 h-280v-927q0 -31 -31 -31h-135q-31 0 -31 31v1034q0 12 4 19.5t9.5 9.5t17.5 4q170 32 426 32z" glyph-name="napostrophe" horiz-adv-x="1204" unicode="ŉ"/><glyph d="M1235 1550h145q31 0 31 -32v-1149q0 -166 -5 -269.5t-25.5 -201t-55.5 -149.5t-98.5 -93t-150.5 -55.5t-214 -14.5q-104 0 -203 17q-31 6 -30 37v98q0 31 30 31h193q199 0 276.5 60t71.5 218l-825 1208v-1224q0 -31 -31 -31h-145q-31 0 -31 31v1487q0 33 31 32h139 q53 -2 72.5 -12t44.5 -47l749 -1129v1156q0 32 31 32z" glyph-name="Eng" horiz-adv-x="1579" unicode="Ŋ"/><glyph d="M596 1130q152 0 231.5 -13t141 -63t82 -143.5t20.5 -259.5v-893q0 -47 -14.5 -80.5t-33.5 -51t-53 -27t-59.5 -11.5t-64.5 -2q-78 0 -111 8q-31 6 -30 33v103q0 29 34 28h45q63 0 76.5 14.5t13.5 73.5v789q0 94 -9 153.5t-23.5 95.5t-51 51t-70.5 19t-104 4h-280v-927 q0 -31 -31 -31h-135q-31 0 -31 31v1034q0 12 4 19.5t9.5 9.5t17.5 4q170 32 426 32z" glyph-name="eng" horiz-adv-x="1204" unicode="ŋ"/><glyph d="M477 1855h529q31 0 30 -30v-84q0 -31 -30 -31h-529q-31 0 -31 31v84q0 30 31 30zM741.5 1561q370.5 0 497.5 -164t127 -625q0 -236 -26.5 -379t-99.5 -237.5t-189.5 -130t-309 -35.5t-309.5 35.5t-189.5 130t-99 238t-26.5 378.5q0 461 127 625t497.5 164zM741.5 1378 q-135.5 0 -215.5 -26.5t-126 -102t-60 -183.5t-14 -294q0 -360 77.5 -480t337.5 -120t338 120t78 480q0 186 -14.5 294t-60.5 183.5t-125.5 102t-215 26.5z" glyph-name="Omacron" horiz-adv-x="1482" unicode="Ō"/><glyph d="M317 1446h529q31 0 31 -31v-84q0 -31 -31 -31h-529q-31 0 -30 31v84q-1 31 30 31zM583.5 1130q153.5 0 242.5 -23.5t143.5 -92t72 -172t17.5 -283.5t-17.5 -283.5t-73 -171t-143.5 -91t-241.5 -23.5t-242.5 23.5t-143.5 91t-73 171t-18.5 283.5t18.5 283.5t73 172 t143.5 92t242.5 23.5zM584 958q-182 0 -231.5 -75.5t-49.5 -323.5q0 -246 49 -321.5t232 -75.5q180 0 229 75.5t49 321.5q0 248 -49 323.5t-229 75.5z" glyph-name="omacron" horiz-adv-x="1165" unicode="ō"/><glyph d="M956 1946h66q35 0 29 -33q-23 -141 -88.5 -193.5t-221 -52.5t-220 52.5t-87.5 193.5q-6 33 29 33h65q27 0 35 -25q27 -66 65 -90.5t113.5 -24.5t113.5 24.5t67 90.5q7 25 34 25zM741.5 1561q370.5 0 497.5 -164t127 -625q0 -236 -26.5 -379t-99.5 -237.5t-189.5 -130 t-309 -35.5t-309.5 35.5t-189.5 130t-99 238t-26.5 378.5q0 461 127 625t497.5 164zM741.5 1378q-135.5 0 -215.5 -26.5t-126 -102t-60 -183.5t-14 -294q0 -360 77.5 -480t337.5 -120t338 120t78 480q0 186 -14.5 294t-60.5 183.5t-125.5 102t-215 26.5z" glyph-name="Obreve" horiz-adv-x="1482" unicode="Ŏ"/><glyph d="M797 1536h65q35 0 29 -33q-23 -141 -87.5 -193.5t-220 -52.5t-221 52.5t-88.5 193.5q-6 33 29 33h66q27 0 34 -25q29 -66 67 -90t113.5 -24t112.5 24.5t66 89.5q8 25 35 25zM583.5 1130q153.5 0 242.5 -23.5t143.5 -92t72 -172t17.5 -283.5t-17.5 -283.5t-73 -171 t-143.5 -91t-241.5 -23.5t-242.5 23.5t-143.5 91t-73 171t-18.5 283.5t18.5 283.5t73 172t143.5 92t242.5 23.5zM584 958q-182 0 -231.5 -75.5t-49.5 -323.5q0 -246 49 -321.5t232 -75.5q180 0 229 75.5t49 321.5q0 248 -49 323.5t-229 75.5z" glyph-name="obreve" horiz-adv-x="1165" unicode="ŏ"/><glyph d="M670 1964h164q20 0 20 -20v-15q0 -14 -10 -24l-281 -254q-14 -12 -28 0l-33 24q-16 12 -6 29l149 248q7 12 25 12zM1032 1964h166q20 0 21 -20v-15q0 -8 -11 -24l-282 -254q-14 -12 -29 0l-33 24q-16 12 -6 29l150 248q6 12 24 12zM741.5 1561q370.5 0 497.5 -164 t127 -625q0 -236 -26.5 -379t-99.5 -237.5t-189.5 -130t-309 -35.5t-309.5 35.5t-189.5 130t-99 238t-26.5 378.5q0 461 127 625t497.5 164zM741.5 1378q-135.5 0 -215.5 -26.5t-126 -102t-60 -183.5t-14 -294q0 -360 77.5 -480t337.5 -120t338 120t78 480q0 186 -14.5 294 t-60.5 183.5t-125.5 102t-215 26.5z" glyph-name="Ohungarumlaut" horiz-adv-x="1482" unicode="Ő"/><glyph d="M504 1554h164q20 0 20 -20v-14q0 -14 -10 -25l-281 -254q-14 -12 -28 0l-33 25q-16 12 -6 28l149 248q7 12 25 12zM866 1554h164q20 0 21 -20v-14q0 -14 -11 -25l-280 -254q-14 -12 -29 0l-33 25q-16 12 -6 28l150 248q6 12 24 12zM583.5 1130q153.5 0 242.5 -23.5 t143.5 -92t72 -172t17.5 -283.5t-17.5 -283.5t-73 -171t-143.5 -91t-241.5 -23.5t-242.5 23.5t-143.5 91t-73 171t-18.5 283.5t18.5 283.5t73 172t143.5 92t242.5 23.5zM584 958q-182 0 -231.5 -75.5t-49.5 -323.5q0 -246 49 -321.5t232 -75.5q180 0 229 75.5t49 321.5 q0 248 -49 323.5t-229 75.5z" glyph-name="ohungarumlaut" horiz-adv-x="1165" unicode="ő"/><glyph d="M741 1561l713 -11h557q31 0 31 -30v-121q0 -31 -31 -31h-778v-526h709q31 0 30 -31v-119q0 -31 -30 -30h-709v-480h778q31 0 31 -30v-121q0 -31 -31 -31h-557l-713 -10q-190 -2 -309 33.5t-190.5 130t-98 239t-26.5 380t26.5 380.5t98 241.5t190.5 132.5t309 34z M1024 1378h-283q-135 0 -215 -26.5t-126 -102t-60 -183.5t-14 -294q0 -360 77.5 -480t337.5 -120h283v1206z" glyph-name="OE" horiz-adv-x="2142" unicode="Œ"/><glyph d="M1331 1130q274 0 363.5 -107.5t93.5 -432.5v-60q0 -33 -14.5 -45t-61.5 -12h-651q6 -188 58 -249.5t216 -61.5h336q31 0 31 -31v-90q0 -29 -29 -33q-135 -18 -342 -18q-276 0 -370 110q-92 -111 -377 -110q-154 0 -243 23.5t-143.5 91t-73 171t-18.5 283.5t18.5 283.5 t73 172t143.5 92t243 23.5q285 0 377 -110q94 110 370 110zM583.5 958q-182.5 0 -231.5 -75.5t-49 -323.5q0 -246 49 -321.5t231.5 -75.5t231.5 75.5t49 321.5q0 248 -49 323.5t-231.5 75.5zM1331 958q-164 0 -215 -64.5t-55 -260.5h530q-4 199 -53 262t-207 63z" glyph-name="oe" horiz-adv-x="1871" unicode="œ"/><glyph d="M707 1964h182q20 0 20 -20v-15q0 -14 -10 -24l-291 -256q-14 -12 -28 0l-41 26q-16 12 -7 29l150 248q7 12 25 12zM635 1561q184 0 292.5 -18.5t185.5 -74t106.5 -151.5t29.5 -256q0 -242 -74.5 -343.5t-261.5 -125.5l347 -551q12 -16 4.5 -28.5t-29.5 -12.5h-131 q-33 0 -49.5 10t-32.5 35l-338 535h-309v-549q0 -18 -6.5 -24.5t-24.5 -6.5h-145q-18 0 -24.5 6t-6.5 25v1485q0 18 6 23t25 7q203 15 436 15zM616 1378h-241v-622h241q84 0 131.5 2t99.5 7t78.5 18.5t53.5 34t38 54t17 77.5t6 108q0 207 -81 264t-343 57z" glyph-name="Racute" horiz-adv-x="1353" unicode="Ŕ"/><glyph d="M483 1554h183q20 0 20 -20v-14q0 -14 -10 -25l-291 -256q-14 -12 -29 0l-41 27q-16 12 -6 28l150 248q6 12 24 12zM461 1130q166 0 229 -22q31 -10 31 -35v-86q0 -33 -33 -29h-178q-106 0 -142 -22.5t-36 -91.5v-813q0 -31 -31 -31h-133q-31 0 -31 31v860q0 66 23.5 114 t55.5 71.5t81 36.5t83 15t81 2z" glyph-name="racute" horiz-adv-x="749" unicode="ŕ"/><glyph d="M635 1561q184 0 292.5 -18.5t185.5 -74t106.5 -151.5t29.5 -256q0 -242 -74.5 -343.5t-261.5 -125.5l347 -551q12 -16 4.5 -28.5t-29.5 -12.5h-131q-33 0 -49.5 10t-32.5 35l-338 535h-309v-549q0 -18 -6.5 -24.5t-24.5 -6.5h-145q-18 0 -24.5 6t-6.5 25v1485q0 18 6 23 t25 7q203 15 436 15zM616 1378h-241v-622h241q84 0 131.5 2t99.5 7t78.5 18.5t53.5 34t38 54t17 77.5t6 108q0 207 -81 264t-343 57zM623 -80h157q20 0 21 -20v-15q0 -10 -10 -24l-269 -252q-12 -10 -28 0l-37 26q-16 12 -6 29l147 244q7 12 25 12z" glyph-name="Rcommaaccent" horiz-adv-x="1353" unicode="Ŗ"/><glyph d="M461 1130q166 0 229 -22q31 -10 31 -35v-86q0 -33 -33 -29h-178q-106 0 -142 -22.5t-36 -91.5v-813q0 -31 -31 -31h-133q-31 0 -31 31v860q0 66 23.5 114t55.5 71.5t81 36.5t83 15t81 2zM152 -80h157q20 0 21 -20v-15q0 -14 -11 -24l-266 -252q-12 -10 -28 0l-39 26 q-16 12 -6 29l147 244q7 12 25 12z" glyph-name="rcommaaccent" horiz-adv-x="749" unicode="ŗ"/><glyph d="M895 1958l37 -25q18 -12 6 -28l-180 -248q-10 -14 -35 -15h-88q-23 0 -33 15l-182 248q-12 14 6 28l37 25q14 10 31 0l186 -150l186 150q15 12 29 0zM635 1561q184 0 292.5 -18.5t185.5 -74t106.5 -151.5t29.5 -256q0 -242 -74.5 -343.5t-261.5 -125.5l347 -551 q12 -16 4.5 -28.5t-29.5 -12.5h-131q-33 0 -49.5 10t-32.5 35l-338 535h-309v-549q0 -18 -6.5 -24.5t-24.5 -6.5h-145q-18 0 -24.5 6t-6.5 25v1485q0 18 6 23t25 7q203 15 436 15zM616 1378h-241v-622h241q84 0 131.5 2t99.5 7t78.5 18.5t53.5 34t38 54t17 77.5t6 108 q0 207 -81 264t-343 57z" glyph-name="Rcaron" horiz-adv-x="1353" unicode="Ř"/><glyph d="M582 1548l36 -24q18 -14 7 -29l-183 -248q-10 -14 -34 -14h-86q-25 0 -35 14l-181 248q-14 14 7 29l34 24q16 10 31 0l187 -149l186 149q15 12 31 0zM459 1130q166 0 229 -22q31 -10 31 -35v-86q0 -33 -33 -29h-178q-106 0 -142 -22.5t-36 -91.5v-813q0 -31 -31 -31h-133 q-31 0 -31 31v860q0 66 23.5 114t55.5 71.5t81 36.5t83 15t81 2z" glyph-name="rcaron" horiz-adv-x="749" unicode="ř"/><glyph d="M713 1964h180q20 0 20 -20v-15q0 -14 -10 -24l-289 -256q-14 -12 -28 0l-41 26q-16 12 -6 29l149 248q7 12 25 12zM649 1561q150 0 398 -31q29 -2 28 -27v-94q0 -31 -26 -31h-461q-268 0 -269 -182v-35q0 -80 32 -126t122 -83l447 -184q133 -55 184 -140t51 -216v-66 q0 -90 -29.5 -155.5t-75.5 -104.5t-120 -60.5t-146.5 -28.5t-169.5 -7q-258 0 -499 28q-25 6 -25 33v92q0 29 29 29h561q137 0 201.5 42t64.5 138v39q0 84 -32.5 134t-122.5 87l-486 197q-111 43 -151.5 130t-40.5 218v49q0 90 28.5 155.5t74.5 103.5t119 59.5t144.5 29 t169.5 7.5z" glyph-name="Sacute" horiz-adv-x="1236" unicode="Ś"/><glyph d="M530 1554h183q20 0 20 -20v-14q0 -14 -10 -25l-291 -256q-14 -12 -29 0l-41 27q-16 12 -6 28l150 248q6 12 24 12zM520 1130q160 0 314 -18q29 -4 28 -33v-88q0 -31 -31 -30h-380q-150 0 -150 -107v-27q0 -96 127 -143l272 -109q127 -49 166 -117.5t39 -170.5v-23 q0 -164 -95 -219t-318 -55q-217 0 -375 18q-31 2 -31 31v90q0 31 31 31h379q125 0 170 20.5t45 85.5v25q0 47 -26 77.5t-93 59.5l-291 111q-197 76 -197 292v43q0 82 33 135.5t95.5 78t128 33.5t159.5 9z" glyph-name="sacute" horiz-adv-x="989" unicode="ś"/><glyph d="M578 1964h88q25 0 34 -14l181 -248q14 -14 -7 -29l-36 -24q-14 -12 -29 0l-186 149l-187 -149q-16 -10 -30 0l-37 24q-18 14 -7 29l183 248q10 14 33 14zM649 1561q150 0 398 -31q29 -2 28 -27v-94q0 -31 -26 -31h-461q-268 0 -269 -182v-35q0 -80 32 -126t122 -83 l447 -184q133 -55 184 -140t51 -216v-66q0 -90 -29.5 -155.5t-75.5 -104.5t-120 -60.5t-146.5 -28.5t-169.5 -7q-258 0 -499 28q-25 6 -25 33v92q0 29 29 29h561q137 0 201.5 42t64.5 138v39q0 84 -32.5 134t-122.5 87l-486 197q-111 43 -151.5 130t-40.5 218v49 q0 90 28.5 155.5t74.5 103.5t119 59.5t144.5 29t169.5 7.5z" glyph-name="Scircumflex" horiz-adv-x="1236" unicode="Ŝ"/><glyph d="M455 1554h88q25 0 35 -14l180 -248q12 -14 -6 -28l-37 -25q-14 -12 -29 0l-186 150l-189 -150q-14 -12 -28 0l-37 25q-18 14 -6 28l182 248q10 14 33 14zM520 1130q160 0 314 -18q29 -4 28 -33v-88q0 -31 -31 -30h-380q-150 0 -150 -107v-27q0 -96 127 -143l272 -109 q127 -49 166 -117.5t39 -170.5v-23q0 -164 -95 -219t-318 -55q-217 0 -375 18q-31 2 -31 31v90q0 31 31 31h379q125 0 170 20.5t45 85.5v25q0 47 -26 77.5t-93 59.5l-291 111q-197 76 -197 292v43q0 82 33 135.5t95.5 78t128 33.5t159.5 9z" glyph-name="scircumflex" horiz-adv-x="989" unicode="ŝ"/><glyph d="M649 1561q121 0 398 -31q29 -2 28 -27v-94q0 -31 -26 -31h-461q-268 0 -269 -182v-35q0 -80 32 -126t122 -83l447 -184q133 -55 184 -140t51 -216v-66q0 -180 -102.5 -257t-290.5 -93q29 -106 29 -180q0 -88 -45.5 -122t-143.5 -34q-84 0 -123 16q-25 8 -24 37v70 q0 31 30 31h72q57 0 76.5 10t19.5 53q0 45 -16 113h-23q-256 0 -497 28q-27 6 -27 33v92q0 29 29 29h561q137 0 201.5 42t64.5 138v39q0 84 -32.5 134t-122.5 87l-486 197q-111 43 -151.5 130t-40.5 218v49q0 90 28.5 155.5t74.5 103.5t119 59.5t144.5 29t169.5 7.5z" glyph-name="Scedilla" horiz-adv-x="1236" unicode="Ş"/><glyph d="M428 684l272 -109q127 -49 166 -117.5t39 -170.5v-23q0 -133 -64.5 -193.5t-203.5 -74.5q29 -92 29 -180t-44 -122t-143 -34q-84 0 -123 16q-25 8 -24 37v70q0 31 28 31h74q57 0 76.5 11t19.5 52q0 31 -16 113h-22q-217 0 -375 18q-31 2 -31 31v90q0 31 31 31h379 q125 0 170 20.5t45 85.5v25q0 47 -26 77.5t-93 59.5l-291 111q-197 76 -197 292v43q0 82 33 135.5t95.5 78t128 33.5t159.5 9q160 0 314 -18q29 -4 28 -33v-88q0 -31 -31 -30h-380q-150 0 -150 -107v-27q0 -96 127 -143z" glyph-name="scedilla" horiz-adv-x="989" unicode="ş"/><glyph d="M838 1958l36 -25q20 -14 7 -28l-181 -248q-10 -14 -34 -15h-88q-23 0 -33 15l-183 248q-12 14 7 28l37 25q14 10 30 0l187 -150l186 150q15 12 29 0zM649 1561q150 0 398 -31q29 -2 28 -27v-94q0 -31 -26 -31h-461q-268 0 -269 -182v-35q0 -80 32 -126t122 -83l447 -184 q133 -55 184 -140t51 -216v-66q0 -90 -29.5 -155.5t-75.5 -104.5t-120 -60.5t-146.5 -28.5t-169.5 -7q-258 0 -499 28q-25 6 -25 33v92q0 29 29 29h561q137 0 201.5 42t64.5 138v39q0 84 -32.5 134t-122.5 87l-486 197q-111 43 -151.5 130t-40.5 218v49q0 90 28.5 155.5 t74.5 103.5t119 59.5t144.5 29t169.5 7.5z" glyph-name="Scaron" horiz-adv-x="1236" unicode="Š"/><glyph d="M715 1548l37 -24q18 -14 6 -29l-180 -248q-10 -14 -35 -14h-88q-23 0 -33 14l-182 248q-12 14 6 29l37 24q14 12 28 0l189 -149l186 149q15 12 29 0zM520 1130q160 0 314 -18q29 -4 28 -33v-88q0 -31 -31 -30h-380q-150 0 -150 -107v-27q0 -96 127 -143l272 -109 q127 -49 166 -117.5t39 -170.5v-23q0 -164 -95 -219t-318 -55q-217 0 -375 18q-31 2 -31 31v90q0 31 31 31h379q125 0 170 20.5t45 85.5v25q0 47 -26 77.5t-93 59.5l-291 111q-197 76 -197 292v43q0 82 33 135.5t95.5 78t128 33.5t159.5 9z" glyph-name="scaron" horiz-adv-x="989" unicode="š"/><glyph d="M59 1550h1137q31 0 31 -30v-121q0 -31 -31 -31h-465v-1337q29 -156 29 -215q0 -88 -44 -122t-143 -34q-84 0 -122 16q-25 8 -25 37v70q0 31 29 31h73q57 0 77 11t20 52q0 33 -19 123h-51q-31 0 -31 31v1337h-465q-31 0 -30 31v121q-1 30 30 30z" glyph-name="Tcommaaccent" horiz-adv-x="1255" unicode="Ţ"/><glyph d="M526 162h99q33 0 32 -29v-98q0 -27 -30 -33q-49 -12 -115 -12h-8q29 -100 28 -174q0 -88 -45 -122t-143 -34q-84 0 -123 16q-25 8 -24 37v70q0 31 30 31h74q57 0 75.5 10t18.5 53q0 31 -16 119q-86 14 -134 64.5t-48 162.5v738h-115q-31 0 -31 30v96q0 31 31 31h115v246 q0 27 26 33l135 33q35 10 35 -27v-285h215q33 0 33 -31v-96q0 -31 -33 -30h-215v-689q0 -68 25.5 -89t107.5 -21z" glyph-name="tcommaaccent" horiz-adv-x="700" unicode="ţ"/><glyph d="M844 1958l37 -25q18 -14 6 -28l-182 -248q-10 -14 -33 -15h-88q-25 0 -35 15l-180 248q-12 16 6 28l37 25q14 12 28 0l187 -150l186 150q17 10 31 0zM59 1550h1137q31 0 31 -30v-121q0 -31 -31 -31h-465v-1337q0 -31 -31 -31h-145q-31 0 -31 31v1337h-465q-31 0 -30 31 v121q-1 30 30 30z" glyph-name="Tcaron" horiz-adv-x="1255" unicode="Ť"/><glyph d="M643 1548h166q20 0 20 -20v-15q0 -14 -10 -24l-201 -252q-12 -14 -28 -2l-37 25q-12 10 -6 28l71 244q2 16 25 16zM223 1397l135 33q35 10 35 -27v-285h215q33 0 33 -31v-96q0 -31 -33 -30h-215v-689q0 -68 25.5 -89t107.5 -21h99q33 0 32 -29v-98q0 -27 -30 -33 q-49 -12 -115 -12q-59 0 -91 2t-82 14t-75.5 34.5t-46 69t-20.5 113.5v738h-115q-31 0 -31 30v96q0 31 31 31h115v246q-1 27 26 33z" glyph-name="tcaron" horiz-adv-x="739" unicode="ť"/><glyph d="M82 1550h1137q31 0 30 -30v-121q0 -31 -30 -31h-465v-487h329q31 0 31 -31v-82q0 -31 -31 -31h-329v-706q0 -31 -31 -31h-145q-31 0 -31 31v706h-330q-31 0 -31 31v82q0 31 31 31h330v487h-465q-31 0 -31 31v121q0 30 31 30z" glyph-name="Tbar" horiz-adv-x="1300" unicode="Ŧ"/><glyph d="M528 162h99q33 0 32 -29v-98q0 -27 -30 -33q-49 -12 -115 -12q-59 0 -91 2t-82 14t-75.5 34.5t-46 69t-20.5 113.5v320h-70q-31 0 -31 30v82q0 31 31 31h70v275h-115q-31 0 -31 30v96q0 31 31 31h115v246q0 27 26 33l135 33q35 10 35 -27v-285h215q33 0 33 -31v-96 q0 -31 -33 -30h-215v-275h166q31 0 31 -31v-82q0 -31 -31 -30h-166v-271q0 -68 25.5 -89t107.5 -21z" glyph-name="tbar" horiz-adv-x="702" unicode="ŧ"/><glyph d="M621 1925q49 0 146 -41t130 -41q37 0 56.5 14.5t37.5 55.5q14 31 39 22l47 -12q31 -10 23 -47q-37 -117 -76 -157t-115 -40q-49 0 -147 41t-131 41q-37 0 -56.5 -14t-37.5 -55q-12 -29 -37 -21l-49 12q-29 12 -21 46q35 119 74 157.5t117 38.5zM1198 1550h145 q31 0 31 -30v-748q0 -242 -25.5 -387t-97 -237.5t-185.5 -125t-302 -32.5q-152 0 -251 22.5t-173 71.5t-112 143.5t-55 222.5t-17 322v748q0 31 30 30h146q31 0 30 -30v-748q0 -248 35 -373t119 -176t248 -51q242 0 322.5 120t80.5 480v748q0 30 31 30z" glyph-name="Utilde" horiz-adv-x="1529" unicode="Ũ"/><glyph d="M453 1516q49 0 147 -41t131 -41q37 0 55.5 14t36.5 55q14 31 39 23l47 -13q31 -10 23 -47q-37 -117 -76 -156.5t-115 -39.5q-49 0 -147 41t-131 41q-37 0 -56.5 -14.5t-35.5 -55.5q-14 -29 -39 -20l-49 12q-29 12 -21 45q35 119 74 158t117 39zM899 1120h135q31 0 31 -30 v-1037q0 -12 -4 -18t-9 -8t-18 -4q-172 -33 -426 -33q-152 0 -231.5 13t-141 64.5t-82 144.5t-20.5 259v619q0 31 35 30h131q31 0 31 -30v-605q0 -117 10 -181t46 -96t76 -39t126 -7h280v928q0 30 31 30z" glyph-name="utilde" horiz-adv-x="1206" unicode="ũ"/><glyph d="M500 1855h528q31 0 31 -30v-84q0 -31 -31 -31h-528q-31 0 -31 31v84q0 30 31 30zM1198 1550h145q31 0 31 -30v-748q0 -242 -25.5 -387t-97 -237.5t-185.5 -125t-302 -32.5q-152 0 -251 22.5t-173 71.5t-112 143.5t-55 222.5t-17 322v748q0 31 30 30h146q31 0 30 -30v-748 q0 -248 35 -373t119 -176t248 -51q242 0 322.5 120t80.5 480v748q0 30 31 30z" glyph-name="Umacron" horiz-adv-x="1529" unicode="Ū"/><glyph d="M332 1446h528q31 0 31 -31v-84q0 -31 -31 -31h-528q-31 0 -31 31v84q0 31 31 31zM899 1120h135q31 0 31 -30v-1037q0 -12 -4 -18t-9 -8t-18 -4q-172 -33 -426 -33q-152 0 -231.5 13t-141 64.5t-82 144.5t-20.5 259v619q0 31 35 30h131q31 0 31 -30v-605q0 -117 10 -181 t46 -96t76 -39t126 -7h280v928q0 30 31 30z" glyph-name="umacron" horiz-adv-x="1206" unicode="ū"/><glyph d="M979 1946h65q35 0 29 -33q-23 -141 -88 -193.5t-221 -52.5t-220.5 52.5t-86.5 193.5q-6 33 28 33h66q27 0 35 -25q29 -66 65.5 -90.5t112.5 -24.5t113.5 24.5t66.5 90.5q8 25 35 25zM1198 1550h145q31 0 31 -30v-748q0 -242 -25.5 -387t-97 -237.5t-185.5 -125 t-302 -32.5q-152 0 -251 22.5t-173 71.5t-112 143.5t-55 222.5t-17 322v748q0 31 30 30h146q31 0 30 -30v-748q0 -248 35 -373t119 -176t248 -51q242 0 322.5 120t80.5 480v748q0 30 31 30z" glyph-name="Ubreve" horiz-adv-x="1529" unicode="Ŭ"/><glyph d="M811 1536h66q35 0 28 -33q-23 -141 -88 -193.5t-221 -52.5t-220.5 52.5t-86.5 193.5q-6 33 28 33h66q27 0 35 -25q29 -66 65.5 -90t112.5 -24t114 24.5t66 89.5q8 25 35 25zM899 1120h135q31 0 31 -30v-1037q0 -12 -4 -18t-9 -8t-18 -4q-172 -33 -426 -33 q-152 0 -231.5 13t-141 64.5t-82 144.5t-20.5 259v619q0 31 35 30h131q31 0 31 -30v-605q0 -117 10 -181t46 -96t76 -39t126 -7h280v928q0 30 31 30z" glyph-name="ubreve" horiz-adv-x="1206" unicode="ŭ"/><glyph d="M764 2066q219 0 219 -208.5t-219 -208.5q-217 0 -217 208.5t217 208.5zM764 1985q-127 0 -127 -127t127 -127t127 127t-127 127zM1198 1550h145q31 0 31 -30v-748q0 -242 -25.5 -387t-97 -237.5t-185.5 -125t-302 -32.5q-152 0 -251 22.5t-173 71.5t-112 143.5t-55 222.5 t-17 322v748q0 31 30 30h146q31 0 30 -30v-748q0 -248 35 -373t119 -176t248 -51q242 0 322.5 120t80.5 480v748q0 30 31 30z" glyph-name="Uring" horiz-adv-x="1529" unicode="Ů"/><glyph d="M596 1657q219 0 219 -209t-219 -209q-217 0 -217 209t217 209zM596 1575q-127 0 -127 -127t127 -127t127 127t-127 127zM899 1120h135q31 0 31 -30v-1037q0 -12 -4 -18t-9 -8t-18 -4q-172 -33 -426 -33q-152 0 -231.5 13t-141 64.5t-82 144.5t-20.5 259v619q0 31 35 30 h131q31 0 31 -30v-605q0 -117 10 -181t46 -96t76 -39t126 -7h280v928q0 30 31 30z" glyph-name="uring" horiz-adv-x="1206" unicode="ů"/><glyph d="M633 1964h166q20 0 20 -20v-15q0 -14 -10 -24l-281 -254q-14 -12 -28 0l-35 24q-16 12 -6 29l149 248q7 12 25 12zM995 1964h166q20 0 21 -20v-15q0 -14 -11 -24l-280 -254q-14 -12 -29 0l-35 24q-16 12 -6 29l150 248q6 12 24 12zM1198 1550h145q31 0 31 -30v-748 q0 -242 -25.5 -387t-97 -237.5t-185.5 -125t-302 -32.5q-152 0 -251 22.5t-173 71.5t-112 143.5t-55 222.5t-17 322v748q0 31 30 30h146q31 0 30 -30v-748q0 -248 35 -373t119 -176t248 -51q242 0 322.5 120t80.5 480v748q0 30 31 30z" glyph-name="Uhungarumlaut" horiz-adv-x="1529" unicode="Ű"/><glyph d="M492 1554h163q20 0 21 -20v-14q0 -14 -10 -25l-281 -254q-14 -12 -29 0l-32 25q-16 12 -7 28l150 248q7 12 25 12zM854 1554h166q20 0 20 -20v-14q0 -8 -10 -25l-282 -254q-14 -12 -29 0l-33 25q-16 12 -6 28l149 248q7 12 25 12zM899 1120h135q31 0 31 -30v-1037 q0 -12 -4 -18t-9 -8t-18 -4q-172 -33 -426 -33q-152 0 -231.5 13t-141 64.5t-82 144.5t-20.5 259v619q0 31 35 30h131q31 0 31 -30v-605q0 -117 10 -181t46 -96t76 -39t126 -7h280v928q0 30 31 30z" glyph-name="uhungarumlaut" horiz-adv-x="1206" unicode="ű"/><glyph d="M1198 1550h145q31 0 31 -30v-748q0 -229 -22.5 -370.5t-85 -234.5t-161.5 -131t-263 -44q-18 -80 -19 -115q0 -41 19.5 -52t77.5 -11h73q31 0 31 -31v-70q0 -29 -25 -37q-39 -16 -122 -16q-98 0 -143.5 34t-45.5 122q0 82 27 174q-172 4 -276.5 40t-170 129t-89 236.5 t-23.5 376.5v748q0 31 30 30h146q31 0 30 -30v-748q0 -248 35 -373t119 -176t248 -51q242 0 322.5 120t80.5 480v748q0 30 31 30z" glyph-name="Uogonek" horiz-adv-x="1529" unicode="Ų"/><glyph d="M899 1120h135q31 0 31 -30v-1037q0 -12 -4 -18t-9 -8t-18 -4q-37 -6 -131 -21q-20 -68 -20 -125q0 -41 19.5 -52t76.5 -11h74q31 0 30 -31v-70q0 -29 -24 -37q-39 -16 -123 -16q-98 0 -143 34t-45 122q0 78 26 178q-66 -4 -166 -4q-152 0 -231.5 13t-141 64.5t-82 144.5 t-20.5 259v619q0 31 35 30h131q31 0 31 -30v-605q0 -117 10 -181t46 -96t76 -39t126 -7h280v928q0 30 31 30z" glyph-name="uogonek" horiz-adv-x="1206" unicode="ų"/><glyph d="M1069 1964h88q25 0 35 -14l180 -248q12 -16 -6 -29l-37 -24q-14 -12 -29 0l-186 149l-186 -149q-16 -10 -31 0l-37 24q-18 14 -6 29l182 248q10 14 33 14zM1974 1550h162q33 0 27 -32l-279 -1289q-33 -158 -79 -198.5t-187 -40.5q-156 0 -200 39t-83 200l-221 928 l-221 -928q-29 -117 -52.5 -159.5t-72.5 -61t-160 -18.5q-141 0 -187 41t-79 198l-276 1289q-6 33 24 32h162q18 0 27 -32l260 -1229q14 -70 29.5 -89.5t45.5 -19.5q41 0 56.5 18.5t31.5 90.5l293 1165q8 33 37 33h164q27 0 35 -33l293 -1165q18 -72 32.5 -90.5t55.5 -18.5 q33 0 47 19.5t29 89.5l260 1229q8 32 26 32z" glyph-name="Wcircumflex" horiz-adv-x="2232" unicode="Ŵ"/><glyph d="M813 1554h86q25 0 35 -14l182 -248q12 -14 -8 -28l-35 -25q-16 -12 -31 0l-186 150l-186 -150q-14 -12 -31 0l-35 25q-20 14 -8 28l182 248q10 14 35 14zM1475 1120h147q16 0 21.5 -6t3.5 -27l-181 -866q-33 -152 -73.5 -191.5t-165.5 -39.5q-131 0 -166 35.5t-72 195.5 l-133 574l-133 -574q-37 -160 -72 -195.5t-166 -35.5q-123 0 -164.5 40t-74.5 191l-180 866q-2 20 3 26.5t21 6.5h150q16 0 24 -33l168 -841q12 -51 22.5 -64.5t32.5 -13.5q27 0 35 12.5t21 65.5l198 809q8 33 29 32h172q20 0 29 -32l198 -809q12 -53 20.5 -65.5t35.5 -12.5 q23 0 33 13.5t22 64.5l168 841q4 20 9.5 26.5t17.5 6.5z" glyph-name="wcircumflex" horiz-adv-x="1712" unicode="ŵ"/><glyph d="M633 1964h86q25 0 35 -14l182 -248q12 -14 -6 -29l-37 -24q-16 -12 -31 0l-186 149l-187 -149q-14 -10 -30 0l-35 24q-20 14 -6 29l180 248q10 14 35 14zM1155 1550h158q47 0 22 -45l-555 -1034v-440q0 -31 -30 -31h-148q-31 0 -31 31v440l-555 1034q-25 45 23 45h160 q35 0 55 -32l422 -822l424 822q14 32 55 32z" glyph-name="Ycircumflex" horiz-adv-x="1351" unicode="Ŷ"/><glyph d="M573 1554h86q25 0 35 -14l183 -248q12 -14 -7 -28l-36 -25q-14 -12 -31 0l-187 150l-186 -150q-14 -10 -31 0l-34 25q-20 14 -9 28l183 248q9 14 34 14zM901 1120h135q31 0 31 -30v-988q0 -158 -18.5 -251t-71.5 -156.5t-143.5 -87t-239.5 -23.5q-172 0 -309 19 q-29 4 -29 32v89q0 31 31 30h303q170 0 225 49.5t55 190.5v12q-100 -16 -270 -16q-287 0 -378 111.5t-91 447.5v541q0 31 31 30h133q31 0 31 -30v-529q0 -248 50 -323.5t236 -75.5q143 0 258 14v914q0 30 31 30z" glyph-name="ycircumflex" horiz-adv-x="1208" unicode="ŷ"/><glyph d="M485 1923q125 0 125 -121q0 -125 -125 -125q-127 0 -127 125q0 121 127 121zM868 1923q125 0 125 -121q0 -125 -125 -125q-127 0 -127 125q0 121 127 121zM1155 1550h158q47 0 22 -45l-555 -1034v-440q0 -31 -30 -31h-148q-31 0 -31 31v440l-555 1034q-25 45 23 45h160 q35 0 55 -32l422 -822l424 822q14 32 55 32z" glyph-name="Ydieresis" horiz-adv-x="1351" unicode="Ÿ"/><glyph d="M694 1964h183q20 0 20 -20v-15q0 -14 -10 -24l-291 -256q-14 -12 -29 0l-41 26q-16 12 -6 29l150 248q6 12 24 12zM119 1550h1106q31 0 30 -30v-103q0 -18 -14 -39l-905 -1196h905q33 0 33 -30v-121q0 -31 -33 -31h-1145q-31 0 -30 31l-3 100q0 20 15 39l907 1198h-864 q-33 0 -33 29l-2 123q0 30 33 30z" glyph-name="Zacute" horiz-adv-x="1339" unicode="Ź"/><glyph d="M549 1554h180q20 0 21 -20v-14q0 -14 -11 -25l-290 -256q-14 -12 -29 0l-39 27q-16 12 -6 28l149 248q7 12 25 12zM123 1120h809q33 0 33 -30v-50q0 -18 -13 -36l-604 -832h604q33 0 33 -31v-110q0 -31 -33 -31h-856q-33 0 -33 31v57q0 20 15 37l598 823h-553 q-33 0 -33 31v111q0 30 33 30z" glyph-name="zacute" horiz-adv-x="1050" unicode="ź"/><glyph d="M670 1925q125 0 125 -123q0 -125 -125 -125q-129 0 -129 125q0 123 129 123zM119 1550h1106q31 0 30 -30v-103q0 -18 -14 -39l-905 -1196h905q33 0 33 -30v-121q0 -31 -33 -31h-1145q-31 0 -30 31l-3 100q0 20 15 39l907 1198h-864q-33 0 -33 29l-2 123q0 30 33 30z" glyph-name="Zdotaccent" horiz-adv-x="1339" unicode="Ż"/><glyph d="M522 1516q127 0 127 -123q0 -125 -127 -125t-127 125q0 123 127 123zM123 1120h809q33 0 33 -30v-50q0 -18 -13 -36l-604 -832h604q33 0 33 -31v-110q0 -31 -33 -31h-856q-33 0 -33 31v57q0 20 15 37l598 823h-553q-33 0 -33 31v111q0 30 33 30z" glyph-name="zdotaccent" horiz-adv-x="1050" unicode="ż"/><glyph d="M885 1958l37 -25q18 -12 6 -28l-180 -248q-10 -14 -35 -15h-88q-23 0 -33 15l-182 248q-12 14 6 28l37 25q14 10 30 0l187 -150l186 150q15 12 29 0zM119 1550h1106q31 0 30 -30v-103q0 -18 -14 -39l-905 -1196h905q33 0 33 -30v-121q0 -31 -33 -31h-1145q-31 0 -30 31 l-3 100q0 20 15 39l907 1198h-864q-33 0 -33 29l-2 123q0 30 33 30z" glyph-name="Zcaron" horiz-adv-x="1339" unicode="Ž"/><glyph d="M739 1548l37 -24q18 -14 6 -29l-182 -248q-10 -14 -33 -14h-88q-25 0 -35 14l-180 248q-14 14 6 29l37 24q14 12 29 0l186 -149l187 149q16 10 30 0zM123 1120h809q33 0 33 -30v-50q0 -18 -13 -36l-604 -832h604q33 0 33 -31v-110q0 -31 -33 -31h-856q-33 0 -33 31v57 q0 20 15 37l598 823h-553q-33 0 -33 31v111q0 30 33 30z" glyph-name="zcaron" horiz-adv-x="1050" unicode="ž"/><glyph d="M909 1561q86 0 176 -21q35 -6 33 -37l-14 -88q-2 -27 -31 -26h-110q-98 0 -141.5 -21.5t-53.5 -93.5l-41 -297h242q31 0 30 -31v-96q0 -31 -30 -31h-264l-82 -594q-10 -66 -38 -112.5t-59.5 -70.5t-80 -36t-78 -14t-74.5 -2q-80 0 -176 18q-37 6 -33 37l12 90q4 27 31 27 h113q96 0 139 21.5t53 92.5l78 543h-141q-31 0 -31 35v96q0 27 31 27h163l48 348q10 80 46 132t91 72.5t95 26t97 5.5z" glyph-name="florin" horiz-adv-x="1138" unicode="ƒ"/><glyph d="M907 1958l35 -25q20 -14 8 -28l-182 -248q-10 -14 -35 -15h-86q-25 0 -35 15l-182 248q-12 14 8 28l35 25q14 12 31 0l186 -150l187 150q16 12 30 0zM690 1561q158 0 206 -40t91 -200l350 -1288q4 -20 -1 -26.5t-23 -6.5h-160q-12 0 -17.5 6t-9.5 27l-127 452h-616 l-129 -452q-4 -20 -9 -26.5t-18 -6.5h-159q-18 0 -23.5 6t-1.5 27l363 1288q45 158 93 199t191 41zM688 1380q-43 0 -55 -16t-33 -92l-168 -606h518l-159 606q-20 74 -36 91t-67 17z" glyph-name="uni01CD" horiz-adv-x="1388" unicode="Ǎ"/><glyph d="M748 1548l36 -24q20 -14 7 -29l-181 -248q-10 -14 -35 -14h-88q-23 0 -32 14l-183 248q-12 14 7 29l36 24q14 10 31 0l186 -149l187 149q15 12 29 0zM498 1130q240 0 351.5 -76.5t111.5 -244.5v-717q0 -43 -39 -57q-121 -45 -455 -45q-215 0 -305 66.5t-90 262.5 q0 176 89 246t273 70l330 2v137q0 96 -61.5 140t-204.5 44h-308q-18 0 -24 6.5t-6 24.5v84q0 16 6 22.5t22 10.5q146 24 310 24zM764 477h-326q-88 0 -130 -34.5t-42 -118.5q0 -98 52.5 -132t183.5 -34q168 0 262 24v295z" glyph-name="uni01CE" horiz-adv-x="1093" unicode="ǎ"/><glyph d="M483 1958l37 -25q18 -14 6 -28l-180 -248q-14 -14 -35 -15h-88q-20 0 -35 15l-180 248q-12 14 6 28l37 25q14 12 29 0l188 -150l187 150q14 12 28 0zM199 1550h145q31 0 31 -32v-1487q0 -31 -31 -31h-145q-31 0 -31 31v1487q0 32 31 32z" glyph-name="uni01CF" horiz-adv-x="542" unicode="Ǐ"/><glyph d="M455 1548l37 -24q18 -14 6 -29l-181 -248q-10 -14 -34 -14h-88q-23 0 -33 14l-182 248q-12 14 6 29l37 24q14 12 28 0l189 -149l186 149q15 12 29 0zM172 1120h135q31 0 31 -30v-1059q0 -31 -31 -31h-135q-31 0 -31 31v1059q0 30 31 30z" glyph-name="uni01D0" horiz-adv-x="479" unicode="ǐ"/><glyph d="M958 1958l37 -25q18 -14 6 -28l-182 -248q-10 -14 -33 -15h-88q-25 0 -34 15l-181 248q-14 14 6 28l35 25q16 10 31 0l186 -150l187 150q14 12 30 0zM741.5 1561q370.5 0 497.5 -164t127 -625q0 -236 -26.5 -379t-99.5 -237.5t-189.5 -130t-309 -35.5t-309.5 35.5 t-189.5 130t-99 238t-26.5 378.5q0 461 127 625t497.5 164zM741.5 1378q-135.5 0 -215.5 -26.5t-126 -102t-60 -183.5t-14 -294q0 -360 77.5 -480t337.5 -120t338 120t78 480q0 186 -14.5 294t-60.5 183.5t-125.5 102t-215 26.5z" glyph-name="uni01D1" horiz-adv-x="1482" unicode="Ǒ"/><glyph d="M799 1548l37 -24q18 -14 6 -29l-180 -248q-10 -14 -35 -14h-88q-23 0 -33 14l-182 248q-12 14 6 29l37 24q14 12 28 0l189 -149l186 149q15 12 29 0zM583.5 1130q153.5 0 242.5 -23.5t143.5 -92t72 -172t17.5 -283.5t-17.5 -283.5t-73 -171t-143.5 -91t-241.5 -23.5 t-242.5 23.5t-143.5 91t-73 171t-18.5 283.5t18.5 283.5t73 172t143.5 92t242.5 23.5zM584 958q-182 0 -231.5 -75.5t-49.5 -323.5q0 -246 49 -321.5t232 -75.5q180 0 229 75.5t49 321.5q0 248 -49 323.5t-229 75.5z" glyph-name="uni01D2" horiz-adv-x="1165" unicode="ǒ"/><glyph d="M981 1958l37 -25q18 -14 6 -28l-182 -248q-10 -14 -33 -15h-88q-25 0 -35 15l-180 248q-12 16 6 28l37 25q14 12 29 0l186 -150l186 150q17 10 31 0zM1198 1550h145q31 0 31 -30v-748q0 -242 -25.5 -387t-97 -237.5t-185.5 -125t-302 -32.5q-152 0 -251 22.5t-173 71.5 t-112 143.5t-55 222.5t-17 322v748q0 31 30 30h146q31 0 30 -30v-748q0 -248 35 -373t119 -176t248 -51q242 0 322.5 120t80.5 480v748q0 30 31 30z" glyph-name="uni01D3" horiz-adv-x="1529" unicode="Ǔ"/><glyph d="M813 1548l37 -24q18 -14 6 -29l-182 -248q-10 -14 -33 -14h-88q-25 0 -35 14l-180 248q-12 14 6 29l37 24q14 12 29 0l186 -149l186 149q17 10 31 0zM899 1120h135q31 0 31 -30v-1037q0 -12 -4 -18t-9 -8t-18 -4q-172 -33 -426 -33q-152 0 -231.5 13t-141 64.5t-82 144.5 t-20.5 259v619q0 31 35 30h131q31 0 31 -30v-605q0 -117 10 -181t46 -96t76 -39t126 -7h280v928q0 30 31 30z" glyph-name="uni01D4" horiz-adv-x="1206" unicode="ǔ"/><glyph d="M500 2187h528q31 0 31 -30v-84q0 -31 -31 -31h-528q-31 0 -31 31v84q0 30 31 30zM575 1923q123 0 123 -121q0 -125 -123 -125q-129 0 -129 125q0 121 129 121zM956 1923q125 0 125 -121q0 -125 -125 -125t-125 125q0 121 125 121zM1198 1550h145q31 0 31 -30v-748 q0 -242 -25.5 -387t-97 -237.5t-185.5 -125t-302 -32.5q-152 0 -251 22.5t-173 71.5t-112 143.5t-55 222.5t-17 322v748q0 31 30 30h146q31 0 30 -30v-748q0 -248 35 -373t119 -176t248 -51q242 0 322.5 120t80.5 480v748q0 30 31 30z" glyph-name="uni01D5" horiz-adv-x="1529" unicode="Ǖ"/><glyph d="M332 1757h528q31 0 31 -31v-84q0 -31 -31 -30h-528q-31 0 -31 30v84q0 31 31 31zM408 1513q123 0 122 -120q0 -125 -122 -125q-127 0 -127 125q0 120 127 120zM788.5 1513q124.5 0 124.5 -120q0 -125 -124.5 -125t-124.5 125q0 120 124.5 120zM899 1120h135q31 0 31 -30 v-1037q0 -12 -4 -18t-9 -8t-18 -4q-172 -33 -426 -33q-152 0 -231.5 13t-141 64.5t-82 144.5t-20.5 259v619q0 31 35 30h131q31 0 31 -30v-605q0 -117 10 -181t46 -96t76 -39t126 -7h280v928q0 30 31 30z" glyph-name="uni01D6" horiz-adv-x="1206" unicode="ǖ"/><glyph d="M883 2277h182q20 0 20 -20v-14q0 -14 -10 -25l-291 -256q-14 -12 -28 0l-41 27q-16 12 -6 28l149 248q7 12 25 12zM575 1923q123 0 123 -121q0 -125 -123 -125q-129 0 -129 125q0 121 129 121zM956 1923q125 0 125 -121q0 -125 -125 -125t-125 125q0 121 125 121z M1198 1550h145q31 0 31 -30v-748q0 -242 -25.5 -387t-97 -237.5t-185.5 -125t-302 -32.5q-152 0 -251 22.5t-173 71.5t-112 143.5t-55 222.5t-17 322v748q0 31 30 30h146q31 0 30 -30v-748q0 -248 35 -373t119 -176t248 -51q242 0 322.5 120t80.5 480v748q0 30 31 30z" glyph-name="uni01D7" horiz-adv-x="1529" unicode="Ǘ"/><glyph d="M727 1874h182q20 0 21 -21v-14q0 -14 -10 -24l-291 -259q-12 -10 -29 0l-41 29q-16 12 -6 29l149 248q7 12 25 12zM408 1513q123 0 122 -120q0 -125 -122 -125q-127 0 -127 125q0 120 127 120zM788.5 1513q124.5 0 124.5 -120q0 -125 -124.5 -125t-124.5 125 q0 120 124.5 120zM899 1120h135q31 0 31 -30v-1037q0 -12 -4 -18t-9 -8t-18 -4q-172 -33 -426 -33q-152 0 -231.5 13t-141 64.5t-82 144.5t-20.5 259v619q0 31 35 30h131q31 0 31 -30v-605q0 -117 10 -181t46 -96t76 -39t126 -7h280v928q0 30 31 30z" glyph-name="uni01D8" horiz-adv-x="1206" unicode="ǘ"/><glyph d="M981 2288l37 -25q18 -14 6 -31l-182 -245q-10 -16 -33 -17h-88q-25 0 -35 17l-180 245q-14 16 6 31l37 25q14 12 29 0l186 -152l186 152q17 10 31 0zM575 1923q123 0 123 -121q0 -125 -123 -125q-129 0 -129 125q0 121 129 121zM956 1923q125 0 125 -121 q0 -125 -125 -125t-125 125q0 121 125 121zM1198 1550h145q31 0 31 -30v-748q0 -242 -25.5 -387t-97 -237.5t-185.5 -125t-302 -32.5q-152 0 -251 22.5t-173 71.5t-112 143.5t-55 222.5t-17 322v748q0 31 30 30h146q31 0 30 -30v-748q0 -248 35 -373t119 -176t248 -51 q242 0 322.5 120t80.5 480v748q0 30 31 30z" glyph-name="uni01D9" horiz-adv-x="1529" unicode="Ǚ"/><glyph d="M813 1870l37 -25q18 -14 6 -28l-182 -248q-10 -14 -33 -15h-88q-25 0 -35 15l-180 248q-12 14 6 28l37 25q14 12 29 0l186 -150l186 150q17 10 31 0zM408 1513q123 0 122 -120q0 -125 -122 -125q-127 0 -127 125q0 120 127 120zM788.5 1513q124.5 0 124.5 -120 q0 -125 -124.5 -125t-124.5 125q0 120 124.5 120zM899 1120h135q31 0 31 -30v-1037q0 -12 -4 -18t-9 -8t-18 -4q-172 -33 -426 -33q-152 0 -231.5 13t-141 64.5t-82 144.5t-20.5 259v619q0 31 35 30h131q31 0 31 -30v-605q0 -117 10 -181t46 -96t76 -39t126 -7h280v928 q0 30 31 30z" glyph-name="uni01DA" horiz-adv-x="1206" unicode="ǚ"/><glyph d="M471 2277h182q18 0 25 -12l149 -248q10 -16 -6 -28l-41 -27q-14 -12 -28 0l-291 256q-10 10 -10 25v14q0 20 20 20zM575 1923q123 0 123 -121q0 -125 -123 -125q-129 0 -129 125q0 121 129 121zM956 1923q125 0 125 -121q0 -125 -125 -125t-125 125q0 121 125 121z M1198 1550h145q31 0 31 -30v-748q0 -242 -25.5 -387t-97 -237.5t-185.5 -125t-302 -32.5q-152 0 -251 22.5t-173 71.5t-112 143.5t-55 222.5t-17 322v748q0 31 30 30h146q31 0 30 -30v-748q0 -248 35 -373t119 -176t248 -51q242 0 322.5 120t80.5 480v748q0 30 31 30z" glyph-name="uni01DB" horiz-adv-x="1529" unicode="Ǜ"/><glyph d="M285 1874h182q18 0 25 -12l149 -248q10 -16 -6 -29l-41 -29q-16 -10 -29 0l-291 259q-10 16 -10 24v14q1 21 21 21zM408 1513q123 0 122 -120q0 -125 -122 -125q-127 0 -127 125q0 120 127 120zM788.5 1513q124.5 0 124.5 -120q0 -125 -124.5 -125t-124.5 125 q0 120 124.5 120zM899 1120h135q31 0 31 -30v-1037q0 -12 -4 -18t-9 -8t-18 -4q-172 -33 -426 -33q-152 0 -231.5 13t-141 64.5t-82 144.5t-20.5 259v619q0 31 35 30h131q31 0 31 -30v-605q0 -117 10 -181t46 -96t76 -39t126 -7h280v928q0 30 31 30z" glyph-name="uni01DC" horiz-adv-x="1206" unicode="ǜ"/><glyph d="M748 2251h182q20 0 20 -21v-14q0 -18 -10 -25l-170 -135q137 -31 137 -198q0 -209 -217 -209t-217 209q0 166 143 200l107 180q7 13 25 13zM690 1985q-127 0 -127 -127t127 -127t127 127t-127 127zM690 1561q158 0 206 -40t91 -200l350 -1288q4 -20 -1 -26.5t-23 -6.5 h-160q-12 0 -17.5 6t-9.5 27l-127 452h-616l-129 -452q-4 -20 -9 -26.5t-18 -6.5h-159q-18 0 -23.5 6t-1.5 27l363 1288q45 158 93 199t191 41zM690 1380q-43 0 -56 -17t-32 -91l-168 -606h518l-159 606q-20 74 -36 91t-67 17z" glyph-name="Aringacute" horiz-adv-x="1388" unicode="Ǻ"/><glyph d="M590 1841h182q20 0 21 -20v-15q0 -18 -11 -24l-172 -135q139 -35 140 -199q0 -209 -217.5 -209t-217.5 209q0 166 142 201l108 180q7 12 25 12zM532.5 1575q-126.5 0 -126.5 -127t126.5 -127t126.5 127t-126.5 127zM498 1130q240 0 351.5 -76.5t111.5 -244.5v-717 q0 -43 -39 -57q-121 -45 -455 -45q-215 0 -305 66.5t-90 262.5q0 176 89 246t273 70l330 2v137q0 96 -61.5 140t-204.5 44h-308q-18 0 -24 6.5t-6 24.5v84q0 16 6 22.5t22 10.5q146 24 310 24zM764 477h-326q-88 0 -130 -34.5t-42 -118.5q0 -98 52.5 -132t183.5 -34 q168 0 262 24v295z" glyph-name="aringacute" horiz-adv-x="1093" unicode="ǻ"/><glyph d="M1194 1964h180q20 0 21 -20v-15q0 -14 -11 -24l-290 -256q-14 -12 -29 0l-39 26q-16 12 -6 29l149 248q7 12 25 12zM690 1561l457 -11h704q31 0 31 -30v-121q0 -31 -31 -31h-671v-526h602q31 0 30 -31v-119q0 -31 -30 -30h-602v-480h671q31 0 31 -30v-121q0 -31 -31 -31 h-850q-31 0 -30 31v454h-586l-129 -452q-4 -20 -9 -26.5t-18 -6.5h-159q-18 0 -23.5 6t-3.5 27l365 1288q45 158 93 199t189 41zM971 1380h-275q-45 0 -60 -18.5t-36 -95.5l-166 -600h537v714z" glyph-name="AEacute" horiz-adv-x="1982" unicode="Ǽ"/><glyph d="M987 1554h180q20 0 21 -20v-14q0 -14 -10 -25l-291 -256q-12 -10 -29 0l-39 27q-16 12 -6 28l150 248q6 12 24 12zM1231 1130q274 0 363 -107.5t94 -432.5v-60q0 -33 -13.5 -45t-60.5 -12h-651q6 -188 58 -249.5t216 -61.5h336q31 0 31 -31v-90q0 -29 -29 -33 q-135 -18 -344 -18q-96 0 -196.5 23.5t-149.5 60.5q-156 -84 -416 -84q-215 0 -306 66.5t-91 262.5q0 176 89 246t275 70l330 2v137q0 96 -62.5 140t-205.5 44h-305q-18 0 -24.5 6.5t-6.5 24.5v84q0 16 6 22.5t22 10.5q143 25 308 24q266 0 374 -100q99 100 359 100z M1231 958q-164 0 -214 -63.5t-54 -261.5h528q-2 197 -52 261t-208 64zM766 477h-326q-90 0 -131 -34.5t-41 -118.5q0 -98 51.5 -132t182.5 -34q197 0 307 51q-43 92 -43 268z" glyph-name="aeacute" horiz-adv-x="1771" unicode="ǽ"/><glyph d="M864 1964h183q20 0 20 -20v-15q0 -14 -10 -24l-291 -256q-14 -12 -29 0l-41 26q-16 12 -6 29l150 248q6 12 24 12zM1366 772q0 -236 -26.5 -379t-99.5 -237.5t-189.5 -130t-309.5 -35.5q-272 0 -401 78l-61 -84q-18 -29 -41 -7l-70 48q-25 14 -8 41l71 100 q-115 168 -114 606q0 461 127 625t497 164q276 0 408 -84l53 73q20 29 43 9l70 -48q25 -16 6 -43l-66 -94q111 -164 111 -602zM741 1378q-135 0 -215 -26.5t-126 -102t-60 -183.5t-14 -294q0 -287 45 -410l661 945q-88 71 -291 71zM1157 772q0 291 -41 404l-659 -938 q88 -66 284 -66q260 0 338 120t78 480z" glyph-name="Oslashacute" horiz-adv-x="1482" unicode="Ǿ"/><glyph d="M678 1554h182q20 0 21 -20v-14q0 -14 -11 -25l-290 -256q-14 -12 -29 0l-41 27q-16 12 -6 28l149 248q7 12 25 12zM1059 559q0 -180 -17.5 -283.5t-73 -171t-143.5 -91t-241 -23.5q-199 0 -295 45l-39 -55q-18 -29 -41 -7l-70 47q-27 16 -8 41l47 68q-72 115 -72 430 q0 180 18.5 283.5t73 172t143.5 92t243 23.5q176 0 272 -34l33 45q20 29 43 8l69 -47q25 -16 7 -43l-35 -49q86 -109 86 -451zM584 958q-182 0 -231.5 -75.5t-49.5 -323.5q0 -164 14 -231l428 608q-57 22 -161 22zM840 821l-441 -626q57 -33 185 -33q180 0 229 75.5 t49 321.5q1 190 -22 262z" glyph-name="oslashacute" horiz-adv-x="1165" unicode="ǿ"/><glyph d="M649 1561q150 0 398 -31q29 -2 28 -27v-94q0 -31 -26 -31h-461q-268 0 -269 -182v-35q0 -80 32 -126t122 -83l447 -184q133 -55 184 -140t51 -216v-66q0 -90 -29.5 -155.5t-75.5 -104.5t-120 -60.5t-146.5 -28.5t-169.5 -7q-258 0 -499 28q-25 6 -25 33v92q0 29 29 29 h561q137 0 201.5 42t64.5 138v39q0 84 -32.5 134t-122.5 87l-486 197q-111 43 -151.5 130t-40.5 218v49q0 90 28.5 155.5t74.5 103.5t119 59.5t144.5 29t169.5 7.5zM543 -80h155q20 0 21 -20v-15q0 -14 -10 -24l-267 -252q-12 -10 -28 0l-37 26q-16 12 -6 29l147 244 q7 12 25 12z" glyph-name="Scommaaccent" horiz-adv-x="1236" unicode="Ș"/><glyph d="M520 1130q160 0 314 -18q29 -4 28 -33v-88q0 -31 -31 -30h-380q-150 0 -150 -107v-27q0 -96 127 -143l272 -109q127 -49 166 -117.5t39 -170.5v-23q0 -164 -95 -219t-318 -55q-217 0 -375 18q-31 2 -31 31v90q0 31 31 31h379q125 0 170 20.5t45 85.5v25q0 47 -26 77.5 t-93 59.5l-291 111q-197 76 -197 292v43q0 82 33 135.5t95.5 78t128 33.5t159.5 9zM420 -80h158q20 0 20 -20v-15q0 -14 -10 -24l-266 -252q-12 -10 -29 0l-39 26q-16 12 -6 29l147 244q7 12 25 12z" glyph-name="scommaaccent" horiz-adv-x="989" unicode="ș"/><glyph d="M59 1550h1137q31 0 31 -30v-121q0 -31 -31 -31h-465v-1337q0 -31 -31 -31h-145q-31 0 -31 31v1337h-465q-31 0 -30 31v121q-1 30 30 30zM545 -80h157q20 0 21 -20v-15q0 -14 -10 -24l-269 -252q-10 -8 -28 0l-37 26q-16 12 -6 29l147 244q7 12 25 12z" glyph-name="uni021A" horiz-adv-x="1255" unicode="Ț"/><glyph d="M223 1397l135 33q35 10 35 -27v-285h215q33 0 33 -31v-96q0 -31 -33 -30h-215v-689q0 -68 25.5 -89t107.5 -21h99q33 0 32 -29v-98q0 -27 -30 -33q-49 -12 -115 -12q-59 0 -91 2t-82 14t-75.5 34.5t-46 69t-20.5 113.5v738h-115q-31 0 -31 30v96q0 31 31 31h115v246 q-1 27 26 33zM356 -80h158q20 0 21 -20v-15q0 -14 -11 -24l-268 -252q-10 -8 -29 0l-37 26q-16 12 -6 29l148 244q6 12 24 12z" glyph-name="uni021B" horiz-adv-x="700" unicode="ț"/><glyph d="M465 1554h88q25 0 35 -14l180 -248q14 -14 -6 -28l-37 -25q-14 -12 -29 0l-186 150l-186 -150q-16 -10 -31 0l-37 25q-18 14 -6 28l182 248q10 14 33 14z" glyph-name="circumflex" horiz-adv-x="1019" unicode="ˆ"/><glyph d="M725 1548l37 -24q20 -14 6 -29l-180 -248q-10 -14 -35 -14h-88q-23 0 -33 14l-182 248q-12 14 6 29l37 24q14 10 31 0l186 -149l186 149q15 12 29 0z" glyph-name="caron" horiz-adv-x="1019" unicode="ˇ"/><glyph d="M770 1536h66q35 0 28 -33q-20 -141 -85.5 -193.5t-221.5 -52.5t-221.5 52.5t-87.5 193.5q-6 33 28 33h66q27 0 35 -25q29 -66 66.5 -90t113.5 -24t113 24.5t65 89.5q8 25 35 25z" glyph-name="breve" horiz-adv-x="1112" unicode="˘"/><glyph d="M373 1516q127 0 127 -123q0 -125 -127 -125t-127 125q0 123 127 123z" glyph-name="dotaccent" horiz-adv-x="745" unicode="˙"/><glyph d="M463 1657q217 0 217 -209t-217 -209t-217 209t217 209zM463 1575q-127 0 -127 -127t127 -127t127 127t-127 127z" glyph-name="ring" horiz-adv-x="925" unicode="˚"/><glyph d="M311 31h62q37 0 26 -35q-18 -82 -18 -119q0 -41 19.5 -52t76.5 -11h74q31 0 31 -31v-70q0 -29 -25 -37q-39 -16 -123 -16q-98 0 -143 34t-45 122q0 74 30 188q8 27 35 27z" glyph-name="ogonek" horiz-adv-x="823" unicode="˛"/><glyph d="M440 1516q49 0 147.5 -41t131.5 -41q37 0 56.5 14t37.5 55q12 31 39 23l47 -13q29 -10 23 -47q-37 -117 -76 -156.5t-117 -39.5q-49 0 -146.5 41t-129.5 41q-39 0 -57.5 -14.5t-37.5 -55.5q-14 -29 -39 -20l-47 12q-31 10 -22 45q37 119 74.5 158t115.5 39z" glyph-name="tilde" horiz-adv-x="1167" unicode="˜"/><glyph d="M424 1554h164q20 0 20 -20v-14q0 -14 -10 -25l-281 -254q-14 -12 -28 0l-33 25q-16 12 -6 28l149 248q7 12 25 12zM786 1554h164q20 0 21 -20v-14q0 -14 -10 -25l-281 -254q-14 -12 -29 0l-33 25q-16 12 -6 28l150 248q6 12 24 12z" glyph-name="hungarumlaut" horiz-adv-x="1216" unicode="˝"/><glyph d="M424 -80h158q20 0 20 -20v-15q0 -14 -10 -24l-266 -252q-12 -10 -29 0l-39 26q-16 12 -6 29l147 244q7 12 25 12z" glyph-name="uni0326" horiz-adv-x="0" unicode="̦"/><glyph d="M80 1120h1161q31 0 31 -30v-113q0 -31 -31 -31h-170v-915q0 -31 -31 -31h-120q-31 0 -31 31v915h-453q0 -457 -82 -915q-2 -31 -30 -31h-121q-37 0 -31 31q80 463 80 915h-172q-31 0 -31 31v113q0 30 31 30z" glyph-name="pi" horiz-adv-x="1314" unicode="π"/><glyph d="M477 1923q123 0 123 -121q0 -125 -123 -125q-127 0 -127 125q0 121 127 121zM858 1923q125 0 125 -121q0 -125 -125 -125t-125 125q0 121 125 121zM199 1550h958q31 0 31 -30v-121q0 -31 -31 -31h-782v-526h712q31 0 31 -31v-119q0 -31 -31 -30h-712v-480h782 q31 0 31 -30v-121q0 -31 -31 -31h-958q-31 0 -31 31v1489q0 30 31 30z" glyph-name="afii10023" horiz-adv-x="1288" unicode="Ё"/><glyph d="M690 1561q158 0 206 -40t91 -200l350 -1288q4 -20 -1 -26.5t-23 -6.5h-160q-12 0 -17.5 6t-9.5 27l-127 452h-616l-129 -452q-4 -20 -9 -26.5t-18 -6.5h-159q-18 0 -23.5 6t-1.5 27l363 1288q45 158 93 199t191 41zM690 1380q-43 0 -56 -17t-32 -91l-168 -606h518 l-159 606q-20 74 -36 91t-67 17z" glyph-name="afii10017" horiz-adv-x="1388" unicode="А"/><glyph d="M375 920h413q260 0 385 -91.5t125 -334.5v-84q0 -244 -123.5 -332t-386.5 -88q-387 0 -589 14q-18 2 -24.5 7t-6.5 24v1485q0 31 31 30h993q31 0 31 -30v-121q0 -31 -31 -31h-817v-448zM1092 418v63q0 152 -74 205t-221 53h-422v-567h418q162 0 230.5 50.5t68.5 195.5z " glyph-name="afii10018" horiz-adv-x="1388" unicode="Б"/><glyph d="M725 1561q274 0 404.5 -94.5t130.5 -336.5q0 -303 -181 -346v-6q219 -39 219 -368q0 -244 -123.5 -332t-386.5 -88q-387 0 -589 14q-18 2 -24.5 7t-6.5 24v1481q0 18 6 23t25 7q202 15 526 15zM707 1378h-332v-522h252q109 0 165 3t115.5 16.5t85 40t42 73.5t16.5 121 q0 162 -79 215t-265 53zM797 690h-422v-518h418q162 0 230.5 50t68.5 196q0 162 -72.5 217t-222.5 55z" glyph-name="afii10019" horiz-adv-x="1404" unicode="В"/><glyph d="M344 0h-145q-31 0 -31 31v1489q0 31 31 30h862q31 0 31 -30v-121q0 -31 -31 -31h-686v-1337q0 -31 -31 -31z" glyph-name="afii10020" horiz-adv-x="1116" unicode="Г"/><glyph d="M473 1550h721q31 0 31 -30v-1338h80q31 0 30 -30v-443q0 -31 -30 -31h-136q-31 0 -30 31v291h-883v-291q0 -31 -31 -31h-135q-31 0 -31 31v443q0 31 31 30h88q66 18 93.5 79t41.5 183l129 1074q2 32 31 32zM1016 1368h-383l-119 -989q-14 -119 -49 -197h551v1186z" glyph-name="afii10021" horiz-adv-x="1427" unicode="Д"/><glyph d="M199 1550h958q31 0 31 -30v-121q0 -31 -31 -31h-782v-526h712q31 0 31 -31v-119q0 -31 -31 -30h-712v-480h782q31 0 31 -30v-121q0 -31 -31 -31h-958q-31 0 -31 31v1489q0 30 31 30z" glyph-name="afii10022" horiz-adv-x="1288" unicode="Е"/><glyph d="M1284 831l619 -776q18 -18 11 -36.5t-46 -18.5h-158q-33 0 -45 23l-598 761v-753q0 -31 -31 -31h-145q-31 0 -31 31v753l-598 -761q-12 -23 -45 -23h-158q-39 0 -46 18.5t12 36.5l618 776l-575 680q-35 39 18 39h166q27 0 43 -20l565 -653v643q0 31 31 30h145 q31 0 31 -30v-643l563 653q16 20 43 20h168q53 0 19 -39z" glyph-name="afii10024" horiz-adv-x="1927" unicode="Ж"/><glyph d="M459 1561q379 0 508 -79t129 -329v-41q0 -279 -172 -336q172 -61 172 -334v-34q0 -252 -128 -335t-509 -83q-172 0 -336 16q-33 6 -33 17v131q0 18 31 18h348q260 0 340 49t80 199v10q-2 145 -51.5 201.5t-210.5 56.5h-430q-25 0 -25 23v127q0 25 25 24h428 q162 0 213 55.5t51 204.5v27q0 145 -85 187t-351 42h-332q-31 0 -31 19v125q0 16 33 20q154 19 336 19z" glyph-name="afii10025" horiz-adv-x="1230" unicode="З"/><glyph d="M199 1550h145q31 0 31 -32v-1156l749 1129q25 37 44.5 47t72.5 12h139q31 0 31 -32v-1487q0 -31 -31 -31h-145q-31 0 -31 31v1224l-807 -1218q-27 -37 -73 -37h-125q-31 0 -31 31v1487q0 32 31 32z" glyph-name="afii10026" horiz-adv-x="1579" unicode="И"/><glyph d="M993 1946h68q35 0 29 -33q-23 -141 -88.5 -193.5t-221 -52.5t-221 52.5t-88.5 193.5q-6 33 29 33h65q27 0 35 -25q29 -66 67 -90.5t113.5 -24.5t112.5 24.5t65 90.5q8 25 35 25zM199 1550h145q31 0 31 -32v-1156l749 1129q25 37 44.5 47t72.5 12h139q31 0 31 -32v-1487 q0 -31 -31 -31h-145q-31 0 -31 31v1224l-807 -1218q-27 -37 -73 -37h-125q-31 0 -31 31v1487q0 32 31 32z" glyph-name="afii10027" horiz-adv-x="1579" unicode="Й"/><glyph d="M1020 1550h166q53 0 18 -39l-608 -680l653 -776q16 -18 10 -36.5t-45 -18.5h-159q-33 0 -45 23l-633 761v-753q0 -31 -31 -31h-147q-31 0 -31 31v1489q0 31 31 30h147q31 0 31 -30v-643l600 653q16 20 43 20z" glyph-name="afii10028" horiz-adv-x="1271" unicode="К"/><glyph d="M510 1550h721q31 0 31 -30v-1489q0 -31 -31 -31h-148q-31 0 -30 31v1337h-381l-121 -999q-14 -123 -50 -204t-88.5 -117t-97.5 -47t-104 -11q-68 0 -119 12q-33 6 -33 37v102q0 31 31 31h37q123 0 165 56.5t58 207.5l129 1082q2 32 31 32z" glyph-name="afii10029" horiz-adv-x="1429" unicode="Л"/><glyph d="M1499 1550h160q27 0 31 -30l133 -1489q4 -31 -31 -31h-147q-27 0 -31 31l-94 1163l-443 -1118q-8 -25 -37 -25h-145q-29 0 -39 25l-442 1118l-95 -1163q-4 -31 -30 -31h-146q-33 0 -30 31l131 1487q4 33 30 32h160q35 0 50.5 -16t33.5 -64l449 -1163l448 1163 q18 47 33.5 63.5t50.5 16.5z" glyph-name="afii10030" horiz-adv-x="1935" unicode="М"/><glyph d="M1239 1550h145q31 0 31 -32v-1487q0 -31 -31 -31h-145q-31 0 -31 31v665h-833v-665q0 -31 -31 -31h-145q-31 0 -31 31v1487q0 33 31 32h145q31 0 31 -32v-639h833v639q0 32 31 32z" glyph-name="afii10031" horiz-adv-x="1583" unicode="Н"/><glyph d="M741.5 1561q370.5 0 497.5 -164t127 -625q0 -236 -26.5 -379t-99.5 -237.5t-189.5 -130t-309 -35.5t-309.5 35.5t-189.5 130t-99 238t-26.5 378.5q0 461 127 625t497.5 164zM741.5 1378q-135.5 0 -215.5 -26.5t-126 -102t-60 -183.5t-14 -294q0 -360 77.5 -480 t337.5 -120t338 120t78 480q0 186 -14.5 294t-60.5 183.5t-125.5 102t-215 26.5z" glyph-name="afii10032" horiz-adv-x="1482" unicode="О"/><glyph d="M199 1550h1009q31 0 31 -30v-1489q0 -31 -31 -31h-147q-31 0 -31 31v1337h-655v-1337q0 -31 -31 -31h-145q-31 0 -31 31v1489q0 30 31 30z" glyph-name="afii10033" horiz-adv-x="1406" unicode="П"/><glyph d="M635 1561q184 0 292.5 -18.5t185.5 -74t106.5 -151.5t29.5 -256q0 -109 -12 -185.5t-45 -131t-76 -86t-118.5 -49t-156.5 -23.5t-206 -6h-260v-549q0 -18 -6.5 -24.5t-24.5 -6.5h-145q-18 0 -24.5 6t-6.5 25v1485q0 18 6 23t25 7q203 15 436 15zM616 1378h-241v-622h241 q84 0 131.5 2t99.5 7t78.5 18.5t53.5 34t38 54t17 77.5t6 108q0 207 -81 264t-343 57z" glyph-name="afii10034" horiz-adv-x="1327" unicode="Р"/><glyph d="M739 1561q236 0 381 -21q33 -4 33 -35v-96q0 -31 -31 -31h-383q-260 0 -337.5 -120.5t-77.5 -483.5q0 -360 77.5 -481t337.5 -121h383q31 0 31 -31v-96q0 -31 -33 -37q-131 -18 -381 -18q-193 0 -309.5 35.5t-188 130t-98 239t-26.5 380t26.5 379.5t98 239.5t189.5 131.5 t308 36z" glyph-name="afii10035" horiz-adv-x="1226" unicode="С"/><glyph d="M59 1550h1137q31 0 31 -30v-121q0 -31 -31 -31h-465v-1337q0 -31 -31 -31h-145q-31 0 -31 31v1337h-465q-31 0 -30 31v121q-1 30 30 30z" glyph-name="afii10036" horiz-adv-x="1255" unicode="Т"/><glyph d="M1036 1550h158q39 0 25 -34l-426 -1121q-92 -244 -178.5 -324.5t-223.5 -80.5q-92 0 -149 14q-29 8 -29 39v98q0 31 31 31h108q66 0 111 43t94 154l-545 1144q-16 37 25 37h164q27 0 35 -22l423 -903l340 901q12 24 37 24z" glyph-name="afii10037" horiz-adv-x="1224" unicode="У"/><glyph d="M797 1567h145q31 0 31 -31v-152q397 -10 538.5 -130.5t141.5 -469.5q0 -180 -31 -290.5t-114 -180t-206.5 -97.5t-328.5 -32v-153q0 -31 -31 -31h-145q-31 0 -31 31v153q-203 4 -328 32t-209 96.5t-115.5 180t-31.5 291.5q0 346 143.5 468t540.5 132v152q0 31 31 31z M766 367v833q-287 -8 -382 -90t-95 -326q0 -127 20.5 -202.5t76.5 -123.5t143 -67.5t237 -23.5zM973 1200v-833q287 10 380 91t93 326q0 244 -93 326t-380 90z" glyph-name="afii10038" horiz-adv-x="1734" unicode="Ф"/><glyph d="M1067 1550h158q51 0 22 -45l-467 -698l514 -772q31 -45 -22 -45h-158q-35 0 -55 33l-402 606l-393 -596q-25 -33 -55 -33h-160q-53 0 -22 45l510 762l-469 698q-29 45 22 45h158q35 0 55 -32l354 -535l355 535q20 32 55 32z" glyph-name="afii10039" horiz-adv-x="1318" unicode="Х"/><glyph d="M1260 182h135q31 0 30 -30v-443q0 -31 -30 -31h-135q-31 0 -31 31v291h-1030q-31 0 -31 31v1489q0 31 31 30h145q31 0 31 -30v-1338h676v1338q0 31 30 30h148q31 0 31 -30v-1338z" glyph-name="afii10040" horiz-adv-x="1474" unicode="Ц"/><glyph d="M975 1550h147q31 0 31 -32v-1487q0 -31 -31 -31h-147q-31 0 -31 31v544h-221q-125 0 -206 6.5t-156.5 24t-118.5 49t-76 86t-45 131t-12 185.5v463q0 31 30 30h148q31 0 30 -30v-461q0 -63 6.5 -107.5t17.5 -78t38 -54t52.5 -34t77.5 -18.5t100 -7t130 -2h205v760 q0 32 31 32z" glyph-name="afii10041" horiz-adv-x="1320" unicode="Ч"/><glyph d="M1636 1550h146q31 0 30 -30v-1489q0 -31 -30 -31h-1583q-31 0 -31 31v1489q0 31 31 30h147q31 0 31 -30v-1338h510v1338q0 31 31 30h147q31 0 31 -30v-1338h510v1338q-1 30 30 30z" glyph-name="afii10042" horiz-adv-x="1980" unicode="Ш"/><glyph d="M1812 182h136q31 0 30 -30v-443q0 -31 -30 -31h-133q-31 0 -31 31v291h-1585q-31 0 -31 31v1489q0 31 31 30h147q31 0 31 -30v-1338h510v1338q0 31 31 30h147q31 0 31 -30v-1338h510v1338q0 31 30 30h146q31 0 30 -30v-1338z" glyph-name="afii10043" horiz-adv-x="2027" unicode="Щ"/><glyph d="M451 920h413q260 0 385 -91.5t125 -334.5v-84q0 -244 -124 -332t-386 -88q-389 0 -590 14q-18 2 -24 7t-6 24v1333h-174q-31 0 -31 31v121q0 31 31 30h350q31 0 31 -30v-600zM1165 418v63q0 154 -72.5 206t-220.5 52h-421v-567h417q160 0 228.5 50.5t68.5 195.5z" glyph-name="afii10044" horiz-adv-x="1447" unicode="Ъ"/><glyph d="M377 920h411q260 0 385 -91.5t125 -334.5v-84q0 -244 -123.5 -332t-386.5 -88q-387 0 -589 14q-18 2 -24.5 7t-6.5 24v1485q0 31 31 30h147q31 0 31 -30v-600zM1518 1550h145q31 0 31 -32v-1487q0 -31 -31 -31h-145q-31 0 -31 31v1487q0 32 31 32zM1092 418v63 q0 152 -74 205t-221 53h-420v-567h416q162 0 230.5 50.5t68.5 195.5z" glyph-name="afii10045" horiz-adv-x="1861" unicode="Ы"/><glyph d="M375 920h413q260 0 385 -91.5t125 -334.5v-84q0 -244 -123.5 -332t-386.5 -88q-387 0 -589 14q-18 2 -24.5 7t-6.5 24v1485q0 31 31 30h145q31 0 31 -30v-600zM1092 418v63q0 152 -74 205t-221 53h-422v-567h418q162 0 230.5 50.5t68.5 195.5z" glyph-name="afii10046" horiz-adv-x="1372" unicode="Ь"/><glyph d="M537 1561q190 0 308 -36t190.5 -131.5t99 -239.5t26.5 -379.5t-26.5 -380t-99 -239t-189.5 -130t-309 -35.5q-301 0 -433 18q-33 6 -32 37v96q0 31 30 31h435q244 0 325.5 105.5t87.5 408.5h-600q-31 0 -31 31v117q0 31 31 30h600q-6 303 -88 408.5t-325 105.5h-435 q-31 0 -30 31v96q0 31 32 35q146 21 433 21z" glyph-name="afii10047" horiz-adv-x="1277" unicode="Э"/><glyph d="M1321 1561q371 0 498 -164t127 -625q0 -236 -27 -379t-99.5 -237.5t-189.5 -130t-309 -35.5q-358 0 -486 147.5t-139 558.5h-321v-665q0 -31 -31 -31h-145q-31 0 -31 31v1487q0 33 31 32h145q31 0 31 -32v-639h323q10 393 140.5 537.5t482.5 144.5zM1321 1378 q-135 0 -215 -26.5t-126 -102t-60.5 -183.5t-14.5 -294q0 -360 78 -480t338 -120t338 120t78 480q0 186 -14.5 294t-60.5 183.5t-126 102t-215 26.5z" glyph-name="afii10048" horiz-adv-x="2062" unicode="Ю"/><glyph d="M719 1561q233 0 436 -15q18 -2 24.5 -7t6.5 -23v-1485q0 -18 -6 -24.5t-25 -6.5h-147q-18 0 -24.5 6t-6.5 25v549h-309l-336 -535q-16 -25 -32.5 -35t-49.5 -10h-131q-23 0 -30 12.5t5 28.5l344 551q-186 25 -260 126t-74 343q0 160 30 256t106.5 151.5t185.5 74 t293 18.5zM977 1378h-242q-260 0 -341 -57t-81 -264q0 -63 6.5 -107.5t17.5 -78t37.5 -54t52.5 -34t78 -18.5t100 -7t130 -2h242v622z" glyph-name="afii10049" horiz-adv-x="1353" unicode="Я"/><glyph d="M500 1130q242 0 352.5 -76.5t110.5 -244.5v-717q0 -43 -37 -57q-125 -45 -455 -45q-215 0 -306 64.5t-91 252.5v27q0 166 90 233.5t274 67.5l330 2v137q0 96 -62.5 140t-205.5 44h-305q-18 0 -24.5 6.5t-6.5 24.5v84q0 16 6 22.5t23 10.5q143 24 307 24zM768 477h-319 q-119 0 -149 -28.5t-30 -126.5v-13q0 -98 48.5 -123.5t164.5 -25.5q180 0 285 26v291z" glyph-name="afii10065" horiz-adv-x="1095" unicode="а"/><glyph d="M944 1561h70q27 0 26 -56q0 -90 -53 -127t-176 -61q-39 -8 -107.5 -18.5t-100.5 -16.5t-81 -19.5t-72.5 -31t-52 -47t-43 -72.5t-20.5 -102q47 66 109.5 88t168.5 22q287 0 378 -111.5t91 -449.5q0 -180 -17 -283.5t-72.5 -171t-143.5 -91t-242 -23.5q-295 0 -387 111.5 t-90 457.5v168q0 156 11.5 263.5t47 187t76.5 127t124 83t162 55t218 44.5q96 18 127 43q4 4 10 14t13.5 13.5t25.5 3.5zM606 950q-182 0 -231 -74.5t-49 -316.5q0 -246 49 -321.5t231 -75.5q180 0 229.5 75.5t49.5 321.5q0 242 -49.5 316.5t-229.5 74.5z" glyph-name="afii10066" horiz-adv-x="1185" unicode="б"/><glyph d="M590 1130q225 0 327.5 -70.5t102.5 -244.5q0 -115 -37 -175t-121 -77v-4q102 -12 144.5 -77.5t42.5 -184.5q0 -172 -99.5 -239.5t-314.5 -67.5q-340 0 -467 14q-27 2 -27 27v1059q0 25 27 26q178 14 422 14zM571 952h-225v-319h178q170 0 231.5 27.5t61.5 127.5 q0 94 -57.5 129t-188.5 35zM633 483h-287v-315h285q117 0 167 31.5t50 119.5q0 96 -53 130t-162 34z" glyph-name="afii10067" horiz-adv-x="1146" unicode="в"/><glyph d="M166 1120h692q25 0 25 -24v-135q0 -23 -25 -23h-508v-915q0 -23 -26 -23h-158q-25 0 -25 23v1073q0 24 25 24z" glyph-name="afii10068" horiz-adv-x="925" unicode="г"/><glyph d="M369 1120h598q27 0 26 -24v-918h70q25 0 24 -22v-353q0 -23 -24 -22h-139q-25 0 -25 22v197h-655v-197q0 -23 -25 -22h-139q-25 0 -25 22v355q0 20 25 20h67q51 16 73 63.5t34 137.5l90 717q5 24 25 24zM788 942h-256l-81 -625q-14 -90 -35 -139h372v764z" glyph-name="afii10069" horiz-adv-x="1173" unicode="д"/><glyph d="M573 1130q274 0 363.5 -107.5t93.5 -432.5v-60q0 -33 -14.5 -45t-61.5 -12h-651q6 -188 58.5 -249.5t216.5 -61.5h335q31 0 31 -31v-90q0 -29 -29 -33q-135 -18 -342 -18q-287 0 -377 111.5t-90 457.5t90 458.5t377 112.5zM573 958q-164 0 -215 -64.5t-55 -260.5h531 q-4 199 -53.5 262t-207.5 63z" glyph-name="afii10070" horiz-adv-x="1114" unicode="е"/><glyph d="M1149 602l483 -565q12 -14 7 -25.5t-25 -11.5h-182q-23 0 -37 16l-463 541v-526q0 -31 -31 -31h-143q-31 0 -31 31v526l-463 -541q-14 -16 -37 -16h-182q-20 0 -25.5 11.5t7.5 25.5l483 565l-444 488q-10 12 -3 21t27 9h168q25 0 33 -14l436 -471v455q0 31 31 30h143 q31 0 31 -30v-455l436 471q8 14 33 14h168q20 0 27.5 -9t-3.5 -21z" glyph-name="afii10072" horiz-adv-x="1658" unicode="ж"/><glyph d="M416 1130q276 0 383.5 -57t107.5 -227v-62q0 -188 -147 -225q147 -35 147 -223v-55q0 -174 -106.5 -232.5t-384.5 -58.5q-166 0 -299 20q-29 6 -29 31v106q0 23 25 23h299q178 0 233 28.5t55 116.5v13q0 84 -36.5 116.5t-153.5 32.5h-328q-23 0 -22 27v110q0 25 22 25 h326q117 0 154.5 33t37.5 119v22q0 86 -58 111.5t-241 25.5h-288q-25 0 -25 21v108q0 25 29 31q137 20 299 20z" glyph-name="afii10073" horiz-adv-x="1021" unicode="з"/><glyph d="M989 1120h125q25 0 25 -22v-1075q0 -23 -25 -23h-156q-25 0 -24 23v768l-586 -758q-25 -33 -67 -33h-115q-25 0 -25 23v1075q0 23 25 22h156q25 0 24 -22v-738l549 713q20 29 37.5 38t56.5 9z" glyph-name="afii10074" horiz-adv-x="1280" unicode="и"/><glyph d="M864 1536h66q35 0 28 -33q-23 -141 -88 -193.5t-220.5 -52.5t-220 52.5t-87.5 193.5q-6 33 29 33h65q27 0 35 -25q27 -66 64.5 -90t113.5 -24t114 24.5t66 89.5q8 25 35 25zM989 1120h125q25 0 25 -22v-1075q0 -23 -25 -23h-156q-25 0 -24 23v768l-586 -758 q-25 -33 -67 -33h-115q-25 0 -25 23v1075q0 23 25 22h156q25 0 24 -22v-738l549 713q20 29 37.5 38t56.5 9z" glyph-name="afii10075" horiz-adv-x="1280" unicode="й"/><glyph d="M819 1120h166q20 0 27.5 -9t-2.5 -21l-445 -488l484 -565q12 -14 7 -25.5t-26 -11.5h-182q-23 0 -37 16l-461 541v-526q0 -31 -31 -31h-147q-31 0 -31 31v1059q0 31 31 30h147q31 0 31 -30v-455l434 471q12 14 35 14z" glyph-name="afii10076" horiz-adv-x="1067" unicode="к"/><glyph d="M391 1120h606q25 0 25 -22v-1075q0 -23 -25 -23h-157q-23 0 -23 23v917h-262l-82 -649q-37 -299 -285 -299q-49 0 -104 10q-31 8 -31 37v113q0 20 25 20h31q90 0 122.5 40t44.5 138l93 748q4 22 22 22z" glyph-name="afii10077" horiz-adv-x="1163" unicode="л"/><glyph d="M1198 1120h150q20 0 24 -20l109 -1077q2 -23 -23 -23h-160q-23 0 -24 23l-70 747l-317 -715q-8 -18 -33 -18h-131q-23 0 -33 18l-313 715l-72 -747q-2 -23 -24 -23h-160q-27 0 -23 23l109 1075q4 23 24 22h150q33 0 48 -12t30 -47l329 -756l332 758q14 35 29.5 46 t48.5 11z" glyph-name="afii10078" horiz-adv-x="1579" unicode="м"/><glyph d="M967 1120h145q31 0 31 -30v-1059q0 -31 -31 -31h-145q-31 0 -31 31v438h-586v-438q0 -31 -31 -31h-147q-31 0 -31 31v1059q0 31 31 30h147q31 0 31 -30v-439h586v439q0 30 31 30z" glyph-name="afii10079" horiz-adv-x="1284" unicode="н"/><glyph d="M583.5 1130q153.5 0 242.5 -23.5t143.5 -92t72 -172t17.5 -283.5t-17.5 -283.5t-73 -171t-143.5 -91t-241.5 -23.5t-242.5 23.5t-143.5 91t-73 171t-18.5 283.5t18.5 283.5t73 172t143.5 92t242.5 23.5zM584 958q-182 0 -231.5 -75.5t-49.5 -323.5q0 -246 49 -321.5 t232 -75.5q180 0 229 75.5t49 321.5q0 248 -49 323.5t-229 75.5z" glyph-name="afii10080" horiz-adv-x="1165" unicode="о"/><glyph d="M172 1120h807q31 0 31 -30v-1059q0 -31 -31 -31h-145q-31 0 -31 31v907h-453v-907q0 -31 -31 -31h-147q-31 0 -31 31v1059q0 30 31 30z" glyph-name="afii10081" horiz-adv-x="1150" unicode="п"/><glyph d="M596 1130q293 0 385 -112.5t92 -456.5q0 -346 -90 -458.5t-377 -112.5q-164 0 -270 12v-377q0 -31 -31 -31h-135q-31 0 -31 31v1436q0 29 33 35q219 34 424 34zM598 958h-262v-780q131 -16 258 -16q184 0 234.5 74.5t50.5 322.5t-49.5 323.5t-231.5 75.5z" glyph-name="afii10082" horiz-adv-x="1179" unicode="р"/><glyph d="M586 1130q174 0 309 -18q29 -4 29 -35v-88q0 -31 -31 -31h-307q-182 0 -231.5 -75.5t-49.5 -323.5q0 -246 49 -321.5t232 -75.5h307q31 0 31 -31v-88q0 -31 -29 -35q-135 -18 -309 -18q-154 0 -243 23.5t-144.5 91t-72.5 171t-17 283.5q0 143 12 235.5t40.5 162t85 105.5 t136.5 52t203 16z" glyph-name="afii10083" horiz-adv-x="995" unicode="с"/><glyph d="M72 1120h891q31 0 30 -30v-121q0 -31 -30 -31h-342v-907q0 -31 -31 -31h-148q-31 0 -30 31v907h-340q-31 0 -31 31v121q0 30 31 30z" glyph-name="afii10084" horiz-adv-x="1034" unicode="т"/><glyph d="M901 1120h135q31 0 31 -30v-988q0 -158 -18.5 -251t-71.5 -156.5t-143.5 -87t-239.5 -23.5q-172 0 -307 19q-29 4 -29 32v89q0 31 29 30h303q170 0 225 49.5t55 190.5v12q-100 -16 -270 -16q-287 0 -378 111.5t-91 447.5v541q0 31 31 30h135q31 0 31 -30v-529 q0 -248 50 -323.5t234 -75.5q145 0 258 14v914q0 30 31 30z" glyph-name="afii10085" horiz-adv-x="1208" unicode="у"/><glyph d="M1092 1130q190 0 276 -130t86 -441q0 -309 -86 -439t-276 -130q-152 0 -215 55v-420q0 -31 -31 -31h-135q-31 0 -31 31v420q-61 -55 -213 -55q-190 0 -276.5 130t-86.5 439q0 311 86 441t277 130q145 0 213 -55v445q0 31 31 30h135q31 0 31 -30v-445q68 55 215 55z M680 205v710q-49 41 -176 41q-125 0 -164 -84t-39 -313t39 -313t164 -84t176 43zM1055 162q125 0 163.5 84t38.5 313t-38.5 313t-163.5 84q-127 0 -176 -41v-710q51 -43 176 -43z" glyph-name="afii10086" horiz-adv-x="1558" unicode="ф"/><glyph d="M825 1120h166q16 0 20.5 -11t-5.5 -26l-351 -489l396 -557q10 -16 5 -26.5t-22 -10.5h-166q-20 0 -28 18l-297 420l-301 -420q-8 -18 -29 -18h-166q-16 0 -21.5 10t5.5 27l395 557l-350 489q-10 14 -6 25.5t20 11.5h166q20 0 33 -18l254 -352l250 352q12 18 32 18z" glyph-name="afii10087" horiz-adv-x="1081" unicode="х"/><glyph d="M1022 182h98q31 0 31 -30v-340q0 -31 -31 -31h-135q-31 0 -31 31v188h-782q-31 0 -31 31v1059q0 31 31 30h145q31 0 31 -30v-908h465v908q0 31 31 30h147q31 0 31 -30v-908z" glyph-name="afii10088" horiz-adv-x="1210" unicode="ц"/><glyph d="M754 1120h147q31 0 31 -30v-1059q0 -31 -31 -31h-147q-31 0 -31 31v362h-61q-125 0 -204 5t-149.5 23.5t-107.5 50.5t-66 87t-38 130t-9 185v216q0 31 31 30h147q31 0 31 -30v-211q0 -78 4 -124t21.5 -83t38 -53.5t70.5 -27.5t100.5 -13.5t146.5 -2.5h45v515q0 30 31 30z " glyph-name="afii10089" horiz-adv-x="1073" unicode="ч"/><glyph d="M1282 1120h148q31 0 30 -30v-1059q0 -31 -30 -31h-1258q-31 0 -31 31v1059q0 31 31 30h147q31 0 31 -30v-910h348v910q0 31 31 30h143q31 0 31 -30v-910h348v910q0 30 31 30z" glyph-name="afii10090" horiz-adv-x="1601" unicode="ш"/><glyph d="M1458 182h98q31 0 31 -30v-340q0 -31 -31 -31h-135q-31 0 -30 31v188h-1219q-31 0 -31 31v1059q0 31 31 30h147q31 0 31 -30v-908h346v908q0 31 31 30h147q31 0 31 -30v-908h346v908q0 31 31 30h145q31 0 31 -30v-908z" glyph-name="afii10091" horiz-adv-x="1646" unicode="щ"/><glyph d="M487 680h291q215 0 314.5 -67.5t99.5 -239.5v-76q0 -172 -99.5 -239.5t-314.5 -67.5q-346 0 -473 14q-23 2 -22 21v913h-217q-25 0 -25 23v137q0 23 25 22h397q25 0 24 -22v-418zM985 317v37q0 90 -51 122t-156 32h-291v-340h285q117 0 165 31.5t48 117.5z" glyph-name="afii10092" horiz-adv-x="1261" unicode="ъ"/><glyph d="M346 680h291q215 0 315.5 -67.5t100.5 -239.5v-76q0 -172 -100.5 -239.5t-315.5 -67.5q-346 0 -473 14q-23 2 -23 21v1073q0 23 25 22h156q25 0 24 -22v-418zM1194 1120h135q31 0 31 -30v-1059q0 -31 -31 -31h-135q-31 0 -31 31v1059q0 30 31 30zM846 317v37 q0 90 -51.5 122t-155.5 32h-293v-340h287q115 0 164 31.5t49 117.5z" glyph-name="afii10093" horiz-adv-x="1501" unicode="ы"/><glyph d="M346 680h291q215 0 315.5 -67.5t100.5 -239.5v-76q0 -172 -100.5 -239.5t-315.5 -67.5q-346 0 -473 14q-23 2 -23 27v1067q0 23 25 22h156q25 0 24 -24v-416zM846 317v37q0 90 -51.5 122t-155.5 32h-293v-340h287q115 0 164 31.5t49 117.5z" glyph-name="afii10094" horiz-adv-x="1120" unicode="ь"/><glyph d="M455 1130q295 0 397 -119.5t102 -449.5q0 -332 -101 -451.5t-398 -119.5q-211 0 -344 20q-31 2 -31 33v102q0 23 24 23h351q168 0 227 65.5t66 243.5h-455q-27 0 -27 21v125q0 20 27 20h455q-6 178 -65.5 243.5t-227.5 65.5h-351q-25 0 -24 23v100q0 29 31 35 q129 20 344 20z" glyph-name="afii10095" horiz-adv-x="1058" unicode="э"/><glyph d="M1044 1130q154 0 243 -23.5t143.5 -92t73 -172t18.5 -283.5t-18.5 -283.5t-73 -171t-143.5 -91t-243 -23.5q-276 0 -370 96t-105 383h-219v-438q0 -31 -31 -31h-147q-31 0 -31 31v1059q0 31 31 30h147q31 0 31 -30v-439h219q10 287 105.5 383t369.5 96zM1044.5 162 q182.5 0 231.5 75.5t49 321.5q0 248 -49 323.5t-231.5 75.5t-231.5 -75.5t-49 -323.5q0 -246 49 -321.5t231.5 -75.5z" glyph-name="afii10096" horiz-adv-x="1626" unicode="ю"/><glyph d="M573 1130q248 0 375 -14q25 -2 25 -22v-1071q0 -14 -5 -18.5t-20 -4.5h-157q-14 0 -19.5 4t-5.5 19v385h-199l-262 -375q-20 -33 -63 -33h-148q-39 0 -18 29l268 393q-139 23 -195.5 96.5t-56.5 237.5q0 219 103.5 296.5t377.5 77.5zM766 950h-180q-170 0 -227.5 -39 t-57.5 -159.5t54.5 -152.5t230.5 -32h180v383z" glyph-name="afii10097" horiz-adv-x="1116" unicode="я"/><glyph d="M379 1513q125 0 125 -120q0 -125 -125 -125q-127 0 -127 125q0 120 127 120zM762 1513q125 0 125 -120q0 -125 -125 -125q-127 0 -127 125q0 120 127 120zM573 1130q274 0 363.5 -107.5t93.5 -432.5v-60q0 -33 -14.5 -45t-61.5 -12h-651q6 -188 58.5 -249.5t216.5 -61.5 h335q31 0 31 -31v-90q0 -29 -29 -33q-135 -18 -342 -18q-287 0 -377 111.5t-90 457.5t90 458.5t377 112.5zM573 958q-164 0 -215 -64.5t-55 -260.5h531q-4 199 -53.5 262t-207.5 63z" glyph-name="afii10071" horiz-adv-x="1114" unicode="ё"/><glyph d="M823 1964h181q18 0 24 -12l150 -248q10 -16 -7 -29l-38 -26q-14 -12 -29 0l-291 256q-10 10 -10 24v15q0 20 20 20zM1974 1550h162q33 0 27 -32l-279 -1289q-33 -158 -79 -198.5t-187 -40.5q-156 0 -200 39t-83 200l-221 928l-221 -928q-29 -117 -52.5 -159.5t-72.5 -61 t-160 -18.5q-141 0 -187 41t-79 198l-276 1289q-6 33 24 32h162q18 0 27 -32l260 -1229q14 -70 29.5 -89.5t45.5 -19.5q41 0 56.5 18.5t31.5 90.5l293 1165q8 33 37 33h164q27 0 35 -33l293 -1165q18 -72 32.5 -90.5t55.5 -18.5q33 0 47 19.5t29 89.5l260 1229q8 32 26 32z " glyph-name="Wgrave" horiz-adv-x="2232" unicode="Ẁ"/><glyph d="M563 1554h180q18 0 25 -12l150 -248q10 -16 -7 -28l-39 -27q-14 -12 -28 0l-291 256q-10 10 -10 25v14q0 20 20 20zM1475 1120h147q16 0 21.5 -6t3.5 -27l-181 -866q-33 -152 -73.5 -191.5t-165.5 -39.5q-131 0 -166 35.5t-72 195.5l-133 574l-133 -574 q-37 -160 -72 -195.5t-166 -35.5q-123 0 -164.5 40t-74.5 191l-180 866q-2 20 3 26.5t21 6.5h150q16 0 24 -33l168 -841q12 -51 22.5 -64.5t32.5 -13.5q27 0 35 12.5t21 65.5l198 809q8 33 29 32h172q20 0 29 -32l198 -809q12 -53 20.5 -65.5t35.5 -12.5q23 0 33 13.5 t22 64.5l168 841q4 20 9.5 26.5t17.5 6.5z" glyph-name="wgrave" horiz-adv-x="1712" unicode="ẁ"/><glyph d="M1206 1964h183q20 0 20 -20v-15q0 -14 -10 -24l-291 -256q-14 -12 -29 0l-41 26q-16 12 -6 29l150 248q6 12 24 12zM1974 1550h162q33 0 27 -32l-279 -1289q-33 -158 -79 -198.5t-187 -40.5q-156 0 -200 39t-83 200l-221 928l-221 -928q-29 -117 -52.5 -159.5t-72.5 -61 t-160 -18.5q-141 0 -187 41t-79 198l-276 1289q-6 33 24 32h162q18 0 27 -32l260 -1229q14 -70 29.5 -89.5t45.5 -19.5q41 0 56.5 18.5t31.5 90.5l293 1165q8 33 37 33h164q27 0 35 -33l293 -1165q18 -72 32.5 -90.5t55.5 -18.5q33 0 47 19.5t29 89.5l260 1229q8 32 26 32z " glyph-name="Wacute" horiz-adv-x="2232" unicode="Ẃ"/><glyph d="M948 1554h182q20 0 21 -20v-14q0 -14 -10 -25l-291 -256q-14 -12 -29 0l-41 27q-16 12 -6 28l150 248q6 12 24 12zM1475 1120h147q16 0 21.5 -6t3.5 -27l-181 -866q-33 -152 -73.5 -191.5t-165.5 -39.5q-131 0 -166 35.5t-72 195.5l-133 574l-133 -574 q-37 -160 -72 -195.5t-166 -35.5q-123 0 -164.5 40t-74.5 191l-180 866q-2 20 3 26.5t21 6.5h150q16 0 24 -33l168 -841q12 -51 22.5 -64.5t32.5 -13.5q27 0 35 12.5t21 65.5l198 809q8 33 29 32h172q20 0 29 -32l198 -809q12 -53 20.5 -65.5t35.5 -12.5q23 0 33 13.5 t22 64.5l168 841q4 20 9.5 26.5t17.5 6.5z" glyph-name="wacute" horiz-adv-x="1712" unicode="ẃ"/><glyph d="M924 1923q123 0 123 -121q0 -125 -123 -125q-127 0 -127 125q0 121 127 121zM1305 1923q127 0 127 -121q0 -125 -127 -125q-125 0 -125 125q0 121 125 121zM1974 1550h162q33 0 27 -32l-279 -1289q-33 -158 -79 -198.5t-187 -40.5q-156 0 -200 39t-83 200l-221 928 l-221 -928q-29 -117 -52.5 -159.5t-72.5 -61t-160 -18.5q-141 0 -187 41t-79 198l-276 1289q-6 33 24 32h162q18 0 27 -32l260 -1229q14 -70 29.5 -89.5t45.5 -19.5q41 0 56.5 18.5t31.5 90.5l293 1165q8 33 37 33h164q27 0 35 -33l293 -1165q18 -72 32.5 -90.5t55.5 -18.5 q33 0 47 19.5t29 89.5l260 1229q8 32 26 32z" glyph-name="Wdieresis" horiz-adv-x="2232" unicode="Ẅ"/><glyph d="M666 1513q125 0 125 -120q0 -125 -125 -125q-127 0 -127 125q0 120 127 120zM1049 1513q125 0 125 -120q0 -125 -125 -125q-127 0 -127 125q0 120 127 120zM1475 1120h147q16 0 21.5 -6t3.5 -27l-181 -866q-33 -152 -73.5 -191.5t-165.5 -39.5q-131 0 -166 35.5 t-72 195.5l-133 574l-133 -574q-37 -160 -72 -195.5t-166 -35.5q-123 0 -164.5 40t-74.5 191l-180 866q-2 20 3 26.5t21 6.5h150q16 0 24 -33l168 -841q12 -51 22.5 -64.5t32.5 -13.5q27 0 35 12.5t21 65.5l198 809q8 33 29 32h172q20 0 29 -32l198 -809q12 -53 20.5 -65.5 t35.5 -12.5q23 0 33 13.5t22 64.5l168 841q4 20 9.5 26.5t17.5 6.5z" glyph-name="wdieresis" horiz-adv-x="1712" unicode="ẅ"/><glyph d="M389 1964h182q18 0 25 -12l149 -248q10 -16 -6 -29l-41 -26q-14 -12 -28 0l-291 256q-10 10 -10 24v15q0 20 20 20zM1155 1550h158q47 0 22 -45l-555 -1034v-440q0 -31 -30 -31h-148q-31 0 -31 31v440l-555 1034q-25 45 23 45h160q35 0 55 -32l422 -822l424 822 q14 32 55 32z" glyph-name="Ygrave" horiz-adv-x="1351" unicode="Ỳ"/><glyph d="M352 1554h183q18 0 24 -12l150 -248q10 -16 -7 -28l-40 -27q-14 -12 -29 0l-291 256q-10 10 -10 25v14q0 20 20 20zM901 1120h135q31 0 31 -30v-988q0 -158 -18.5 -251t-71.5 -156.5t-143.5 -87t-239.5 -23.5q-172 0 -309 19q-29 4 -29 32v89q0 31 31 30h303 q170 0 225 49.5t55 190.5v12q-100 -16 -270 -16q-287 0 -378 111.5t-91 447.5v541q0 31 31 30h133q31 0 31 -30v-529q0 -248 50 -323.5t236 -75.5q143 0 258 14v914q0 30 31 30z" glyph-name="ygrave" horiz-adv-x="1208" unicode="ỳ"/><glyph d="M532 1925q49 0 146.5 -41t130.5 -41q37 0 56.5 14.5t37.5 55.5q14 31 39 22l47 -12q31 -10 23 -47q-37 -117 -76 -157t-117 -40q-49 0 -146.5 41t-129.5 41q-39 0 -57.5 -14t-36.5 -55q-14 -29 -39 -21l-48 12q-31 10 -22 46q37 119 75.5 157.5t116.5 38.5zM1155 1550 h158q47 0 22 -45l-555 -1034v-440q0 -31 -30 -31h-148q-31 0 -31 31v440l-555 1034q-25 45 23 45h160q35 0 55 -32l422 -822l424 822q14 32 55 32z" glyph-name="uni1EF8" horiz-adv-x="1351" unicode="Ỹ"/><glyph d="M473 1516q49 0 146.5 -41t130.5 -41q37 0 56 14t38 55q14 31 39 23l47 -13q31 -10 22 -47q-37 -117 -75.5 -156.5t-116.5 -39.5q-49 0 -146.5 41t-130.5 41q-39 0 -57 -14.5t-37 -55.5q-14 -29 -39 -20l-47 12q-31 10 -22 45q37 119 75.5 158t116.5 39zM901 1120h135 q31 0 31 -30v-988q0 -158 -18.5 -251t-71.5 -156.5t-143.5 -87t-239.5 -23.5q-172 0 -309 19q-29 4 -29 32v89q0 31 31 30h303q170 0 225 49.5t55 190.5v12q-100 -16 -270 -16q-287 0 -378 111.5t-91 447.5v541q0 31 31 30h133q31 0 31 -30v-529q0 -248 50 -323.5t236 -75.5 q143 0 258 14v914q0 30 31 30z" glyph-name="uni1EF9" horiz-adv-x="1208" unicode="ỹ"/><glyph d="M166 653h940q31 0 31 -30v-121q0 -31 -31 -31h-940q-33 0 -33 31v121q0 30 33 30z" glyph-name="endash" horiz-adv-x="1271" unicode="–"/><glyph d="M166 653h1517q31 0 31 -30v-121q0 -31 -31 -31h-1517q-33 0 -33 31v121q0 30 33 30z" glyph-name="emdash" horiz-adv-x="1849" unicode="—"/><glyph d="M397 1548l47 -26q14 -8 7 -29l-142 -483q-6 -16 -26 -17h-185q-20 0 -20 21v28q0 10 10 27l281 469q12 18 28 10z" glyph-name="quoteleft" horiz-adv-x="524" unicode="‘"/><glyph d="M256 1550h184q20 0 21 -20v-29q0 -10 -10 -26l-279 -469q-14 -18 -31 -11l-47 25q-14 8 -6 29l141 485q7 16 27 16z" glyph-name="quoteright" horiz-adv-x="509" unicode="’"/><glyph d="M180 244h187q20 0 20 -21v-28q0 -10 -10 -27l-281 -469q-12 -18 -28 -10l-50 24q-14 8 -6 29l144 483q6 19 24 19z" glyph-name="quotesinglbase" horiz-adv-x="495" unicode="‚"/><glyph d="M397 1548l49 -26q14 -8 7 -29l-142 -483q-6 -16 -26 -17h-187q-20 0 -20 21v28q0 10 10 27l281 469q12 18 28 10zM778 1548l49 -26q14 -8 7 -29l-142 -483q-6 -16 -26 -17h-187q-20 0 -20 21v28q0 10 10 27l281 469q12 18 28 10z" glyph-name="quotedblleft" horiz-adv-x="907" unicode="“"/><glyph d="M256 1550h184q20 0 21 -20v-29q0 -10 -10 -26l-279 -469q-14 -18 -31 -11l-47 25q-14 8 -6 29l141 485q7 16 27 16zM664 1550h184q20 0 20 -20v-29q0 -10 -10 -26l-280 -469q-12 -18 -29 -11l-47 25q-14 8 -6 29l141 485q7 16 27 16z" glyph-name="quotedblright" horiz-adv-x="917" unicode="”"/><glyph d="M182 244h185q20 0 20 -21v-28q0 -10 -10 -27l-281 -469q-12 -18 -28 -10l-48 24q-14 8 -6 29l142 483q6 19 26 19zM580 244h186q20 0 20 -21v-28q0 -10 -10 -27l-280 -469q-12 -18 -29 -10l-49 24q-14 8 -6 29l141 483q7 19 27 19z" glyph-name="quotedblbase" horiz-adv-x="894" unicode="„"/><glyph d="M588 987v-956q0 -31 -31 -31h-135q-31 0 -31 31v958h-264q-31 0 -31 31v108q0 31 31 31h264v361q0 31 31 30h135q31 0 31 -30v-361h264q31 0 31 -31v-110q0 -31 -31 -31h-264z" glyph-name="dagger" horiz-adv-x="978" unicode="†"/><glyph d="M422 1550h135q31 0 31 -30v-361h264q31 0 31 -31v-110q0 -31 -31 -31h-264v-391h264q31 0 31 -31v-110q0 -31 -31 -31h-264v-393q0 -31 -31 -31h-135q-31 0 -31 31v395h-264q-31 0 -31 31v108q0 31 31 31h264v393h-264q-31 0 -31 31v108q0 31 31 31h264v361q0 30 31 30z " glyph-name="daggerdbl" horiz-adv-x="978" unicode="‡"/><glyph d="M573 874q147 0 230.5 -74.5t83.5 -205.5q0 -133 -83 -208t-231 -75q-150 0 -232.5 75t-82.5 208t82.5 206.5t232.5 73.5z" glyph-name="bullet" horiz-adv-x="1146" unicode="•"/><glyph d="M227 227q121 0 121 -116q0 -121 -121 -121t-121 121q0 116 121 116zM612.5 227q120.5 0 120.5 -116q0 -121 -120.5 -121t-120.5 121q0 116 120.5 116zM999 227q121 0 121 -116q0 -121 -121 -121q-123 0 -122 121q-1 116 122 116z" glyph-name="ellipsis" horiz-adv-x="1226" unicode="…"/><glyph d="M436 1559q211 0 289 -88.5t78 -328t-78 -327.5t-289 -88t-288.5 88t-77.5 327.5t77.5 328t288.5 88.5zM1305 1550h90q31 0 12 -30l-780 -1489q-16 -31 -47 -31h-91q-31 0 -14 31l780 1489q19 30 50 30zM436.5 1395q-104.5 0 -142.5 -53.5t-38 -199t38 -199.5t142.5 -54 t143 54t38.5 200q0 143 -38.5 197.5t-143 54.5zM1442 821q213 0 289.5 -88t76.5 -327.5t-76.5 -327.5t-289.5 -88q-211 0 -289 88t-78 327.5t78 327.5t289 88zM2324.5 821q210.5 0 288.5 -88t78 -327.5t-78 -327.5t-288.5 -88t-288.5 88t-78 327.5t78 327.5t288.5 88z M1442 659q-102 0 -141 -54t-39 -199.5t38.5 -199.5t141.5 -54q104 0 143 54t39 199.5t-39 199.5t-143 54zM2324.5 659q-104.5 0 -142.5 -54t-38 -199.5t38 -199.5t142.5 -54t143.5 54t39 199.5t-39 199.5t-143.5 54z" glyph-name="perthousand" horiz-adv-x="2760" unicode="‰"/><glyph d="M358 954h134q31 0 30 -30v-15q0 -20 -14 -37l-252 -313l252 -311q14 -16 14 -37v-14q0 -31 -30 -31h-134q-23 0 -36 18l-228 297q-14 16 -14 39v78q0 20 14 41l228 297q16 18 36 18z" glyph-name="guilsinglleft" horiz-adv-x="634" unicode="‹"/><glyph d="M143 954h133q23 0 37 -18l230 -297q12 -23 12 -41v-78q0 -20 -12 -39l-230 -297q-14 -18 -37 -18h-133q-31 0 -30 31v14q0 20 14 37l252 311l-252 313q-14 16 -14 37v15q-1 30 30 30z" glyph-name="guilsinglright" horiz-adv-x="634" unicode="›"/><glyph d="M483 1620h64q27 0 14 -35l-704 -1620q-16 -35 -47 -35h-68q-33 0 -14 35l708 1620q16 35 47 35z" glyph-name="fraction" horiz-adv-x="286" unicode="⁄"/><glyph d="M397 1872q190 0 255 -89t65 -337t-64.5 -335t-255.5 -87q-188 0 -252.5 88t-64.5 334q0 248 64.5 337t252.5 89zM397 1735q-96 0 -128.5 -60.5t-32.5 -228.5t32.5 -226.5t128.5 -58.5q98 0 131 58.5t33 226.5t-33 228.5t-131 60.5z" glyph-name="uni2070" horiz-adv-x="796" unicode="⁰"/><glyph d="M217 1866h129q18 0 10 -15l-137 -473h213v187q0 10 10 14l131 43q14 4 15 -12v-232h121q14 0 14 -12v-111q0 -12 -14 -12h-121v-199q0 -14 -15 -14h-129q-12 0 -12 14v199h-366q-12 0 -13 12v82q0 14 8 35l142 483q2 11 14 11z" glyph-name="uni2074" horiz-adv-x="768" unicode="⁴"/><glyph d="M129 1866h471q14 0 14 -13v-112q0 -12 -14 -12h-358l-13 -201q47 10 127 10q285 0 285 -203v-108q0 -82 -46 -129t-107.5 -60.5t-153.5 -13.5q-137 0 -230 16q-20 6 -20 25v82q0 14 12 14h217q90 0 131 20.5t41 80.5v36q0 61 -41 83t-131 22h-204q-25 0 -25 20v95l27 331 q4 17 18 17z" glyph-name="uni2075" horiz-adv-x="712" unicode="⁵"/><glyph d="M315 1866h138q16 0 8 -17l-166 -329q37 14 108 14q268 0 269 -188v-125q0 -115 -79 -156t-222 -41q-145 0 -225 41t-80 158v114q0 55 18 99l217 419q4 11 14 11zM371 1407q-86 0 -118 -20.5t-32 -81.5v-43q0 -61 33 -81t117 -20t114.5 19.5t30.5 81.5v43q0 61 -30.5 81.5 t-114.5 20.5z" glyph-name="uni2076" horiz-adv-x="729" unicode="⁶"/><glyph d="M61 1866h576q14 0 14 -13v-86q0 -10 -8 -18l-373 -711q-2 -8 -12 -8h-154q-16 0 -8 14l363 685h-398q-14 0 -14 12v112q0 13 14 13z" glyph-name="uni2077" horiz-adv-x="694" unicode="⁷"/><glyph d="M383 1872h18q285 0 285 -230q0 -141 -115 -202q137 -53 138 -191q0 -225 -310 -225h-20q-307 0 -307 223q0 147 141 215q-63 31 -89 73t-26 110q0 227 285 227zM397 1735h-10q-133 0 -133 -109q0 -76 94 -98l117 -25q66 35 65 119q0 113 -133 113zM459 1370l-140 33 q-92 -37 -92 -123q0 -119 156 -119h12q158 0 158 103q0 86 -94 106z" glyph-name="uni2078" horiz-adv-x="780" unicode="⁸"/><glyph d="M356 1870q145 0 226.5 -42t81.5 -159v-115q0 -57 -21 -96l-217 -420q-2 -8 -14 -8h-136q-14 0 -8 14l168 330q-37 -12 -110 -12q-268 0 -269 188v123q0 117 78 157t221 40zM356 1733q-82 0 -112.5 -19.5t-30.5 -81.5v-43q0 -63 30.5 -82.5t112.5 -19.5q86 0 119 20.5 t33 81.5v43q0 61 -33 81t-119 20z" glyph-name="uni2079" horiz-adv-x="729" unicode="⁹"/><glyph d="M268 1917h109q8 0 8 -8v-8q0 -10 -2 -13q-63 -86 -97 -140t-49.5 -119.5t-16.5 -97.5t-1 -134q0 -141 25.5 -213t138.5 -277q2 -4 2 -12v-8q0 -8 -8 -8h-109q-10 0 -16 6q-119 135 -145.5 221t-26.5 252v39v68.5v63.5t2 53t6 54.5t12.5 48t21.5 53t30.5 50.5t42 59.5 t57.5 61.5q6 8 16 8z" glyph-name="uni207D" horiz-adv-x="425" unicode="⁽"/><glyph d="M49 1917h109q8 0 14 -8q121 -135 147.5 -221t26.5 -252v-39v-66.5v-64t-2 -53t-6 -54t-12.5 -48.5t-21.5 -53.5t-31.5 -50t-43 -60t-57.5 -62.5q-6 -6 -14 -6h-109q-8 0 -8 8v8q0 8 2 12q119 160 141.5 240t22.5 250q0 78 -3 121t-32 112.5t-43 98t-86 159.5q-2 2 -2 13 v8q0 8 8 8z" glyph-name="uni207E" horiz-adv-x="425" unicode="⁾"/><glyph d="M905 1550q94 0 221 -10q31 -6 31 -27v-124q0 -20 -31 -21h-245q-244 0 -326 -56.5t-82 -219.5v-242h506q31 0 31 -31v-61q0 -31 -31 -31h-506v-143h506q31 0 31 -31v-64q0 -31 -31 -30h-506v-277h705q31 0 30 -30v-121q0 -31 -30 -31h-1084q-33 0 -26 31l20 121 q6 31 35 30h141v277h-110q-31 0 -31 30v64q0 31 31 31h110v143h-110q-31 0 -31 31v61q0 31 31 31h110v252q0 268 131 358t510 90z" glyph-name="lira" horiz-adv-x="1277" unicode="₤"/><glyph d="M1165 1378h-252q-221 0 -307 -85t-102 -316h536q33 0 25 -31l-21 -69q-6 -31 -36 -31h-510v-72v-51h477q29 0 22 -31l-18 -69q-8 -31 -39 -31h-438q16 -244 101 -332t310 -88h275q31 0 31 -31v-96q0 -31 -31 -37q-131 -18 -275 -18q-336 0 -468 128t-152 474h-215 q-33 0 -23 31l21 69q6 31 39 31h174v51v72h-144q-31 0 -24 31l20 69q10 31 39 31h115q23 334 156 459t462 125q135 0 281 -21q41 -4 31 -43l-27 -88q-13 -31 -33 -31z" glyph-name="Euro" horiz-adv-x="1310" unicode="€"/><glyph d="M139 1548h1145q31 0 31 -30v-66q0 -31 -31 -31h-364q74 -86 86 -264h278q33 0 33 -31v-65q0 -31 -33 -31h-276q-2 -225 -77 -319.5t-257 -118.5l346 -551q12 -16 5 -28.5t-30 -12.5h-131q-33 0 -49 10t-33 35l-340 535h-303q-31 0 -30 30v115q0 31 30 31h238q80 0 127 2 t98 7t78 16.5t53.5 30.5t38.5 49t19.5 71t9.5 98h-662q-31 0 -30 31v65q0 31 30 31h656q-16 139 -102.5 180t-315.5 41h-238q-31 0 -30 31v109q-1 30 30 30z" glyph-name="uni20B9" horiz-adv-x="1384" unicode="₹"/><glyph d="M481 618v-135h357q31 0 30 -30v-99q0 -31 -30 -30h-357v-293q0 -18 -6 -24.5t-24 -6.5h-148q-18 0 -24.5 6t-6.5 25v293h-157q-31 0 -31 30v99q0 31 31 30h157v154h-157q-31 0 -31 31v96q0 31 31 31h157v721q0 18 6.5 23t24.5 7q203 14 436 15q152 0 243 -9.5t171 -36 t119 -80t60.5 -137.5t21.5 -211q0 -109 -12.5 -184.5t-46 -128.5t-74.5 -82.5t-119 -46t-156 -22t-207 -5.5h-258zM481 795h242q78 0 116 1t91 4t75.5 10t53.5 21.5t42 35t24.5 51t16.5 70.5t3 95q0 72 -6 120t-30 82t-48.5 52.5t-80.5 27.5t-108.5 11t-148.5 2h-242v-583z " glyph-name="uni20BD" horiz-adv-x="1427" unicode="₽"/><glyph d="M434 1561q72 0 123 -8.5t99.5 -31t73 -71.5t24.5 -123v-670q0 -74 -24.5 -123t-73 -71.5t-97.5 -29.5t-123 -7h-117v-160q0 -63 29 -86.5t94 -27.5h203q31 0 31 -31v-82q0 -29 -29 -33q-131 -16 -207 -16q-143 0 -223 48t-80 185v1104q0 137 79 185.5t218 48.5zM446 1399 q-70 0 -98.5 -23.5t-28.5 -89.5v-700h125q70 4 98.5 27.5t28.5 86.5v586q0 66 -29.5 89.5t-95.5 23.5z" glyph-name="afii61289" horiz-adv-x="851" unicode="ℓ"/><glyph d="M1857.5 1561q274.5 0 274.5 -265q0 -262 -274.5 -262t-274.5 262q0 265 274.5 265zM1249 1550h146q31 0 30 -32v-1487q0 -31 -30 -31h-125q-47 0 -72 37l-809 1218v-1224q0 -31 -31 -31h-145q-31 0 -31 31v1487q0 33 31 32h139q53 -2 72.5 -12t44.5 -47l750 -1129v1156 q-1 32 30 32zM1858 1434q-139 0 -139.5 -137.5t139.5 -137.5q137 0 137 137.5t-137 137.5zM1614 905h487q31 0 31 -31v-55q0 -31 -31 -31h-487q-31 0 -31 31v55q0 31 31 31z" glyph-name="afii61352" horiz-adv-x="2213" unicode="№"/><glyph d="M884.5 -16q-401.5 0 -590 190.5t-188.5 593.5t188.5 593.5t590 190.5t590 -190.5t188.5 -593.5t-188.5 -593.5t-590 -190.5zM885 100q340 0 500.5 162t160.5 506t-160.5 506t-500.5 162q-342 0 -502 -161t-160 -507q0 -344 161 -506t501 -162zM920 1163q170 0 234.5 -56 t64.5 -208q0 -150 -63.5 -200t-235.5 -50h-127v-272q0 -14 -13 -15h-141q-12 0 -12 15v764q0 10 12 10q111 12 281 12zM901 1018h-108v-246h108q86 0 117 24.5t31 96.5q0 74 -31 99.5t-117 25.5z" glyph-name="uni2117" horiz-adv-x="1769" unicode="℗"/><glyph d="M473 1554q129 0 256 -22q16 -2 16 -16v-95q0 -14 -16 -14h-289q-133 0 -133 -92v-17q0 -72 82 -104l240 -98q90 -35 127 -87.5t37 -148.5v-35q0 -127 -90.5 -177t-256.5 -50q-168 0 -305 20q-14 6 -14 21v90q0 16 16 16h351q127 0 127 86v19q0 80 -93 115l-254 96 q-74 29 -105.5 84t-31.5 153v29q0 127 85 177t251 50zM1741 1548h131q14 0 14 -20l88 -905q4 -18 -18 -19h-133q-16 0 -21 19l-55 624l-234 -598q-6 -16 -24 -16h-105q-18 0 -26 16l-236 600l-55 -626q-2 -18 -18 -19h-134q-18 0 -18 17l84 907q2 18 18 18h131q27 0 39.5 -9 t22.5 -38l242 -629l243 629q10 29 23.5 39t40.5 10z" glyph-name="uni2120" horiz-adv-x="2093" unicode="℠"/><glyph d="M72 1548h698q20 0 21 -20v-111q0 -16 -21 -16h-264v-780q0 -16 -17 -17h-135q-16 0 -16 17v780h-266q-16 0 -17 16v111q1 20 17 20zM1673 1548h129q16 0 17 -22l88 -903q0 -18 -19 -19h-133q-14 0 -18 19l-56 624l-235 -598q-6 -16 -27 -16h-104q-18 0 -25 16l-235 600 l-58 -626q0 -18 -16 -19h-133q-18 0 -19 19l84 907q4 18 17 18h133q45 0 63 -47l240 -633l244 633q18 47 63 47z" glyph-name="trademark" horiz-adv-x="2027" unicode="™"/><glyph d="M879 1556q395 0 581.5 -183t186.5 -576q0 -227 -108.5 -401.5t-319.5 -235.5h366q31 0 31 -31v-98q0 -31 -31 -31h-538q-31 0 -31 31v194q0 29 28 33q160 20 283 165.5t123 367.5q0 305 -138 448t-433 143q-293 0 -432.5 -143t-139.5 -448q0 -221 123 -366.5t283 -166.5 q29 -4 28 -33v-194q0 -31 -30 -31h-539q-31 0 -31 31v98q0 31 31 31h369q-211 61 -320.5 235t-109.5 402q0 391 187.5 575t580.5 184z" glyph-name="uni2126" horiz-adv-x="1757" unicode="Ω"/><glyph d="M662 1178q254 0 406.5 -173.5t152.5 -422.5h-879v-396q135 -129 311 -129q156 0 252 68t178 192l64 -38q-90 -139 -203 -214t-291 -75q-244 0 -399.5 173t-155.5 421q0 252 154 423t410 171zM662 1110q-197 0 -320 -127v-334h633v334q-139 127 -313 127z" glyph-name="estimated" unicode="℮"/><glyph d="M1165 1620h64q27 0 14 -35l-706 -1620q-16 -35 -48 -35h-65q-31 0 -14 35l708 1620q16 35 47 35zM526 838v-111q0 -12 -14 -12h-414q-14 0 -14 14v109q0 14 14 14h135v518q0 59 -71 60h-74q-14 0 -14 12v86q0 14 14 18q68 10 109 10q86 0 135 -29.5t49 -117.5v-557h131 q14 0 14 -14zM1554 410q137 -53 138 -191q0 -225 -310 -225h-20q-307 0 -307 223q0 147 141 215q-63 31 -89 73t-26 109q0 227 285 228h18q285 0 285 -230q0 -141 -115 -202zM1380 705h-10q-131 0 -131 -109q0 -78 92 -98l117 -25q66 35 65 119q0 113 -133 113zM1366 131h12 q158 0 158 102q0 86 -94 107l-139 33q-92 -37 -93 -123q0 -119 156 -119z" glyph-name="oneeighth" horiz-adv-x="1757" unicode="⅛"/><glyph d="M1241 1620h64q27 0 14 -35l-705 -1620q-16 -35 -47 -35h-67q-33 0 -15 35l709 1620q16 35 47 35zM344 1556q135 0 216 -43t81 -159v-62q0 -135 -135 -159q135 -20 135 -162v-62q0 -117 -81 -158.5t-216 -41.5q-125 0 -240 16q-23 4 -22 27v79q0 12 12 13h221 q90 0 131 19.5t41 80.5v25q0 59 -42 80.5t-132 21.5h-163q-14 0 -15 14v95q0 12 15 12h161q92 0 134 21.5t42 80.5v27q0 59 -40.5 78.5t-131.5 19.5h-221q-12 0 -12 13v81q0 20 22 25q86 18 240 18zM1485 842h18q283 0 283 -230q0 -141 -113 -202q135 -51 135 -191 q0 -225 -307 -225h-20q-307 0 -307 223q0 150 141 215q-63 31 -89 73t-26 109q0 228 285 228zM1499 705h-12q-131 0 -131 -109q0 -76 94 -98l115 -25q66 33 65 119q0 113 -131 113zM1561 340l-140 33q-92 -37 -92 -123q0 -119 156 -119h12q156 0 156 102q0 87 -92 107z" glyph-name="threeeighths" horiz-adv-x="1873" unicode="⅜"/><glyph d="M1235 1620h63q27 0 15 -35l-707 -1620q-16 -35 -47 -35h-65q-31 0 -15 35l709 1620q16 35 47 35zM133 1550h473q12 0 12 -12v-113q0 -12 -12 -12h-358l-12 -201q45 10 126 11q283 0 283 -203v-109q0 -82 -46 -129t-107.5 -60t-153.5 -13q-139 0 -227 16q-20 6 -21 25v81 q0 14 12 15h215q92 0 132 20.5t40 79.5v37q0 61 -40.5 82.5t-131.5 21.5h-202q-25 0 -25 21v94l27 332q0 16 16 16zM1430 842h18q285 0 285 -230q0 -141 -115 -202q137 -53 137 -191q0 -225 -309 -225h-21q-307 0 -307 223q0 147 142 215q-63 31 -89 73t-26 109 q0 228 285 228zM1444 705h-10q-131 0 -131 -109q0 -76 92 -98l116 -25q66 33 66 119q0 113 -133 113zM1507 340l-139 33q-92 -35 -92 -123q0 -119 154 -119h12q158 0 157 102q0 87 -92 107z" glyph-name="fiveeighths" horiz-adv-x="1820" unicode="⅝"/><glyph d="M1087 1620h64q27 0 14 -35l-706 -1620q-16 -35 -47 -35h-66q-31 0 -14 35l708 1620q16 35 47 35zM72 1550h575q14 0 15 -12v-86q0 -12 -7 -18l-372 -711q-2 -8 -15 -8h-153q-14 0 -9 14l363 684h-397q-14 0 -15 12v113q1 12 15 12zM1333 842h19q285 0 284 -230 q0 -139 -114 -202q137 -53 137 -191q0 -225 -309 -225h-21q-307 0 -307 223q0 147 141 215q-63 31 -88.5 73t-25.5 109q-1 228 284 228zM1348 705h-13q-131 0 -131 -109q0 -76 94 -98l117 -25q63 33 64 119q0 113 -131 113zM1409 340l-139 33q-92 -37 -92 -123 q0 -119 155 -119h13q156 0 155 102q0 87 -92 107z" glyph-name="seveneighths" horiz-adv-x="1724" unicode="⅞"/><glyph d="M805 1001h53q18 0 19 -18v-307h761q31 0 31 -31v-113q0 -31 -31 -30h-761v-307q0 -18 -19 -19h-53q-14 0 -35 10l-602 342q-18 8 -18 37v47q0 27 18 37l604 342q25 10 33 10z" glyph-name="arrowleft" horiz-adv-x="1835" unicode="←"/><glyph d="M524 1350h47q27 0 37 -19l342 -602q10 -20 11 -37v-51q0 -18 -19 -18h-307v-764q0 -31 -31 -31h-112q-31 0 -31 31v764h-307q-18 0 -19 18v51q0 8 10 35l342 604q8 19 37 19z" glyph-name="arrowup" horiz-adv-x="1095" unicode="↑"/><glyph d="M977 1001h53q6 0 33 -10l604 -342q18 -10 19 -37v-47q0 -29 -19 -37l-602 -342q-20 -10 -35 -10h-53q-18 0 -19 19v307h-761q-31 0 -31 30v113q0 31 31 31h761v307q1 18 19 18z" glyph-name="arrowright" horiz-adv-x="1835" unicode="→"/><glyph d="M489 1350h113q31 0 31 -31v-762h307q18 0 18 -20v-52q0 -10 -10 -34l-342 -603q-8 -20 -37 -20h-47q-29 0 -37 20l-342 601q-10 20 -10 36v52q0 20 19 20h307v762q-1 31 30 31z" glyph-name="arrowdown" horiz-adv-x="1091" unicode="↓"/><glyph d="M1442 1001h51q10 0 35 -10l604 -342q18 -10 18 -37v-47q0 -29 -18 -37l-602 -342q-20 -10 -37 -10h-51q-18 0 -19 19v307h-546v-307q0 -18 -19 -19h-53q-14 0 -35 10l-602 342q-18 8 -18 37v47q0 27 18 37l604 342q25 10 33 10h53q18 0 19 -18v-307h546v307q1 18 19 18z " glyph-name="arrowboth" horiz-adv-x="2299" unicode="↔"/><glyph d="M545 1591h47q29 -4 37 -20l342 -602q10 -20 10 -35v-51q0 -20 -18 -21h-308v-545h308q18 0 18 -20v-51q0 -12 -10 -37l-342 -600q-8 -20 -37 -21h-47q-27 0 -37 21l-342 602q-10 31 -10 35v51q0 20 18 20h307v545h-307q-18 0 -18 21v51q0 8 10 33l342 604q10 20 37 20z " glyph-name="arrowupdn" horiz-adv-x="1136" unicode="↕"/><glyph d="M229 1165l668 -184q23 -8 31 -18l37 -35q14 -14 0 -29l-217 -217l538 -539q25 -20 0 -43l-78 -80q-23 -23 -45 0l-538 539l-217 -217q-12 -12 -27 0l-37 37q-6 8 -16 33l-185 667q-6 20 13 39l32 35q16 18 41 12z" glyph-name="uni2196" horiz-adv-x="1427" unicode="↖"/><glyph d="M528 979l668 188q23 6 41 -16l31 -31q20 -20 14 -39l-184 -667q-6 -23 -17 -33l-39 -39q-14 -12 -26 0l-215 217l-539 -539q-25 -20 -45 0l-80 80q-20 20 0 45l539 539l-217 215q-10 14 0 29l37 37q5 6 32 14z" glyph-name="uni2197" horiz-adv-x="1425" unicode="↗"/><glyph d="M260 1157l541 -539l215 218q12 12 26 0l39 -37q2 -2 15 -33l186 -670q6 -18 -14 -39l-31 -32q-20 -20 -41 -15l-668 187q-23 6 -32 16l-37 37q-12 16 0 29l217 215l-539 538q-20 25 0 45l78 80q25 20 45 0z" glyph-name="uni2198" horiz-adv-x="1427" unicode="↘"/><glyph d="M1210 1157l78 -82q23 -23 0 -43l-538 -538l219 -218q14 -14 -2 -26l-37 -37q-6 -6 -31 -16l-668 -187q-20 -6 -41 15l-32 32q-20 20 -13 39l183 668q8 25 18 35l37 35q14 14 27 0l219 -216l538 539q20 23 43 0z" glyph-name="uni2199" horiz-adv-x="1425" unicode="↙"/><glyph d="M803 1550h166q25 0 30 -20l201 -793q20 -102 -18 -252l-8 -41q-61 -244 -218 -349t-442 -105t-386 105.5t-40 346.5l8 43q61 238 216 344.5t433 106.5q109 0 175 -23l-148 600q-8 37 31 37zM708.5 756q-180.5 0 -273.5 -66.5t-134 -222.5v-8q-41 -154 19.5 -220.5 t238.5 -66.5q180 0 274.5 66.5t135.5 222.5l2 6q39 156 -21.5 222.5t-241 66.5z" glyph-name="partialdiff" horiz-adv-x="1298" unicode="∂"/><glyph d="M616 1438h164q25 0 37 -25l524 -1352q6 -16 7 -24v-25q0 -12 -15 -12h-1272q-16 0 -16 12v25q0 8 6 24l529 1352q11 25 36 25zM696 1235l-389 -1047h803z" glyph-name="uni2206" horiz-adv-x="1392" unicode="∆"/><glyph d="M45 1649h1274q31 0 31 -31v-111q0 -31 -31 -30h-170v-1559q0 -31 -31 -31h-123q-31 0 -30 31v1559h-564v-1559q0 -31 -30 -31h-123q-31 0 -31 31v1559h-172q-31 0 -31 30v111q0 31 31 31z" glyph-name="product" horiz-adv-x="1366" unicode="∏"/><glyph d="M66 1649h976q31 0 31 -31v-119q0 -31 -31 -31h-751l432 -663q10 -14 10 -37v-14q0 -25 -10 -39l-432 -662h829q31 0 31 -30v-121q0 -31 -31 -31h-1057q-31 0 -30 31v84q0 18 12 37l449 692q12 18 12 37v8q0 23 -10 39l-449 698q-12 18 -12 37v84q0 31 31 31z" glyph-name="summation" horiz-adv-x="1189" unicode="∑"/><glyph d="M170 717h739q31 0 31 -31v-123q0 -31 -31 -31h-739q-31 0 -31 31v123q0 31 31 31z" glyph-name="minus" horiz-adv-x="1079" unicode="−"/><glyph d="M969 1669h141q37 0 27 -35l-416 -1763q-6 -27 -35 -27h-147q-27 0 -35 25l-291 833l-113 -53q-29 -12 -41 17l-43 106q-12 29 19 41l282 121q29 12 39 -19l242 -708l336 1435q6 27 35 27z" glyph-name="radical" horiz-adv-x="1175" unicode="√"/><glyph d="M1307 967q184 0 270 -85t86 -268q0 -184 -86 -270t-270 -86q-178 2 -330 150l-92 88l-90 -86q-164 -152 -332 -152q-186 0 -271.5 86t-85.5 270q0 182 85 267.5t272 85.5q168 0 328 -146l96 -90l94 90q152 146 326 146zM477 797q-193 0 -192 -185q0 -94 46 -138t146 -44 q92 0 211 111l78 71l-82 76q-115 109 -207 109zM1290 797q-100 0 -196 -97l-93 -88l93 -86q96 -96 196 -96q193 0 193 182q0 185 -193 185z" glyph-name="infinity" horiz-adv-x="1769" unicode="∞"/><glyph d="M573 1653q90 0 183 -19q27 -6 26 -32v-91q0 -31 -30 -30h-113q-98 0 -135 -19.5t-37 -89.5q0 -205 37 -616.5t37 -618.5q0 -66 -21.5 -113t-50.5 -70.5t-75 -36.5t-78.5 -16t-77.5 -3q-92 0 -181 18q-29 6 -28 33v90q0 33 30 33h113q100 0 137 18.5t37 89.5 q0 205 -38 615.5t-38 617.5q0 66 21.5 114t51.5 71.5t76 37t77.5 15.5t76.5 2z" glyph-name="integral" horiz-adv-x="811" unicode="∫"/><glyph d="M393 1130q78 0 160 -47t156.5 -94t134.5 -47q115 0 162 98q8 18 16 19.5t22 -8.5l82 -52q18 -12 11 -36q-29 -92 -105 -151.5t-182 -59.5q-80 0 -161 47t-154.5 94t-137.5 47q-111 0 -159 -100q-14 -27 -39 -11l-82 54q-18 12 -11 37q29 92 105 151t182 59zM426 727 q78 0 161 -47t157.5 -94t134.5 -47q113 0 159 98q8 18 16.5 19t22.5 -9l82 -51q18 -12 10 -37q-29 -92 -104.5 -151.5t-181.5 -59.5q-80 0 -161 47t-154.5 94.5t-135.5 47.5q-115 0 -162 -101q-14 -27 -39 -10l-81 53q-18 12 -11 37q29 92 105 151.5t182 59.5z" glyph-name="approxequal" horiz-adv-x="1273" unicode="≈"/><glyph d="M936 1282h76q33 0 16 -35l-115 -262h256q31 0 31 -31v-120q0 -31 -31 -31h-335l-136 -309h471q31 0 31 -31v-121q0 -31 -31 -31h-551l-102 -239q-14 -35 -47 -35h-80q-29 0 -14 35l104 239h-309q-31 0 -31 31v121q0 31 31 31h389l135 309h-524q-31 0 -31 31v120 q0 31 31 31h604l115 262q16 35 47 35z" glyph-name="notequal" horiz-adv-x="1339" unicode="≠"/><glyph d="M989 1262h19q12 0 12 -13v-139q0 -25 -25 -35l-624 -213l624 -211q25 -8 25 -35v-139q0 -12 -12 -12h-19q-8 0 -14 2l-821 293q-25 10 -25 35v137q0 27 25 35l821 290q6 5 14 5zM160 352h827q31 0 31 -30v-109q0 -31 -31 -31h-827q-31 0 -31 31v109q0 30 31 30z" glyph-name="lessequal" horiz-adv-x="1171" unicode="≤"/><glyph d="M164 1262h18q10 0 15 -5l821 -290q25 -8 24 -35v-137q0 -25 -24 -35l-821 -293q-4 -2 -15 -2h-18q-12 0 -12 12v139q0 27 24 35l625 211l-625 213q-25 10 -24 35v139q0 13 12 13zM184 352h828q31 0 30 -30v-109q0 -31 -30 -31h-828q-31 0 -30 31v109q-1 30 30 30z" glyph-name="greaterequal" horiz-adv-x="1171" unicode="≥"/><glyph d="M819.5 31q-364.5 0 -556 191.5t-191.5 555.5q0 367 191.5 558.5t555.5 191.5q369 0 558.5 -189.5t189.5 -560.5q0 -365 -191.5 -556t-556 -191zM819 135q645 0 645 643q0 645 -645 645t-645 -645q0 -643 645 -643zM940 496h131q12 0 12 -15v-110q0 -12 -12 -13h-414 q-14 0 -14 15v108q0 14 14 15h134v520q0 57 -70 57h-74q-14 0 -14 14v87q0 12 14 18q55 8 109 8q88 0 136 -28.5t48 -118.5v-557z" glyph-name="uni2460" horiz-adv-x="1638" unicode="①"/><glyph d="M819.5 31q-364.5 0 -556 191.5t-191.5 555.5q0 367 191.5 558.5t555.5 191.5q371 0 559.5 -191.5t188.5 -558.5q0 -365 -191.5 -556t-556 -191zM819 135q645 0 645 643q0 645 -645 645t-645 -645q0 -643 645 -643zM786 1200q68 0 118 -7t95 -27.5t70 -62.5t25 -104v-92 q0 -68 -19.5 -109.5t-93.5 -92.5l-186 -123q-78 -47 -78 -76v-10h385q8 0 8 -7v-122q0 -8 -8 -9h-543q-29 0 -29 31v92q0 59 26 94t99 84l224 158q59 41 59 119v20q0 63 -39 86t-129 23h-201q-12 0 -12 14v82q0 18 23 25q89 14 206 14z" glyph-name="uni2461" horiz-adv-x="1638" unicode="②"/><glyph d="M819.5 31q-364.5 0 -556 191.5t-191.5 555.5q0 367 191.5 558.5t555.5 191.5q367 0 557.5 -192.5t190.5 -557t-191.5 -556t-556 -191.5zM819 135q645 0 645 643q0 645 -645 645t-645 -645q0 -643 645 -643zM801 1200q299 0 299 -201v-61q0 -139 -137 -160 q137 -23 137 -162v-61q0 -203 -299 -203q-135 0 -238 19q-23 4 -22 24v82q0 12 12 12h219q92 0 132 19.5t40 79.5v26q2 59 -41 81t-133 22h-164q-12 0 -12 12v94q0 14 12 15h164q92 0 133 20.5t41 81.5v25q0 61 -41 80.5t-131 19.5h-219q-12 0 -12 12v82q0 20 22 25 q93 16 238 16z" glyph-name="uni2462" horiz-adv-x="1638" unicode="③"/><glyph d="M819.5 31q-364.5 0 -556 191.5t-191.5 555.5q0 367 191.5 558.5t555.5 191.5q367 0 557.5 -192.5t190.5 -557t-191.5 -556t-556 -191.5zM819 135q645 0 645 643q0 645 -645 645t-645 -645q0 -643 645 -643zM649 1194h129q16 0 10 -14l-135 -471h211v186q0 8 10 14l132 41 q14 8 14 -10v-231h121q14 0 14 -13v-110q0 -12 -14 -13h-121v-200q0 -14 -14 -15h-129q-12 0 -13 15v200h-366q-12 0 -13 13v82q0 10 9 34l141 484q2 8 14 8z" glyph-name="uni2463" horiz-adv-x="1638" unicode="④"/><glyph d="M819.5 31q-364.5 0 -556 191.5t-191.5 555.5q0 367 191.5 558.5t555.5 191.5q367 0 557.5 -192.5t190.5 -557t-191.5 -556t-556 -191.5zM819 135q645 0 645 643q0 645 -645 645t-645 -645q0 -643 645 -643zM586 1194h471q14 0 14 -12v-113q0 -10 -14 -10h-357l-12 -201 q43 10 127 10q283 0 283 -202v-109q0 -119 -83 -162t-224 -43q-137 0 -230 17q-20 6 -20 24v84q0 12 12 12h217q90 0 131 21.5t41 81.5v37q0 61 -41 81.5t-131 20.5h-203q-27 0 -26 23v92l26 332q5 16 19 16z" glyph-name="uni2464" horiz-adv-x="1638" unicode="⑤"/><glyph d="M819.5 31q-364.5 0 -556 191.5t-191.5 555.5q0 367 191.5 558.5t555.5 191.5q367 0 557.5 -192.5t190.5 -557t-191.5 -556t-556 -191.5zM819 135q645 0 645 643q0 645 -645 645t-645 -645q0 -643 645 -643zM766 1194h137q16 0 10 -16l-168 -328q41 14 109 14 q270 0 270 -190v-125q0 -115 -78.5 -156t-222.5 -41q-145 0 -225 42t-80 159v115q0 55 19 98l215 420q8 8 14 8zM823 735q-86 0 -118.5 -19.5t-32.5 -82.5v-41q0 -61 33.5 -82t117.5 -21q82 0 114 20.5t32 82.5v41q0 63 -32 82.5t-114 19.5z" glyph-name="uni2465" horiz-adv-x="1638" unicode="⑥"/><glyph d="M819.5 31q-364.5 0 -556 191.5t-191.5 555.5q0 367 191.5 558.5t555.5 191.5q367 0 557.5 -192.5t190.5 -557t-191.5 -556t-556 -191.5zM819 135q645 0 645 643q0 645 -645 645t-645 -645q0 -643 645 -643zM532 1194h576q14 0 14 -12v-84q0 -12 -6 -21l-373 -708 q-4 -10 -14 -11h-154q-14 0 -8 15l363 686h-398q-14 0 -14 10v113q0 12 14 12z" glyph-name="uni2466" horiz-adv-x="1638" unicode="⑦"/><glyph d="M819.5 31q-364.5 0 -556 191.5t-191.5 555.5q0 367 191.5 558.5t555.5 191.5q367 0 557.5 -192.5t190.5 -557t-191.5 -556t-556 -191.5zM819 135q645 0 645 643q0 645 -645 645t-645 -645q0 -643 645 -643zM813 1200h18q285 0 285 -229q0 -141 -115 -203 q137 -49 138 -190q0 -225 -310 -226h-20q-307 0 -307 226q0 147 141 213q-63 31 -89 72.5t-26 111.5q0 225 285 225zM825 1065h-10q-131 0 -131 -109q0 -76 92 -100l117 -25q66 37 65 119q0 115 -133 115zM891 698l-141 35q-92 -37 -93 -125q0 -119 156 -119h12 q158 0 158 105q0 81 -92 104z" glyph-name="uni2467" horiz-adv-x="1638" unicode="⑧"/><glyph d="M819.5 31q-364.5 0 -556 191.5t-191.5 555.5q0 367 191.5 558.5t555.5 191.5q367 0 557.5 -192.5t190.5 -557t-191.5 -556t-556 -191.5zM819 135q645 0 645 643q0 645 -645 645t-645 -645q0 -643 645 -643zM815 1198q147 0 227 -41t82 -158v-114q0 -59 -22 -97l-215 -419 q-4 -10 -15 -11h-135q-16 0 -10 17l170 330q-39 -14 -111 -15q-268 0 -268 191v123q0 115 77 154.5t220 39.5zM815 1063q-80 0 -111.5 -19.5t-31.5 -80.5v-45q0 -61 30.5 -81t112.5 -20q86 0 120 19.5t34 81.5v45q0 61 -34 80.5t-120 19.5z" glyph-name="uni2468" horiz-adv-x="1638" unicode="⑨"/><glyph d="M819 31q-367 0 -558 191.5t-191 556t192.5 557t556.5 192.5q373 0 560.5 -191.5t187.5 -558.5q0 -365 -191.5 -556t-556.5 -191zM819 135q645 0 645 643q0 645 -645 645q-647 0 -647 -645q0 -643 647 -643zM817 1202q190 0 255 -88t65 -336t-64.5 -336t-255.5 -88 q-188 0 -252.5 88t-64.5 336t64.5 336t252.5 88zM817 1067q-96 0 -129 -60.5t-33 -228.5t33 -227t129 -59q98 0 131 59t33 227t-33 228.5t-131 60.5z" glyph-name="uni24EA" horiz-adv-x="1638" unicode="⓪"/><glyph d="M819 41q-344 0 -521 176t-177 520t177 520.5t521 176.5t520.5 -177.5t176.5 -519.5q0 -344 -176.5 -520t-520.5 -176zM817 1161q-188 0 -252.5 -88t-64.5 -336t64.5 -336t252.5 -88q190 0 255 88t65 336t-65 336t-255 88zM817 1026q98 0 131 -60.5t33 -228.5t-33 -227 t-131 -59q-96 0 -129 59t-33 227t33 228.5t129 60.5z" glyph-name="uni24FF" horiz-adv-x="1638" unicode="⓿"/><glyph d="M524 1462h90q25 0 37 -20l432 -709q12 -20 -2 -41l-430 -672q-12 -20 -37 -20h-90q-25 0 -37 20l-428 672q-14 20 -2 41l430 709q12 20 37 20zM854 735l-264 443q-20 37 -41 0l-262 -443q-12 -20 0 -41l262 -424q20 -35 41 0l264 424q12 21 0 41z" glyph-name="lozenge" horiz-adv-x="1140" unicode="◊"/><glyph d="M1329 1229l316 -6q102 0 137 -29t35 -115q0 -88 -35 -116.5t-137 -28.5h-109q8 -18 8 -55q0 -55 -33 -86q33 -33 33 -93q0 -55 -33 -86q33 -33 33 -92t-27.5 -84.5t-107.5 -40.5q-336 -47 -528.5 -44t-440.5 61v-76q0 -16 -18 -16h-279q-10 0 -12 10q-2 4 -2 6 q-123 399 0 799q8 14 14 14h279q18 0 18 -14v-47q203 84 381 111.5t508 27.5zM1083 1012h562q55 0 73.5 13t18.5 54q0 39 -18.5 52.5t-78.5 13.5l-311 6q-328 0 -506 -29.5t-383 -120.5v-503q215 -61 403.5 -66.5t528.5 35.5q53 8 71.5 18.5t18.5 36.5q0 33 -18.5 43 t-73.5 10h-289q-14 0 -14 17v49q0 14 14 14h291q53 0 71.5 9.5t18.5 35.5q0 33 -18.5 44.5t-73.5 11.5h-289q-14 0 -14 14v49q0 14 14 15h291q53 0 71.5 9t18.5 36q0 33 -18.5 44t-73.5 11h-287q-14 0 -14 14v49q0 15 14 15zM360 1073h-167q-96 -309 -7 -672h174v672z" glyph-name="uni261E" horiz-adv-x="1806" unicode="☞"/><glyph d="M1544 778q0 -301 -212 -513t-513 -212q-299 0 -512 212t-213 513q0 299 213 512t512 213q301 0 513 -213t212 -512zM913 1014l-79 -49l264 2l129 229l-86 -51l-58 94q-16 27 -40.5 43t-43.5 21l-16 2l-332 2q-39 -4 -67.5 -21.5t-38.5 -32.5l-8 -16l-117 -201l233 -133 l146 256q20 20 30 -4zM971 563v94l-131 -229l133 -229v100l110 2q31 0 57.5 14.5t39.5 28.5l10 12l166 287q16 35 16 68.5t-8 50.5l-8 16l-117 199l-231 -131l147 -258q4 -10 -1 -17.5t-17 -5.5zM553 739l82 -47l-135 228l-262 -2l86 -50l-54 -96q-14 -27 -16 -57.5t4 -46.5 l6 -17l166 -286q25 -33 54.5 -49.5t47.5 -16.5h17h231l-2 266h-295q-27 4 -12 29z" glyph-name="uni267C" horiz-adv-x="1638" unicode="♼"/><glyph d="M819 41q-344 0 -520 176t-176 520t176 520.5t520 176.5t520.5 -176.5t176.5 -520.5t-176.5 -520t-520.5 -176zM1071 455h-131v557q0 90 -48 118.5t-136 28.5q-53 0 -109 -8q-14 -6 -14 -18v-86q0 -14 14 -15h74q70 0 70 -57v-520h-134q-14 0 -14 -15v-108q0 -14 14 -15 h414q12 0 12 13v110q0 15 -12 15z" glyph-name="uni2776" horiz-adv-x="1638" unicode="❶"/><glyph d="M819 41q-344 0 -520 176t-176 520t176 520.5t520 176.5t520.5 -176.5t176.5 -520.5t-176.5 -520t-520.5 -176zM786 1159q-117 0 -206 -14q-23 -6 -23 -25v-82q0 -14 12 -14h201q90 0 129 -22.5t39 -86.5v-20q0 -78 -59 -119l-224 -158q-74 -49 -99.5 -83.5t-25.5 -94.5 v-92q0 -31 29 -31h543q8 0 8 9v123q0 6 -8 6h-385v10q0 29 78 76l186 123q74 51 93.5 93t19.5 109v92q0 61 -25 103.5t-70 63t-95 27.5t-118 7z" glyph-name="uni2777" horiz-adv-x="1638" unicode="❷"/><glyph d="M819 41q-344 0 -520 176t-176 520t176 520.5t520 176.5t520.5 -176.5t176.5 -520.5t-176.5 -520t-520.5 -176zM801 1159q-145 0 -238 -16q-23 -4 -22 -25v-82q0 -12 12 -12h219q90 0 131 -19.5t41 -80.5v-25q0 -61 -41 -81.5t-133 -20.5h-164q-12 0 -12 -15v-94 q0 -12 12 -12h164q90 0 133 -21.5t41 -81.5v-26q0 -59 -40 -78.5t-132 -19.5h-219q-12 0 -12 -13v-82q0 -20 22 -24q102 -18 238 -19q299 0 299 203v61q0 139 -137 162q137 20 137 160v61q0 201 -299 201z" glyph-name="uni2778" horiz-adv-x="1638" unicode="❸"/><glyph d="M819 41q-344 0 -520 176t-176 520t176 520.5t520 176.5t520.5 -176.5t176.5 -520.5t-176.5 -520t-520.5 -176zM778 1153h-129q-12 0 -14 -8l-141 -483q-8 -25 -9 -35v-82q0 -12 13 -13h366v-200q0 -14 13 -15h129q14 0 14 15v200h121q14 0 14 13v110q0 12 -14 13h-121 v231q0 18 -14 10l-132 -41q-10 -6 -10 -14v-186h-211l135 471q6 14 -10 14z" glyph-name="uni2779" horiz-adv-x="1638" unicode="❹"/><glyph d="M819 41q-344 0 -520 176t-176 520t176 520.5t520 176.5t520.5 -176.5t176.5 -520.5t-176.5 -520t-520.5 -176zM1057 1153h-471q-14 0 -19 -16l-26 -332v-92q0 -23 26 -23h203q90 0 131 -20.5t41 -81.5v-37q0 -59 -41 -80.5t-131 -21.5h-217q-12 0 -12 -13v-84 q0 -18 20 -24q92 -16 230 -17q141 0 224 43t83 162v109q0 203 -283 202q-84 0 -127 -10l12 201h357q14 0 14 10v113q0 12 -14 12z" glyph-name="uni277A" horiz-adv-x="1638" unicode="❺"/></font>
</defs>
</svg>
