<?xml version="1.0" encoding="UTF-8" standalone="no"?>
<svg width="96px" height="96px" viewBox="0 0 96 96" version="1.1" xmlns="http://www.w3.org/2000/svg" xmlns:xlink="http://www.w3.org/1999/xlink" xmlns:sketch="http://www.bohemiancoding.com/sketch/ns">
    <!-- Generator: Sketch 3.5.2 (25235) - http://www.bohemiancoding.com/sketch -->
    <title>twitter</title>
    <desc>Created with Sketch.</desc>
    <defs></defs>
    <g id="Page-1" stroke="none" stroke-width="1" fill="none" fill-rule="evenodd" sketch:type="MSPage">
        <circle id="Oval" fill="#EADDC9" sketch:type="MSShapeGroup" cx="48" cy="48" r="48"></circle>
        <path d="M73,32.742 C71.197,33.546 69.26,34.0895 67.2265,34.334 C69.3015,33.0825 70.8955,31.101 71.647,28.7395 C69.7045,29.8985 67.5535,30.7395 65.263,31.1935 C63.4295,29.228 60.8165,28 57.925,28 C52.373,28 47.8715,32.527 47.8715,38.1115 C47.8715,38.904 47.96,39.6755 48.1315,40.416 C39.7765,39.9935 32.369,35.9685 27.4105,29.8505 C26.5455,31.3445 26.0495,33.0815 26.0495,34.9345 C26.0495,38.443 27.8245,41.5385 30.522,43.3515 C28.874,43.2995 27.3235,42.8445 25.969,42.087 C25.968,42.1295 25.968,42.172 25.968,42.2145 C25.968,47.114 29.4335,51.2005 34.0325,52.13 C33.1885,52.3615 32.301,52.485 31.384,52.485 C30.736,52.485 30.1065,52.4215 29.4925,52.3035 C30.772,56.3205 34.4845,59.2445 38.8835,59.326 C35.443,62.038 31.108,63.6545 26.398,63.6545 C25.5865,63.6545 24.7865,63.6065 24,63.5135 C28.449,66.3825 33.7335,68.057 39.41,68.057 C57.901,68.057 68.013,52.6485 68.013,39.2855 C68.013,38.847 68.003,38.4115 67.9835,37.977 C69.9475,36.5505 71.652,34.769 73,32.742 L73,32.742 Z" id="Shape" fill="#00374B" sketch:type="MSShapeGroup"></path>
    </g>
</svg>